<?xml version="1.0" standalone="no"?>
<!DOCTYPE svg PUBLIC "-//W3C//DTD SVG 1.1//EN" "http://www.w3.org/Graphics/SVG/1.1/DTD/svg11.dtd" >
<svg xmlns="http://www.w3.org/2000/svg" xmlns:xlink="http://www.w3.org/1999/xlink" version="1.1">
<metadata>
Created by FontForge 20190801 at Sun Apr 14 09:58:23 2019
 By root
Copyright \(c\) 2019 by Rene Bieder. All rights reserved.
</metadata>
<defs>
<font id="Magnat-PosterLight" horiz-adv-x="500" >
  <font-face 
    font-family="Magnat-PosterLight"
    font-weight="300"
    font-stretch="ultra-condensed"
    units-per-em="1000"
    panose-1="2 11 0 2 8 7 2 4 2 4"
    ascent="780"
    descent="-220"
    x-height="500"
    cap-height="700"
    bbox="-608 -250 1285 975"
    underline-thickness="10"
    underline-position="-160"
    stemh="10"
    stemv="63"
    unicode-range="U+0020-FB02"
  />
<missing-glyph horiz-adv-x="600" 
d="M90 700h420v-700h-420v700zM493 690h-386l193 -330zM294 350l-194 331v-662zM500 681l-194 -331l194 -331v662zM107 10h386l-193 330z" />
    <glyph glyph-name="f_f_i" unicode="ffi" horiz-adv-x="880" 
d="M823 501v-500h-63v490h-264v-490h-63v489h-254v-490h-63v490h-119v10h119v67c0 132 84 220 210 220c62 0 117 -26 147 -68c38 58 101 93 182 93c108 0 180 -54 180 -139c0 -25 -17 -44 -45 -44c-27 0 -43 19 -43 44c0 24 16 43 43 43c13 0 23 -4 31 -11
c-15 58 -75 93 -151 93c-104 0 -174 -81 -174 -200v-97h327zM179 593v-93h134v1h120v244c-25 18 -57 29 -94 29c-96 0 -160 -69 -160 -181z" />
    <glyph glyph-name="f_f_l" unicode="ffl" horiz-adv-x="896" 
d="M830 756h9v-756h-63v490h-280v-490h-63l-1 490h-253v-490h-63v490h-119v10h119v67c0 132 84 220 210 220c64 0 120 -27 150 -71c36 48 94 77 165 77c70 0 130 -33 161 -84zM496 500h280v228c-29 31 -72 50 -118 50c-97 0 -162 -72 -162 -180v-98zM432 500v72
c0 8 0 17 1 25v148c-25 18 -57 29 -94 29c-96 0 -160 -69 -160 -181v-93h253z" />
    <glyph glyph-name="fi" unicode="fi" horiz-adv-x="563" 
d="M430 672c0 24 17 43 44 43c13 0 24 -4 31 -12c-15 59 -75 94 -151 94c-105 0 -175 -80 -175 -200v-97h327v-500h-63v490h-264v-490h-63v490h-119v10h119v66c0 146 84 245 222 245c109 0 180 -54 180 -139c0 -24 -16 -43 -44 -43c-27 0 -44 19 -44 43z" />
    <glyph glyph-name="fl" unicode="fl" horiz-adv-x="579" 
d="M514 756h8v-756h-63v490h-280v-490h-63v490h-119v10h119v72c0 132 83 221 208 221c70 0 130 -33 161 -83zM179 500h280v228c-29 31 -72 50 -118 50c-97 0 -162 -72 -162 -180v-98z" />
    <glyph glyph-name="arrowright" unicode="&#x2d;&#x3e;" horiz-adv-x="700" 
d="M446 356v252l257 -257l-257 -259v254h-449v10h449z" />
    <glyph glyph-name="arrowleft" unicode="&#x3c;&#x2d;" horiz-adv-x="700" 
d="M257 357h449v-10h-449v-254l-257 259l257 257v-252z" />
    <glyph glyph-name=".notdef" horiz-adv-x="600" 
d="M90 700h420v-700h-420v700zM493 690h-386l193 -330zM294 350l-194 331v-662zM500 681l-194 -331l194 -331v662zM107 10h386l-193 330z" />
    <glyph glyph-name="space" unicode=" " horiz-adv-x="200" 
 />
    <glyph glyph-name="A" unicode="A" horiz-adv-x="677" 
d="M594 0l-109 231h-360l-104 -231h-11l320 710h2l335 -710h-73zM129 241h351l-179 380z" />
    <glyph glyph-name="Aacute" unicode="&#xc1;" horiz-adv-x="677" 
d="M489 920l-158 -170h-8l92 177h74v-7zM594 0l-109 231h-360l-104 -231h-11l320 710h2l335 -710h-73zM129 241h351l-179 380z" />
    <glyph glyph-name="Abreve" unicode="&#x102;" horiz-adv-x="677" 
d="M336 768c-77 0 -142 51 -145 154h3c14 -82 77 -112 142 -112c63 0 127 30 141 112h3c-3 -103 -68 -154 -144 -154zM594 0l-109 231h-360l-104 -231h-11l320 710h2l335 -710h-73zM129 241h351l-179 380z" />
    <glyph glyph-name="Acircumflex" unicode="&#xc2;" horiz-adv-x="677" 
d="M322 888l-121 -146h-11l154 185h2l154 -185h-57zM594 0l-109 231h-360l-104 -231h-11l320 710h2l335 -710h-73zM129 241h351l-179 380z" />
    <glyph glyph-name="Adieresis" unicode="&#xc4;" horiz-adv-x="677" 
d="M244 802c-25 0 -44 20 -44 43c0 24 19 44 44 44c26 0 45 -20 45 -44c0 -23 -19 -43 -45 -43zM425 802c-25 0 -44 20 -44 43c0 24 19 44 44 44c26 0 45 -20 45 -44c0 -23 -19 -43 -45 -43zM594 0l-109 231h-360l-104 -231h-11l320 710h2l335 -710h-73zM129 241h351
l-179 380z" />
    <glyph glyph-name="Agrave" unicode="&#xc0;" horiz-adv-x="677" 
d="M347 750h-8l-158 170v7h74zM594 0l-109 231h-360l-104 -231h-11l320 710h2l335 -710h-73zM129 241h351l-179 380z" />
    <glyph glyph-name="Amacron" unicode="&#x100;" horiz-adv-x="677" 
d="M469 820v-10h-268v10h268zM594 0l-109 231h-360l-104 -231h-11l320 710h2l335 -710h-73zM129 241h351l-179 380z" />
    <glyph glyph-name="Aogonek" unicode="&#x104;" horiz-adv-x="677" 
d="M712 -129l6 -6c-34 -43 -69 -67 -128 -67c-61 0 -98 33 -98 81c0 57 54 94 125 121h-23l-109 231h-360l-104 -231h-11l320 710h2l335 -710h-30c-64 -28 -104 -56 -104 -109c0 -45 31 -75 78 -75c36 0 66 12 101 55zM129 241h351l-179 380z" />
    <glyph glyph-name="Aring" unicode="&#xc5;" horiz-adv-x="677" 
d="M594 0l-109 231h-360l-104 -231h-11l316 700c-53 4 -86 43 -86 92c0 51 36 92 93 92c58 0 94 -41 94 -92c0 -50 -34 -90 -90 -92l330 -700h-73zM250 792c0 -45 32 -82 83 -82c52 0 84 37 84 82s-32 82 -84 82c-51 0 -83 -37 -83 -82zM129 241h351l-179 380z" />
    <glyph glyph-name="Atilde" unicode="&#xc3;" horiz-adv-x="677" 
d="M230 879c-16 -11 -34 -37 -51 -84l-10 3c26 82 64 104 91 104c43 0 106 -62 191 -103c16 20 33 47 51 91l10 -3c-27 -83 -62 -118 -95 -118c-43 0 -119 65 -187 110zM594 0l-109 231h-360l-104 -231h-11l320 710h2l335 -710h-73zM129 241h351l-179 380z" />
    <glyph glyph-name="AE" unicode="&#xc6;" horiz-adv-x="900" 
d="M860 690h-352v-330h322v-10h-322v-340h352v-10h-418v231h-279l-142 -231h-11l429 700h421v-10zM169 241h273v446z" />
    <glyph glyph-name="B" unicode="B" horiz-adv-x="599" 
d="M321 360c167 0 256 -70 256 -183c0 -105 -96 -177 -264 -177h-246v700h245c142 0 228 -64 228 -163c0 -100 -78 -170 -219 -174v-3zM291 690h-158v-324h155c128 0 186 68 186 169c0 92 -69 155 -183 155zM287 8c144 0 224 69 224 169c0 109 -72 179 -223 179h-155v-348
h154z" />
    <glyph glyph-name="C" unicode="C" horiz-adv-x="742" 
d="M399 -10c-203 0 -372 145 -372 360c0 205 153 360 364 360c181 0 304 -121 310 -315h-10c-7 188 -127 300 -281 300c-185 0 -310 -143 -310 -341c0 -203 132 -348 316 -348c151 0 271 98 289 284h10c-18 -196 -148 -300 -316 -300z" />
    <glyph glyph-name="Cacute" unicode="&#x106;" horiz-adv-x="742" 
d="M380 750l92 177h74v-7l-158 -170h-8zM399 -10c-203 0 -372 145 -372 360c0 205 153 360 364 360c181 0 304 -121 310 -315h-10c-7 188 -127 300 -281 300c-185 0 -310 -143 -310 -341c0 -203 132 -348 316 -348c151 0 271 98 289 284h10c-18 -196 -148 -300 -316 -300z
" />
    <glyph glyph-name="Ccaron" unicode="&#x10c;" horiz-adv-x="742" 
d="M401 742h-2l-154 185h56l122 -144l121 144h11zM705 290h10c-18 -196 -148 -300 -316 -300c-203 0 -372 145 -372 360c0 205 153 360 364 360c181 0 304 -121 310 -315h-10c-7 188 -127 300 -281 300c-185 0 -310 -143 -310 -341c0 -203 132 -348 316 -348
c151 0 271 98 289 284z" />
    <glyph glyph-name="Ccedilla" unicode="&#xc7;" horiz-adv-x="742" 
d="M399 -10c-7 0 -15 0 -22 1l-30 -50c65 -9 134 -37 134 -93c0 -45 -40 -75 -95 -75c-58 0 -110 34 -130 84l8 5c19 -44 64 -72 107 -72c40 0 67 23 67 58c0 42 -43 77 -107 86l36 57c-188 14 -340 155 -340 359c0 205 153 360 364 360c181 0 304 -121 310 -315h-10
c-7 188 -127 300 -281 300c-185 0 -310 -143 -310 -341c0 -203 132 -348 316 -348c151 0 271 98 289 284h10c-18 -196 -148 -300 -316 -300z" />
    <glyph glyph-name="Cdotaccent" unicode="&#x10a;" horiz-adv-x="742" 
d="M392 889c26 0 45 -20 45 -44c0 -23 -19 -43 -45 -43c-25 0 -44 20 -44 43c0 24 19 44 44 44zM399 -10c-203 0 -372 145 -372 360c0 205 153 360 364 360c181 0 304 -121 310 -315h-10c-7 188 -127 300 -281 300c-185 0 -310 -143 -310 -341c0 -203 132 -348 316 -348
c151 0 271 98 289 284h10c-18 -196 -148 -300 -316 -300z" />
    <glyph glyph-name="D" unicode="D" horiz-adv-x="703" 
d="M272 700c255 0 404 -138 404 -350s-149 -350 -404 -350h-205v700h205zM272 10c221 0 331 131 331 340s-110 340 -331 340h-139v-680h139z" />
    <glyph glyph-name="Eth" unicode="&#xd0;" horiz-adv-x="733" 
d="M302 700c255 0 404 -138 404 -350s-149 -350 -404 -350h-205v344h-77v10h77v346h205zM302 10c221 0 331 131 331 340s-110 340 -331 340h-139v-336h197v-10h-197v-334h139z" />
    <glyph glyph-name="Dcaron" unicode="&#x10e;" horiz-adv-x="703" 
d="M356 742h-2l-154 185h57l121 -145l121 145h11zM272 700c255 0 404 -138 404 -350s-149 -350 -404 -350h-205v700h205zM272 10c221 0 331 131 331 340s-110 340 -331 340h-139v-680h139z" />
    <glyph glyph-name="Dcroat" unicode="&#x110;" horiz-adv-x="733" 
d="M302 700c255 0 404 -138 404 -350s-149 -350 -404 -350h-205v344h-77v10h77v346h205zM302 10c221 0 331 131 331 340s-110 340 -331 340h-139v-336h197v-10h-197v-334h139z" />
    <glyph glyph-name="E" unicode="E" horiz-adv-x="525" 
d="M485 690h-352v-330h322v-10h-322v-340h352v-10h-418v700h418v-10z" />
    <glyph glyph-name="Eacute" unicode="&#xc9;" horiz-adv-x="525" 
d="M430 920l-158 -170h-8l92 177h74v-7zM485 690h-352v-330h322v-10h-322v-340h352v-10h-418v700h418v-10z" />
    <glyph glyph-name="Ecaron" unicode="&#x11a;" horiz-adv-x="525" 
d="M267 742h-2l-154 185h57l121 -145l121 145h11zM485 690h-352v-330h322v-10h-322v-340h352v-10h-418v700h418v-10z" />
    <glyph glyph-name="Ecircumflex" unicode="&#xca;" horiz-adv-x="525" 
d="M263 888l-121 -146h-11l154 185h2l154 -185h-57zM485 690h-352v-330h322v-10h-322v-340h352v-10h-418v700h418v-10z" />
    <glyph glyph-name="Edieresis" unicode="&#xcb;" horiz-adv-x="525" 
d="M185 802c-25 0 -44 20 -44 43c0 24 19 44 44 44c26 0 45 -20 45 -44c0 -23 -19 -43 -45 -43zM366 802c-25 0 -44 20 -44 43c0 24 19 44 44 44c26 0 45 -20 45 -44c0 -23 -19 -43 -45 -43zM485 690h-352v-330h322v-10h-322v-340h352v-10h-418v700h418v-10z" />
    <glyph glyph-name="Edotaccent" unicode="&#x116;" horiz-adv-x="525" 
d="M276 802c-25 0 -44 20 -44 43c0 24 19 44 44 44c26 0 45 -20 45 -44c0 -23 -19 -43 -45 -43zM485 690h-352v-330h322v-10h-322v-340h352v-10h-418v700h418v-10z" />
    <glyph glyph-name="Egrave" unicode="&#xc8;" horiz-adv-x="525" 
d="M288 750h-8l-158 170v7h74zM485 690h-352v-330h322v-10h-322v-340h352v-10h-418v700h418v-10z" />
    <glyph glyph-name="Emacron" unicode="&#x112;" horiz-adv-x="525" 
d="M410 820v-10h-268v10h268zM485 690h-352v-330h322v-10h-322v-340h352v-10h-418v700h418v-10z" />
    <glyph glyph-name="Eogonek" unicode="&#x118;" horiz-adv-x="525" 
d="M524 -128l6 -6c-34 -43 -69 -67 -128 -67c-61 0 -98 33 -98 81c0 57 53 93 122 120h-359v700h418v-10h-352v-330h322v-10h-322v-340h352v-10h-38c-63 -28 -102 -56 -102 -108c0 -45 31 -75 78 -75c36 0 66 12 101 55z" />
    <glyph glyph-name="F" unicode="F" horiz-adv-x="495" 
d="M468 690h-335v-330h305v-10h-305v-350h-66v700h401v-10z" />
    <glyph glyph-name="G" unicode="G" horiz-adv-x="777" 
d="M451 331h259v-341h-10l-54 108c-38 -53 -117 -108 -237 -108c-207 0 -382 137 -382 361c0 210 153 359 361 359c179 0 310 -110 317 -295h-10c-8 170 -127 280 -289 280c-178 0 -306 -137 -306 -341c0 -210 134 -351 317 -351c113 0 190 52 226 108v210h-192v10z" />
    <glyph glyph-name="Gbreve" unicode="&#x11e;" horiz-adv-x="777" 
d="M384 768c-77 0 -142 51 -145 154h3c14 -82 77 -112 142 -112c63 0 127 30 141 112h3c-3 -103 -68 -154 -144 -154zM451 331h259v-341h-10l-54 108c-38 -53 -117 -108 -237 -108c-207 0 -382 137 -382 361c0 210 153 359 361 359c179 0 310 -110 317 -295h-10
c-8 170 -127 280 -289 280c-178 0 -306 -137 -306 -341c0 -210 134 -351 317 -351c113 0 190 52 226 108v210h-192v10z" />
    <glyph glyph-name="uni0122" unicode="&#x122;" horiz-adv-x="777" 
d="M451 331h259v-341h-10l-54 108c-38 -53 -117 -108 -237 -108c-207 0 -382 137 -382 361c0 210 153 359 361 359c179 0 310 -110 317 -295h-10c-8 170 -127 280 -289 280c-178 0 -306 -137 -306 -341c0 -210 134 -351 317 -351c113 0 190 52 226 108v210h-192v10zM384 -69
c45 0 76 -32 76 -86c0 -50 -35 -95 -95 -95c-15 0 -32 2 -51 10l3 10c18 -8 35 -11 50 -11c53 0 83 42 83 87c0 23 -10 50 -34 57c2 -4 3 -9 3 -14c0 -22 -16 -37 -38 -37c-24 0 -40 16 -40 39s17 40 43 40z" />
    <glyph glyph-name="Gdotaccent" unicode="&#x120;" horiz-adv-x="777" 
d="M383 802c-25 0 -44 20 -44 43c0 24 19 44 44 44c26 0 45 -20 45 -44c0 -23 -19 -43 -45 -43zM451 331h259v-341h-10l-54 108c-38 -53 -117 -108 -237 -108c-207 0 -382 137 -382 361c0 210 153 359 361 359c179 0 310 -110 317 -295h-10c-8 170 -127 280 -289 280
c-178 0 -306 -137 -306 -341c0 -210 134 -351 317 -351c113 0 190 52 226 108v210h-192v10z" />
    <glyph glyph-name="H" unicode="H" horiz-adv-x="683" 
d="M549 700h67v-700h-67v364h-416v-364h-66v700h66v-326h416v326z" />
    <glyph glyph-name="Hbar" unicode="&#x126;" horiz-adv-x="683" 
d="M697 544v-10h-81v-534h-67v364h-416v-364h-66v534h-84v10h84v156h66v-156h416v156h67v-156h81zM549 374v160h-416v-160h416z" />
    <glyph glyph-name="I" unicode="I" horiz-adv-x="200" 
d="M67 0v700h66v-700h-66z" />
    <glyph glyph-name="Iacute" unicode="&#xcd;" horiz-adv-x="200" 
d="M88 750l92 177h74v-7l-158 -170h-8zM67 0v700h66v-700h-66z" />
    <glyph glyph-name="Icircumflex" unicode="&#xce;" horiz-adv-x="200" 
d="M111 927l154 -185h-57l-121 146l-121 -146h-11l154 185h2zM67 0v700h66v-700h-66z" />
    <glyph glyph-name="Idieresis" unicode="&#xcf;" horiz-adv-x="200" 
d="M9 889c26 0 45 -20 45 -44c0 -23 -19 -43 -45 -43c-25 0 -44 20 -44 43c0 24 19 44 44 44zM190 889c26 0 45 -20 45 -44c0 -23 -19 -43 -45 -43c-25 0 -44 20 -44 43c0 24 19 44 44 44zM67 0v700h66v-700h-66z" />
    <glyph glyph-name="Idotaccent" unicode="&#x130;" horiz-adv-x="200" 
d="M100 889c26 0 45 -20 45 -44c0 -23 -19 -43 -45 -43c-25 0 -44 20 -44 43c0 24 19 44 44 44zM67 0v700h66v-700h-66z" />
    <glyph glyph-name="Igrave" unicode="&#xcc;" horiz-adv-x="200" 
d="M112 750h-8l-158 170v7h74zM67 0v700h66v-700h-66z" />
    <glyph glyph-name="Imacron" unicode="&#x12a;" horiz-adv-x="200" 
d="M-34 820h268v-10h-268v10zM67 0v700h66v-700h-66z" />
    <glyph glyph-name="Iogonek" unicode="&#x12e;" horiz-adv-x="200" 
d="M197 -128l6 -6c-34 -43 -69 -67 -128 -67c-61 0 -99 33 -99 81c0 55 50 93 117 120h-26v700h66v-700h-21c-59 -27 -94 -57 -94 -108c0 -45 30 -75 77 -75c36 0 66 12 102 55z" />
    <glyph glyph-name="J" unicode="J" horiz-adv-x="527" 
d="M403 700h67v-498c0 -132 -92 -211 -220 -211c-129 0 -220 80 -220 202h10c0 -109 76 -182 185 -182c106 0 178 69 178 182v507z" />
    <glyph glyph-name="K" unicode="K" horiz-adv-x="639" 
d="M533 0l-332 353h-68v-353h-66v700h66v-337h68l341 337h16l-306 -301l368 -399h-87z" />
    <glyph glyph-name="uni0136" unicode="&#x136;" horiz-adv-x="639" 
d="M252 399l368 -399h-87l-332 353h-68v-353h-66v700h66v-337h68l341 337h16zM380 -69c45 0 76 -32 76 -86c0 -50 -35 -95 -95 -95c-15 0 -32 2 -51 10l3 10c18 -8 35 -11 50 -11c53 0 83 42 83 87c0 23 -10 50 -34 57c2 -4 3 -9 3 -14c0 -22 -16 -37 -38 -37
c-24 0 -40 16 -40 39s17 40 43 40z" />
    <glyph glyph-name="L" unicode="L" horiz-adv-x="512" 
d="M133 10h353v-10h-419v700h66v-690z" />
    <glyph glyph-name="Lacute" unicode="&#x139;" horiz-adv-x="512" 
d="M257 920l-158 -170h-8l92 177h74v-7zM133 10h353v-10h-419v700h66v-690z" />
    <glyph glyph-name="Lcaron" unicode="&#x13d;" horiz-adv-x="512" 
d="M133 10h353v-10h-419v700h66v-690zM380 695l-56 -249h-5v254h61v-5z" />
    <glyph glyph-name="uni013B" unicode="&#x13b;" horiz-adv-x="512" 
d="M133 10h353v-10h-419v700h66v-690zM250 -69c45 0 76 -32 76 -86c0 -50 -35 -95 -95 -95c-15 0 -32 2 -51 10l3 10c18 -8 35 -11 50 -11c53 0 83 42 83 87c0 23 -10 50 -34 57c2 -4 3 -9 3 -14c0 -22 -16 -37 -38 -37c-24 0 -40 16 -40 39s17 40 43 40z" />
    <glyph glyph-name="Lslash" unicode="&#x141;" horiz-adv-x="512" 
d="M133 10h353v-10h-419v244l-86 -44v10l86 44v446h66v-413l223 114v-10l-223 -114v-267z" />
    <glyph glyph-name="M" unicode="M" horiz-adv-x="840" 
d="M773 700v-700h-66v689l-311 -699h-1l-318 700v-690h-10v700h78l280 -612l275 612h73z" />
    <glyph glyph-name="N" unicode="N" horiz-adv-x="699" 
d="M623 700h10v-710h-10l-546 698v-688h-10v700h83l473 -602v602z" />
    <glyph glyph-name="Nacute" unicode="&#x143;" horiz-adv-x="699" 
d="M504 920l-158 -170h-8l92 177h74v-7zM623 700h10v-710h-10l-546 698v-688h-10v700h83l473 -602v602z" />
    <glyph glyph-name="Ncaron" unicode="&#x147;" horiz-adv-x="699" 
d="M341 742h-2l-154 185h57l121 -145l121 145h11zM623 700h10v-710h-10l-546 698v-688h-10v700h83l473 -602v602z" />
    <glyph glyph-name="uni0145" unicode="&#x145;" horiz-adv-x="699" 
d="M623 700h10v-710h-10l-546 698v-688h-10v700h83l473 -602v602zM351 -69c45 0 76 -32 76 -86c0 -50 -35 -95 -95 -95c-15 0 -32 2 -51 10l3 10c18 -8 35 -11 50 -11c53 0 83 42 83 87c0 23 -10 50 -34 57c2 -4 3 -9 3 -14c0 -22 -16 -37 -38 -37c-24 0 -40 16 -40 39
s17 40 43 40z" />
    <glyph glyph-name="Eng" unicode="&#x14a;" horiz-adv-x="699" 
d="M623 700h10v-740c0 -78 -53 -130 -133 -130c-53 0 -95 23 -116 61l8 6c21 -36 59 -57 108 -57c74 0 123 48 123 120v30l-546 698v-688h-10v700h83l473 -602v602z" />
    <glyph glyph-name="Ntilde" unicode="&#xd1;" horiz-adv-x="699" 
d="M245 879c-16 -11 -34 -37 -51 -84l-10 3c26 82 64 104 91 104c43 0 106 -62 191 -103c16 20 33 47 51 91l10 -3c-27 -83 -62 -118 -95 -118c-43 0 -119 65 -187 110zM623 700h10v-710h-10l-546 698v-688h-10v700h83l473 -602v602z" />
    <glyph glyph-name="O" unicode="O" horiz-adv-x="766" 
d="M383 710c190 0 356 -151 356 -360s-166 -360 -356 -360s-356 151 -356 360s166 360 356 360zM383 0c166 0 283 137 283 350s-117 350 -283 350s-283 -137 -283 -350s117 -350 283 -350z" />
    <glyph glyph-name="Oacute" unicode="&#xd3;" horiz-adv-x="766" 
d="M371 750l92 177h74v-7l-158 -170h-8zM383 710c190 0 356 -151 356 -360s-166 -360 -356 -360s-356 151 -356 360s166 360 356 360zM383 0c166 0 283 137 283 350s-117 350 -283 350s-283 -137 -283 -350s117 -350 283 -350z" />
    <glyph glyph-name="Ocircumflex" unicode="&#xd4;" horiz-adv-x="766" 
d="M370 888l-121 -146h-11l154 185h2l154 -185h-57zM383 710c190 0 356 -151 356 -360s-166 -360 -356 -360s-356 151 -356 360s166 360 356 360zM383 0c166 0 283 137 283 350s-117 350 -283 350s-283 -137 -283 -350s117 -350 283 -350z" />
    <glyph glyph-name="Odieresis" unicode="&#xd6;" horiz-adv-x="766" 
d="M292 889c26 0 45 -20 45 -44c0 -23 -19 -43 -45 -43c-25 0 -44 20 -44 43c0 24 19 44 44 44zM473 889c26 0 45 -20 45 -44c0 -23 -19 -43 -45 -43c-25 0 -44 20 -44 43c0 24 19 44 44 44zM383 710c190 0 356 -151 356 -360s-166 -360 -356 -360s-356 151 -356 360
s166 360 356 360zM383 0c166 0 283 137 283 350s-117 350 -283 350s-283 -137 -283 -350s117 -350 283 -350z" />
    <glyph glyph-name="Ograve" unicode="&#xd2;" horiz-adv-x="766" 
d="M395 750h-8l-158 170v7h74zM383 710c190 0 356 -151 356 -360s-166 -360 -356 -360s-356 151 -356 360s166 360 356 360zM383 0c166 0 283 137 283 350s-117 350 -283 350s-283 -137 -283 -350s117 -350 283 -350z" />
    <glyph glyph-name="Ohungarumlaut" unicode="&#x150;" horiz-adv-x="766" 
d="M280 750l92 177h74v-7l-158 -170h-8zM460 750l92 177h74v-7l-158 -170h-8zM383 710c190 0 356 -151 356 -360s-166 -360 -356 -360s-356 151 -356 360s166 360 356 360zM383 0c166 0 283 137 283 350s-117 350 -283 350s-283 -137 -283 -350s117 -350 283 -350z" />
    <glyph glyph-name="Omacron" unicode="&#x14c;" horiz-adv-x="766" 
d="M249 820h268v-10h-268v10zM383 710c190 0 356 -151 356 -360s-166 -360 -356 -360s-356 151 -356 360s166 360 356 360zM383 0c166 0 283 137 283 350s-117 350 -283 350s-283 -137 -283 -350s117 -350 283 -350z" />
    <glyph glyph-name="Oslash" unicode="&#xd8;" horiz-adv-x="766" 
d="M641 600c60 -63 98 -150 98 -250c0 -209 -166 -360 -356 -360c-95 0 -185 38 -250 102l-96 -96l-7 7l96 96c-61 64 -99 151 -99 251c0 209 166 360 356 360c96 0 185 -38 251 -103l89 89l7 -7zM100 350c0 -88 20 -164 56 -221l450 450c-50 77 -129 121 -223 121
c-166 0 -283 -137 -283 -350zM383 0c166 0 283 137 283 350c0 88 -20 163 -55 220l-450 -450c50 -76 128 -120 222 -120z" />
    <glyph glyph-name="Otilde" unicode="&#xd5;" horiz-adv-x="766" 
d="M278 879c-16 -11 -34 -37 -51 -84l-10 3c26 82 64 104 91 104c43 0 106 -62 191 -103c16 20 33 47 51 91l10 -3c-27 -83 -62 -118 -95 -118c-43 0 -119 65 -187 110zM383 710c190 0 356 -151 356 -360s-166 -360 -356 -360s-356 151 -356 360s166 360 356 360zM383 0
c166 0 283 137 283 350s-117 350 -283 350s-283 -137 -283 -350s117 -350 283 -350z" />
    <glyph glyph-name="OE" unicode="&#x152;" horiz-adv-x="1027" 
d="M988 690h-352v-330h322v-10h-322v-340h352v-10h-557c-255 0 -404 138 -404 350s149 350 404 350h557v-10zM431 10h138v680h-138c-222 0 -331 -131 -331 -340s109 -340 331 -340z" />
    <glyph glyph-name="P" unicode="P" horiz-adv-x="585" 
d="M288 700c189 0 280 -79 280 -195c0 -112 -83 -202 -280 -202h-155v-303h-66v700h221zM288 313c138 0 210 74 210 192c0 113 -69 185 -210 185h-155v-377h155z" />
    <glyph glyph-name="Thorn" unicode="&#xde;" horiz-adv-x="585" 
d="M288 548c189 0 280 -79 280 -195c0 -112 -83 -202 -280 -202h-155v-151h-66v700h66v-152h155zM288 161c138 0 210 74 210 192c0 113 -69 185 -210 185h-155v-377h155z" />
    <glyph glyph-name="Q" unicode="Q" horiz-adv-x="766" 
d="M867 -106l7 -8c-95 -79 -178 -86 -239 -86c-181 0 -353 96 -536 331c-45 59 -72 134 -72 219c0 209 166 360 356 360s356 -151 356 -360s-166 -360 -356 -360c-76 0 -147 24 -206 66c157 -172 304 -246 457 -246c60 0 141 6 233 84zM383 700c-166 0 -283 -137 -283 -350
s117 -350 283 -350s283 137 283 350s-117 350 -283 350z" />
    <glyph glyph-name="R" unicode="R" horiz-adv-x="603" 
d="M574 0h-74l-181 330c-13 -1 -27 -2 -42 -2h-144v-328h-66v700h210c177 0 274 -79 274 -186c0 -96 -78 -169 -220 -183l29 -53h61zM261 338c148 0 220 77 220 176s-72 176 -220 176h-128v-352h128z" />
    <glyph glyph-name="Racute" unicode="&#x154;" horiz-adv-x="603" 
d="M483 920l-158 -170h-8l92 177h74v-7zM574 0h-74l-181 330c-13 -1 -27 -2 -42 -2h-144v-328h-66v700h210c177 0 274 -79 274 -186c0 -96 -78 -169 -220 -183l29 -53h61zM261 338c148 0 220 77 220 176s-72 176 -220 176h-128v-352h128z" />
    <glyph glyph-name="Rcaron" unicode="&#x158;" horiz-adv-x="603" 
d="M320 742h-2l-154 185h57l121 -145l121 145h11zM574 0h-74l-181 330c-13 -1 -27 -2 -42 -2h-144v-328h-66v700h210c177 0 274 -79 274 -186c0 -96 -78 -169 -220 -183l29 -53h61zM261 338c148 0 220 77 220 176s-72 176 -220 176h-128v-352h128z" />
    <glyph glyph-name="uni0156" unicode="&#x156;" horiz-adv-x="603" 
d="M421 278l153 -278h-74l-181 330c-13 -1 -27 -2 -42 -2h-144v-328h-66v700h210c177 0 274 -79 274 -186c0 -96 -78 -169 -220 -183l29 -53h61zM261 338c148 0 220 77 220 176s-72 176 -220 176h-128v-352h128zM290 -69c45 0 76 -32 76 -86c0 -50 -35 -95 -95 -95
c-15 0 -32 2 -51 10l3 10c18 -8 35 -11 50 -11c53 0 83 42 83 87c0 23 -10 50 -34 57c2 -4 3 -9 3 -14c0 -22 -16 -37 -38 -37c-24 0 -40 16 -40 39s17 40 43 40z" />
    <glyph glyph-name="S" unicode="S" horiz-adv-x="539" 
d="M280 -10c-154 0 -257 85 -257 212h10c0 -120 98 -201 245 -201c113 0 189 57 189 148c0 224 -432 107 -432 368c0 115 90 193 223 193c134 0 225 -77 225 -192h-10c0 109 -85 181 -212 181c-110 0 -182 -58 -182 -146c0 -222 432 -109 432 -370
c0 -116 -94 -193 -231 -193z" />
    <glyph glyph-name="Sacute" unicode="&#x15a;" horiz-adv-x="539" 
d="M262 750l92 177h74v-7l-158 -170h-8zM280 -10c-154 0 -257 85 -257 212h10c0 -120 98 -201 245 -201c113 0 189 57 189 148c0 224 -432 107 -432 368c0 115 90 193 223 193c134 0 225 -77 225 -192h-10c0 109 -85 181 -212 181c-110 0 -182 -58 -182 -146
c0 -222 432 -109 432 -370c0 -116 -94 -193 -231 -193z" />
    <glyph glyph-name="Scaron" unicode="&#x160;" horiz-adv-x="539" 
d="M265 742h-2l-154 185h57l121 -145l121 145h11zM79 553c0 -222 432 -109 432 -370c0 -116 -94 -193 -231 -193c-154 0 -257 85 -257 212h10c0 -120 98 -201 245 -201c113 0 189 57 189 148c0 224 -432 107 -432 368c0 115 90 193 223 193c134 0 225 -77 225 -192h-10
c0 109 -85 181 -212 181c-110 0 -182 -58 -182 -146z" />
    <glyph glyph-name="Scedilla" unicode="&#x15e;" horiz-adv-x="539" 
d="M280 -10c-7 0 -14 0 -21 1l-30 -50c65 -9 134 -37 134 -93c0 -45 -40 -75 -95 -75c-58 0 -110 34 -130 84l8 5c19 -44 64 -72 107 -72c40 0 67 23 67 58c0 42 -43 77 -107 86l36 57c-137 11 -226 93 -226 211h10c0 -120 98 -201 245 -201c113 0 189 57 189 148
c0 224 -432 107 -432 368c0 115 90 193 223 193c134 0 225 -77 225 -192h-10c0 109 -85 181 -212 181c-110 0 -182 -58 -182 -146c0 -222 432 -109 432 -370c0 -116 -94 -193 -231 -193z" />
    <glyph glyph-name="uni0218" unicode="&#x218;" horiz-adv-x="539" 
d="M79 553c0 -222 432 -109 432 -370c0 -116 -94 -193 -231 -193c-154 0 -257 85 -257 212h10c0 -120 98 -201 245 -201c113 0 189 57 189 148c0 224 -432 107 -432 368c0 115 90 193 223 193c134 0 225 -77 225 -192h-10c0 109 -85 181 -212 181c-110 0 -182 -58 -182 -146
zM265 -69c45 0 76 -32 76 -86c0 -50 -35 -95 -95 -95c-15 0 -32 2 -51 10l3 10c18 -8 35 -11 50 -11c53 0 83 42 83 87c0 23 -10 50 -34 57c2 -4 3 -9 3 -14c0 -22 -16 -37 -38 -37c-24 0 -40 16 -40 39s17 40 43 40z" />
    <glyph glyph-name="uni1E9E" unicode="&#x1e9e;" horiz-adv-x="675" 
d="M389 460c0 -118 256 -103 256 -288c0 -107 -82 -182 -215 -182c-77 0 -143 32 -180 89l9 6c31 -54 94 -85 169 -85c102 0 162 59 162 141c0 161 -239 130 -239 277c0 66 29 130 231 272h-449v-690h-66v700h530v-10c-187 -130 -208 -179 -208 -230z" />
    <glyph glyph-name="T" unicode="T" horiz-adv-x="624" 
d="M597 700v-10h-252v-690h-66v690h-252v10h570z" />
    <glyph glyph-name="Tbar" unicode="&#x166;" horiz-adv-x="624" 
d="M597 690h-252v-336h145v-10h-145v-344h-66v344h-146v10h146v336h-252v10h570v-10z" />
    <glyph glyph-name="Tcaron" unicode="&#x164;" horiz-adv-x="624" 
d="M303 742h-2l-154 185h57l121 -145l121 145h11zM597 700v-10h-252v-690h-66v690h-252v10h570z" />
    <glyph glyph-name="uni0162" unicode="&#x162;" horiz-adv-x="624" 
d="M345 0h-30l-36 -59c65 -9 134 -37 134 -93c0 -45 -40 -75 -95 -75c-58 0 -110 34 -130 84l8 5c19 -44 64 -72 107 -72c40 0 67 23 67 58c0 42 -43 77 -107 86l42 66h-26v690h-252v10h570v-10h-252v-690z" />
    <glyph glyph-name="uni021A" unicode="&#x21a;" horiz-adv-x="624" 
d="M597 700v-10h-252v-690h-66v690h-252v10h570zM315 -69c45 0 76 -32 76 -86c0 -50 -35 -95 -95 -95c-15 0 -32 2 -51 10l3 10c18 -8 35 -11 50 -11c53 0 83 42 83 87c0 23 -10 50 -34 57c2 -4 3 -9 3 -14c0 -22 -16 -37 -38 -37c-24 0 -40 16 -40 39s17 40 43 40z" />
    <glyph glyph-name="U" unicode="U" horiz-adv-x="666" 
d="M610 700v-422c0 -173 -99 -288 -269 -288c-163 0 -284 106 -284 291v419h66v-432c0 -158 90 -259 235 -259c148 0 242 106 242 269v422h10z" />
    <glyph glyph-name="Uacute" unicode="&#xda;" horiz-adv-x="666" 
d="M348 750l92 177h74v-7l-158 -170h-8zM610 700v-422c0 -173 -99 -288 -269 -288c-163 0 -284 106 -284 291v419h66v-432c0 -158 90 -259 235 -259c148 0 242 106 242 269v422h10z" />
    <glyph glyph-name="Ucircumflex" unicode="&#xdb;" horiz-adv-x="666" 
d="M347 888l-121 -146h-11l154 185h2l154 -185h-57zM600 700h10v-422c0 -173 -99 -288 -269 -288c-163 0 -284 106 -284 291v419h66v-432c0 -158 90 -259 235 -259c148 0 242 106 242 269v422z" />
    <glyph glyph-name="Udieresis" unicode="&#xdc;" horiz-adv-x="666" 
d="M269 889c26 0 45 -20 45 -44c0 -23 -19 -43 -45 -43c-25 0 -44 20 -44 43c0 24 19 44 44 44zM450 889c26 0 45 -20 45 -44c0 -23 -19 -43 -45 -43c-25 0 -44 20 -44 43c0 24 19 44 44 44zM610 700v-422c0 -173 -99 -288 -269 -288c-163 0 -284 106 -284 291v419h66v-432
c0 -158 90 -259 235 -259c148 0 242 106 242 269v422h10z" />
    <glyph glyph-name="Ugrave" unicode="&#xd9;" horiz-adv-x="666" 
d="M372 750h-8l-158 170v7h74zM610 700v-422c0 -173 -99 -288 -269 -288c-163 0 -284 106 -284 291v419h66v-432c0 -158 90 -259 235 -259c148 0 242 106 242 269v422h10z" />
    <glyph glyph-name="Uhungarumlaut" unicode="&#x170;" horiz-adv-x="666" 
d="M257 750l92 177h74v-7l-158 -170h-8zM437 750l92 177h74v-7l-158 -170h-8zM610 700v-422c0 -173 -99 -288 -269 -288c-163 0 -284 106 -284 291v419h66v-432c0 -158 90 -259 235 -259c148 0 242 106 242 269v422h10z" />
    <glyph glyph-name="Umacron" unicode="&#x16a;" horiz-adv-x="666" 
d="M226 820h268v-10h-268v10zM610 700v-422c0 -173 -99 -288 -269 -288c-163 0 -284 106 -284 291v419h66v-432c0 -158 90 -259 235 -259c148 0 242 106 242 269v422h10z" />
    <glyph glyph-name="Uogonek" unicode="&#x172;" horiz-adv-x="666" 
d="M600 700h10v-422c0 -145 -69 -249 -192 -279c-61 -27 -99 -55 -99 -107c0 -45 31 -75 78 -75c36 0 66 12 101 55l6 -6c-34 -43 -69 -67 -128 -67c-61 0 -98 33 -98 81c0 51 43 86 104 112c-13 -1 -27 -2 -41 -2c-163 0 -284 106 -284 291v419h66v-432
c0 -158 90 -259 235 -259c148 0 242 106 242 269v422z" />
    <glyph glyph-name="Uring" unicode="&#x16e;" horiz-adv-x="666" 
d="M358 884c58 0 94 -41 94 -92s-36 -92 -94 -92c-57 0 -93 41 -93 92s36 92 93 92zM358 874c-51 0 -83 -37 -83 -82s32 -82 83 -82c52 0 84 37 84 82s-32 82 -84 82zM610 700v-422c0 -173 -99 -288 -269 -288c-163 0 -284 106 -284 291v419h66v-432
c0 -158 90 -259 235 -259c148 0 242 106 242 269v422h10z" />
    <glyph glyph-name="V" unicode="V" horiz-adv-x="677" 
d="M656 700h11l-320 -710h-2l-335 710h73l293 -621z" />
    <glyph glyph-name="W" unicode="W" horiz-adv-x="1026" 
d="M1003 700h13l-299 -710h-1l-202 460l-201 -460h-1l-302 710h71l261 -621l166 385l-104 236h73l269 -617z" />
    <glyph glyph-name="Wacute" unicode="&#x1e82;" horiz-adv-x="1026" 
d="M681 920l-158 -170h-8l92 177h74v-7zM1003 700h13l-299 -710h-1l-202 460l-201 -460h-1l-302 710h71l261 -621l166 385l-104 236h73l269 -617z" />
    <glyph glyph-name="Wcircumflex" unicode="&#x174;" horiz-adv-x="1026" 
d="M514 888l-121 -146h-11l154 185h2l154 -185h-57zM1003 700h13l-299 -710h-1l-202 460l-201 -460h-1l-302 710h71l261 -621l166 385l-104 236h73l269 -617z" />
    <glyph glyph-name="Wdieresis" unicode="&#x1e84;" horiz-adv-x="1026" 
d="M436 802c-25 0 -44 20 -44 43c0 24 19 44 44 44c26 0 45 -20 45 -44c0 -23 -19 -43 -45 -43zM617 802c-25 0 -44 20 -44 43c0 24 19 44 44 44c26 0 45 -20 45 -44c0 -23 -19 -43 -45 -43zM1003 700h13l-299 -710h-1l-202 460l-201 -460h-1l-302 710h71l261 -621l166 385
l-104 236h73l269 -617z" />
    <glyph glyph-name="Wgrave" unicode="&#x1e80;" horiz-adv-x="1026" 
d="M539 750h-8l-158 170v7h74zM1003 700h13l-299 -710h-1l-202 460l-201 -460h-1l-302 710h71l261 -621l166 385l-104 236h73l269 -617z" />
    <glyph glyph-name="X" unicode="X" horiz-adv-x="655" 
d="M637 0h-83l-247 324l-275 -324h-16l283 333l-280 367h81l242 -316l270 316h16l-278 -326z" />
    <glyph glyph-name="Y" unicode="Y" horiz-adv-x="562" 
d="M537 700h15l-234 -368v-332h-66v326l-242 374h80l222 -356z" />
    <glyph glyph-name="Yacute" unicode="&#xdd;" horiz-adv-x="562" 
d="M459 920l-158 -170h-8l92 177h74v-7zM537 700h15l-234 -368v-332h-66v326l-242 374h80l222 -356z" />
    <glyph glyph-name="Ycircumflex" unicode="&#x176;" horiz-adv-x="562" 
d="M292 888l-121 -146h-11l154 185h2l154 -185h-57zM537 700h15l-234 -368v-332h-66v326l-242 374h80l222 -356z" />
    <glyph glyph-name="Ydieresis" unicode="&#x178;" horiz-adv-x="562" 
d="M214 802c-25 0 -44 20 -44 43c0 24 19 44 44 44c26 0 45 -20 45 -44c0 -23 -19 -43 -45 -43zM395 802c-25 0 -44 20 -44 43c0 24 19 44 44 44c26 0 45 -20 45 -44c0 -23 -19 -43 -45 -43zM537 700h15l-234 -368v-332h-66v326l-242 374h80l222 -356z" />
    <glyph glyph-name="Ygrave" unicode="&#x1ef2;" horiz-adv-x="562" 
d="M317 750h-8l-158 170v7h74zM537 700h15l-234 -368v-332h-66v326l-242 374h80l222 -356z" />
    <glyph glyph-name="Z" unicode="Z" horiz-adv-x="648" 
d="M619 700v-10l-512 -680h506v-10h-585v10l511 680h-499v10h579z" />
    <glyph glyph-name="Zacute" unicode="&#x179;" horiz-adv-x="648" 
d="M479 920l-158 -170h-8l92 177h74v-7zM619 700v-10l-512 -680h506v-10h-585v10l511 680h-499v10h579z" />
    <glyph glyph-name="Zcaron" unicode="&#x17d;" horiz-adv-x="648" 
d="M316 742h-2l-154 185h57l121 -145l121 145h11zM619 700v-10l-512 -680h506v-10h-585v10l511 680h-499v10h579z" />
    <glyph glyph-name="Zdotaccent" unicode="&#x17b;" horiz-adv-x="648" 
d="M325 802c-25 0 -44 20 -44 43c0 24 19 44 44 44c26 0 45 -20 45 -44c0 -23 -19 -43 -45 -43zM619 700v-10l-512 -680h506v-10h-585v10l511 680h-499v10h579z" />
    <glyph glyph-name="Q.ss05" horiz-adv-x="766" 
d="M591 -213c41 0 86 11 116 32l6 -9c-29 -19 -74 -33 -122 -33c-91 0 -151 48 -151 117c0 51 17 83 64 117c-38 -14 -79 -21 -121 -21c-190 0 -356 151 -356 360s166 360 356 360s356 -151 356 -360c0 -140 -74 -254 -181 -314c-83 -52 -108 -80 -108 -142
c0 -64 56 -107 141 -107zM100 350c0 -213 117 -350 283 -350s283 137 283 350s-117 350 -283 350s-283 -137 -283 -350z" />
    <glyph glyph-name="N.ss06" horiz-adv-x="699" 
d="M623 700h10v-710h-10l-546 624v-614h-10v710h10l546 -628v618z" />
    <glyph glyph-name="Nacute.ss06" horiz-adv-x="699" 
d="M523 920l-158 -170h-8l92 177h74v-7zM623 700h10v-710h-10l-546 624v-614h-10v710h10l546 -628v618z" />
    <glyph glyph-name="Ncaron.ss06" horiz-adv-x="699" 
d="M360 742h-2l-154 185h57l121 -145l121 145h11zM623 700h10v-710h-10l-546 624v-614h-10v710h10l546 -628v618z" />
    <glyph glyph-name="uni0145.ss06" horiz-adv-x="699" 
d="M623 700h10v-710h-10l-546 624v-614h-10v710h10l546 -628v618zM350 -69c45 0 76 -32 76 -86c0 -50 -35 -95 -95 -95c-15 0 -32 2 -51 10l3 10c18 -8 35 -11 50 -11c53 0 83 42 83 87c0 23 -10 50 -34 57c2 -4 3 -9 3 -14c0 -22 -16 -37 -38 -37c-24 0 -40 16 -40 39
s17 40 43 40z" />
    <glyph glyph-name="Eng.ss06" horiz-adv-x="699" 
d="M623 700h10v-740c0 -78 -53 -130 -133 -130c-53 0 -95 23 -116 61l8 6c21 -36 59 -57 108 -57c74 0 123 48 123 120v30l-546 624v-614h-10v710h10l546 -628v618z" />
    <glyph glyph-name="Ntilde.ss06" horiz-adv-x="699" 
d="M264 879c-16 -11 -34 -37 -51 -84l-10 3c26 82 64 104 91 104c43 0 106 -62 191 -103c16 20 33 47 51 91l10 -3c-27 -83 -62 -118 -95 -118c-43 0 -119 65 -187 110zM623 700h10v-710h-10l-546 624v-614h-10v710h10l546 -628v618z" />
    <glyph glyph-name="M.ss08" horiz-adv-x="796" 
d="M729 700v-700h-66v691l-289 -491h-1l-296 492v-692h-10v700h79l257 -429l253 429h73z" />
    <glyph glyph-name="Adieresis.ss09" horiz-adv-x="677" 
d="M145 631c-25 0 -44 20 -44 44c0 23 19 43 44 43c26 0 45 -20 45 -43c0 -24 -19 -44 -45 -44zM528 631c-25 0 -44 20 -44 44c0 23 19 43 44 43c26 0 45 -20 45 -43c0 -24 -19 -44 -45 -44zM594 0l-109 231h-360l-104 -231h-11l320 710h2l335 -710h-73zM129 241h351
l-179 380z" />
    <glyph glyph-name="Odieresis.ss09" horiz-adv-x="766" 
d="M383 710c190 0 356 -151 356 -360s-166 -360 -356 -360s-356 151 -356 360s166 360 356 360zM383 0c166 0 283 137 283 350s-117 350 -283 350s-283 -137 -283 -350s117 -350 283 -350zM383 504c26 0 44 -19 44 -42s-18 -43 -44 -43c-25 0 -43 20 -43 43s18 42 43 42z
M383 274c26 0 44 -20 44 -43s-18 -42 -44 -42c-25 0 -43 19 -43 42s18 43 43 43z" />
    <glyph glyph-name="Udieresis.ss09" horiz-adv-x="666" 
d="M353 701c27 0 45 -20 45 -43s-18 -43 -45 -43c-25 0 -43 20 -43 43s18 43 43 43zM610 700v-422c0 -173 -99 -288 -269 -288c-163 0 -284 106 -284 291v419h66v-432c0 -158 90 -259 235 -259c148 0 242 106 242 269v422h10zM353 468c27 0 45 -20 45 -43s-18 -43 -45 -43
c-25 0 -43 20 -43 43s18 43 43 43z" />
    <glyph glyph-name="a" unicode="a" 
d="M250 510c134 0 199 -79 199 -214v-306h-10l-52 202c-31 -141 -143 -202 -234 -202c-87 0 -130 48 -130 110c0 109 128 170 362 185v28c0 114 -42 183 -153 183c-106 0 -180 -73 -180 -203h-10c0 139 79 217 208 217zM191 21c96 0 194 92 194 250v6
c-192 -15 -299 -67 -299 -166c0 -56 36 -90 105 -90z" />
    <glyph glyph-name="aacute" unicode="&#xe1;" 
d="M387 753l-158 -171h-8l92 178h74v-7zM250 510c134 0 199 -79 199 -214v-306h-10l-52 202c-31 -141 -143 -202 -234 -202c-87 0 -130 48 -130 110c0 109 128 170 362 185v28c0 114 -42 183 -153 183c-106 0 -180 -73 -180 -203h-10c0 139 79 217 208 217zM191 21
c96 0 194 92 194 250v6c-192 -15 -299 -67 -299 -166c0 -56 36 -90 105 -90z" />
    <glyph glyph-name="abreve" unicode="&#x103;" 
d="M254 586c-77 0 -142 50 -145 153h3c14 -82 77 -112 142 -112c63 0 127 30 141 112h3c-3 -103 -68 -153 -144 -153zM250 510c134 0 199 -79 199 -214v-306h-10l-52 202c-31 -141 -143 -202 -234 -202c-87 0 -130 48 -130 110c0 109 128 170 362 185v28
c0 114 -42 183 -153 183c-106 0 -180 -73 -180 -203h-10c0 139 79 217 208 217zM191 21c96 0 194 92 194 250v6c-192 -15 -299 -67 -299 -166c0 -56 36 -90 105 -90z" />
    <glyph glyph-name="acircumflex" unicode="&#xe2;" 
d="M240 730l-121 -146h-11l154 185h2l154 -185h-57zM250 510c134 0 199 -79 199 -214v-306h-10l-52 202c-31 -141 -143 -202 -234 -202c-87 0 -130 48 -130 110c0 109 128 170 362 185v28c0 114 -42 183 -153 183c-106 0 -180 -73 -180 -203h-10c0 139 79 217 208 217z
M191 21c96 0 194 92 194 250v6c-192 -15 -299 -67 -299 -166c0 -56 36 -90 105 -90z" />
    <glyph glyph-name="adieresis" unicode="&#xe4;" 
d="M162 629c-25 0 -44 20 -44 43s19 43 44 43c26 0 45 -20 45 -43s-19 -43 -45 -43zM343 629c-25 0 -44 20 -44 43s19 43 44 43c26 0 45 -20 45 -43s-19 -43 -45 -43zM250 510c134 0 199 -79 199 -214v-306h-10l-52 202c-31 -141 -143 -202 -234 -202
c-87 0 -130 48 -130 110c0 109 128 170 362 185v28c0 114 -42 183 -153 183c-106 0 -180 -73 -180 -203h-10c0 139 79 217 208 217zM191 21c96 0 194 92 194 250v6c-192 -15 -299 -67 -299 -166c0 -56 36 -90 105 -90z" />
    <glyph glyph-name="agrave" unicode="&#xe0;" 
d="M265 582h-8l-158 171v7h74zM250 510c134 0 199 -79 199 -214v-306h-10l-52 202c-31 -141 -143 -202 -234 -202c-87 0 -130 48 -130 110c0 109 128 170 362 185v28c0 114 -42 183 -153 183c-106 0 -180 -73 -180 -203h-10c0 139 79 217 208 217zM191 21
c96 0 194 92 194 250v6c-192 -15 -299 -67 -299 -166c0 -56 36 -90 105 -90z" />
    <glyph glyph-name="amacron" unicode="&#x101;" 
d="M387 650v-10h-268v10h268zM250 510c134 0 199 -79 199 -214v-306h-10l-52 202c-31 -141 -143 -202 -234 -202c-87 0 -130 48 -130 110c0 109 128 170 362 185v28c0 114 -42 183 -153 183c-106 0 -180 -73 -180 -203h-10c0 139 79 217 208 217zM191 21
c96 0 194 92 194 250v6c-192 -15 -299 -67 -299 -166c0 -56 36 -90 105 -90z" />
    <glyph glyph-name="aogonek" unicode="&#x105;" 
d="M551 -128l6 -6c-34 -43 -69 -67 -128 -67c-61 0 -98 33 -98 81c0 52 45 89 107 115l-51 197c-31 -141 -143 -202 -234 -202c-87 0 -130 48 -130 110c0 109 128 170 362 185v28c0 114 -42 183 -153 183c-106 0 -180 -73 -180 -203h-10c0 139 79 217 208 217
c134 0 199 -79 199 -214v-306c-48 -25 -77 -53 -77 -98s31 -75 78 -75c36 0 66 12 101 55zM191 21c96 0 194 92 194 250v6c-192 -15 -299 -67 -299 -166c0 -56 36 -90 105 -90z" />
    <glyph glyph-name="aring" unicode="&#xe5;" 
d="M252 580c-57 0 -93 41 -93 92s36 92 93 92c58 0 94 -41 94 -92s-36 -92 -94 -92zM252 754c-51 0 -83 -37 -83 -82s32 -82 83 -82c52 0 84 37 84 82s-32 82 -84 82zM250 510c134 0 199 -79 199 -214v-306h-10l-52 202c-31 -141 -143 -202 -234 -202
c-87 0 -130 48 -130 110c0 109 128 170 362 185v28c0 114 -42 183 -153 183c-106 0 -180 -73 -180 -203h-10c0 139 79 217 208 217zM191 21c96 0 194 92 194 250v6c-192 -15 -299 -67 -299 -166c0 -56 36 -90 105 -90z" />
    <glyph glyph-name="atilde" unicode="&#xe3;" 
d="M148 706c-16 -11 -34 -37 -51 -83l-10 2c26 82 64 105 91 105c43 0 106 -62 191 -103c16 20 34 46 51 91l10 -3c-27 -83 -62 -118 -95 -118c-43 0 -119 64 -187 109zM250 510c134 0 199 -79 199 -214v-306h-10l-52 202c-31 -141 -143 -202 -234 -202
c-87 0 -130 48 -130 110c0 109 128 170 362 185v28c0 114 -42 183 -153 183c-106 0 -180 -73 -180 -203h-10c0 139 79 217 208 217zM191 21c96 0 194 92 194 250v6c-192 -15 -299 -67 -299 -166c0 -56 36 -90 105 -90z" />
    <glyph glyph-name="ae" unicode="&#xe6;" horiz-adv-x="889" 
d="M848 177h9c-10 -118 -98 -187 -211 -187c-153 0 -240 83 -257 213c-27 -149 -142 -213 -236 -213c-87 0 -130 48 -130 110c0 109 128 170 362 185v28c0 114 -43 183 -154 183c-107 0 -181 -73 -181 -203h-10c0 139 80 217 209 217c90 0 149 -36 179 -100
c40 63 110 100 204 100c131 0 222 -95 218 -262h-397c1 -157 67 -242 210 -242c95 0 174 63 185 171zM632 500c-119 0 -177 -93 -179 -242h335c-2 124 -51 242 -156 242zM191 21c96 0 194 92 194 250v6c-192 -15 -299 -67 -299 -166c0 -56 36 -90 105 -90z" />
    <glyph glyph-name="b" unicode="b" horiz-adv-x="599" 
d="M340 510c127 0 227 -100 227 -258c0 -161 -101 -262 -229 -262c-107 0 -189 65 -217 173l-54 -166h-10v703h64v-360c29 106 111 170 219 170zM314 10c101 0 187 97 187 242c0 143 -85 238 -186 238c-103 0 -184 -83 -194 -212v-53c10 -130 91 -215 193 -215z" />
    <glyph glyph-name="c" unicode="c" horiz-adv-x="557" 
d="M525 200c0 -126 -96 -210 -228 -210c-151 0 -265 101 -265 262c0 159 112 258 259 258c123 0 216 -70 227 -207h-9c-12 128 -96 191 -198 191c-129 0 -212 -93 -212 -243c0 -144 88 -241 219 -241c114 0 198 76 198 190h9z" />
    <glyph glyph-name="cacute" unicode="&#x107;" horiz-adv-x="557" 
d="M260 582l92 178h74v-7l-158 -171h-8zM525 200c0 -126 -96 -210 -228 -210c-151 0 -265 101 -265 262c0 159 112 258 259 258c123 0 216 -70 227 -207h-9c-12 128 -96 191 -198 191c-129 0 -212 -93 -212 -243c0 -144 88 -241 219 -241c114 0 198 76 198 190h9z" />
    <glyph glyph-name="ccaron" unicode="&#x10d;" horiz-adv-x="557" 
d="M283 575h-2l-154 185h57l121 -146l121 146h11zM516 200h9c0 -126 -96 -210 -228 -210c-151 0 -265 101 -265 262c0 159 112 258 259 258c123 0 216 -70 227 -207h-9c-12 128 -96 191 -198 191c-129 0 -212 -93 -212 -243c0 -144 88 -241 219 -241c114 0 198 76 198 190z
" />
    <glyph glyph-name="ccedilla" unicode="&#xe7;" horiz-adv-x="557" 
d="M297 -10h-17l-30 -49c65 -9 134 -37 134 -93c0 -45 -40 -75 -95 -75c-58 0 -110 34 -130 84l8 5c19 -44 64 -72 107 -72c40 0 67 23 67 58c0 42 -43 77 -107 86l36 57c-137 11 -238 110 -238 261c0 159 112 258 259 258c123 0 216 -70 227 -207h-9
c-12 128 -96 191 -198 191c-129 0 -212 -93 -212 -243c0 -144 88 -241 219 -241c114 0 198 76 198 190h9c0 -126 -96 -210 -228 -210z" />
    <glyph glyph-name="cdotaccent" unicode="&#x10b;" horiz-adv-x="557" 
d="M291 715c26 0 45 -20 45 -43s-19 -43 -45 -43c-25 0 -44 20 -44 43s19 43 44 43zM525 200c0 -126 -96 -210 -228 -210c-151 0 -265 101 -265 262c0 159 112 258 259 258c123 0 216 -70 227 -207h-9c-12 128 -96 191 -198 191c-129 0 -212 -93 -212 -243
c0 -144 88 -241 219 -241c114 0 198 76 198 190h9z" />
    <glyph glyph-name="d" unicode="d" horiz-adv-x="600" 
d="M479 700h63v-703h-10l-53 166c-28 -108 -110 -173 -217 -173c-128 0 -230 101 -230 262c0 158 101 258 228 258c108 0 190 -64 219 -170v360zM286 10c102 0 183 85 193 215v53c-10 129 -92 212 -195 212c-101 0 -185 -95 -185 -238c0 -145 85 -242 187 -242z" />
    <glyph glyph-name="eth" unicode="&#xf0;" horiz-adv-x="571" 
d="M341 649c123 -73 198 -210 198 -384c0 -167 -119 -275 -253 -275c-135 0 -254 105 -254 262c0 155 119 258 254 258c60 0 117 -20 162 -55c-25 80 -68 143 -130 186l-180 -65l-3 9l173 63c-53 33 -119 52 -196 53v8c82 0 156 -19 218 -53l134 48l4 -9zM286 0
c108 0 187 94 187 252c0 156 -79 248 -187 248c-109 0 -187 -92 -187 -248c0 -158 78 -252 187 -252z" />
    <glyph glyph-name="dcaron" unicode="&#x10f;" horiz-adv-x="600" 
d="M479 340v360h63v-703h-10l-53 166c-28 -108 -110 -173 -217 -173c-128 0 -230 101 -230 262c0 158 101 258 228 258c108 0 190 -64 219 -170zM629 700h61v-5l-56 -249h-5v254zM286 10c102 0 183 85 193 215v53c-10 129 -92 212 -195 212c-101 0 -185 -95 -185 -238
c0 -145 85 -242 187 -242z" />
    <glyph glyph-name="dcroat" unicode="&#x111;" horiz-adv-x="600" 
d="M615 608v-10h-73v-601h-10l-53 166c-28 -108 -110 -173 -217 -173c-128 0 -230 101 -230 262c0 158 101 258 228 258c108 0 190 -64 219 -170v258h-199v10h199v92h63v-92h73zM286 10c102 0 183 85 193 215v53c-10 129 -92 212 -195 212c-101 0 -185 -95 -185 -238
c0 -145 85 -242 187 -242z" />
    <glyph glyph-name="e" unicode="e" horiz-adv-x="535" 
d="M494 177h9c-10 -118 -98 -187 -211 -187c-171 0 -260 104 -260 261c0 155 89 259 246 259c131 0 222 -95 218 -262h-397c1 -157 67 -242 210 -242c95 0 174 63 185 171zM278 500c-119 0 -177 -93 -179 -242h335c-2 124 -51 242 -156 242z" />
    <glyph glyph-name="eacute" unicode="&#xe9;" horiz-adv-x="535" 
d="M414 753l-158 -171h-8l92 178h74v-7zM494 177h9c-10 -118 -98 -187 -211 -187c-171 0 -260 104 -260 261c0 155 89 259 246 259c131 0 222 -95 218 -262h-397c1 -157 67 -242 210 -242c95 0 174 63 185 171zM278 500c-119 0 -177 -93 -179 -242h335
c-2 124 -51 242 -156 242z" />
    <glyph glyph-name="ecaron" unicode="&#x11b;" horiz-adv-x="535" 
d="M271 575h-2l-154 185h57l121 -146l121 146h11zM494 177h9c-10 -118 -98 -187 -211 -187c-171 0 -260 104 -260 261c0 155 89 259 246 259c131 0 222 -95 218 -262h-397c1 -157 67 -242 210 -242c95 0 174 63 185 171zM278 500c-119 0 -177 -93 -179 -242h335
c-2 124 -51 242 -156 242z" />
    <glyph glyph-name="ecircumflex" unicode="&#xea;" horiz-adv-x="535" 
d="M267 730l-121 -146h-11l154 185h2l154 -185h-57zM494 177h9c-10 -118 -98 -187 -211 -187c-171 0 -260 104 -260 261c0 155 89 259 246 259c131 0 222 -95 218 -262h-397c1 -157 67 -242 210 -242c95 0 174 63 185 171zM278 500c-119 0 -177 -93 -179 -242h335
c-2 124 -51 242 -156 242z" />
    <glyph glyph-name="edieresis" unicode="&#xeb;" horiz-adv-x="535" 
d="M189 629c-25 0 -44 20 -44 43s19 43 44 43c26 0 45 -20 45 -43s-19 -43 -45 -43zM370 629c-25 0 -44 20 -44 43s19 43 44 43c26 0 45 -20 45 -43s-19 -43 -45 -43zM494 177h9c-10 -118 -98 -187 -211 -187c-171 0 -260 104 -260 261c0 155 89 259 246 259
c131 0 222 -95 218 -262h-397c1 -157 67 -242 210 -242c95 0 174 63 185 171zM278 500c-119 0 -177 -93 -179 -242h335c-2 124 -51 242 -156 242z" />
    <glyph glyph-name="edotaccent" unicode="&#x117;" horiz-adv-x="535" 
d="M279 629c-25 0 -44 20 -44 43s19 43 44 43c26 0 45 -20 45 -43s-19 -43 -45 -43zM494 177h9c-10 -118 -98 -187 -211 -187c-171 0 -260 104 -260 261c0 155 89 259 246 259c131 0 222 -95 218 -262h-397c1 -157 67 -242 210 -242c95 0 174 63 185 171zM278 500
c-119 0 -177 -93 -179 -242h335c-2 124 -51 242 -156 242z" />
    <glyph glyph-name="egrave" unicode="&#xe8;" horiz-adv-x="535" 
d="M292 582h-8l-158 171v7h74zM494 177h9c-10 -118 -98 -187 -211 -187c-171 0 -260 104 -260 261c0 155 89 259 246 259c131 0 222 -95 218 -262h-397c1 -157 67 -242 210 -242c95 0 174 63 185 171zM278 500c-119 0 -177 -93 -179 -242h335c-2 124 -51 242 -156 242z" />
    <glyph glyph-name="emacron" unicode="&#x113;" horiz-adv-x="535" 
d="M414 650v-10h-268v10h268zM494 177h9c-10 -118 -98 -187 -211 -187c-171 0 -260 104 -260 261c0 155 89 259 246 259c131 0 222 -95 218 -262h-397c1 -157 67 -242 210 -242c95 0 174 63 185 171zM278 500c-119 0 -177 -93 -179 -242h335c-2 124 -51 242 -156 242z" />
    <glyph glyph-name="eogonek" unicode="&#x119;" horiz-adv-x="535" 
d="M509 -128l6 -6c-34 -43 -69 -67 -128 -67c-61 0 -99 33 -99 81s39 85 95 127c-28 -11 -58 -17 -91 -17c-171 0 -260 104 -260 261c0 155 89 259 246 259c131 0 222 -95 218 -262h-397c1 -157 67 -242 210 -242c95 0 174 63 185 171h9c-5 -63 -33 -113 -75 -145
c-61 -57 -98 -89 -98 -140c0 -45 30 -75 77 -75c36 0 66 12 102 55zM278 500c-119 0 -177 -93 -179 -242h335c-2 124 -51 242 -156 242z" />
    <glyph glyph-name="f" unicode="f" horiz-adv-x="394" 
d="M319 796c78 0 139 -39 162 -100l-9 -4c-19 54 -73 88 -137 88c-94 0 -158 -69 -158 -176v-104h216v-10h-216v-490h-63v490h-117v10h117v63c0 154 88 233 205 233z" />
    <glyph glyph-name="g" unicode="g" horiz-adv-x="522" 
d="M306 122c104 0 171 -43 171 -130c0 -104 -97 -162 -247 -162c-98 0 -176 26 -230 83l7 9c55 -60 137 -82 222 -82c138 0 217 48 217 127c0 67 -51 96 -140 96h-206v191c-40 25 -62 63 -62 110c0 90 83 146 216 146c150 0 219 46 219 108c0 65 -67 98 -167 82v10
c106 16 177 -21 177 -92c0 -58 -52 -101 -159 -114c89 -17 142 -67 142 -140c0 -92 -81 -148 -211 -148c-59 0 -108 11 -145 32v-126h196zM254 500c-96 0 -157 -52 -157 -135c0 -85 61 -139 157 -139c93 0 153 54 153 139c0 83 -60 135 -153 135z" />
    <glyph glyph-name="gbreve" unicode="&#x11f;" horiz-adv-x="522" 
d="M265 586c-77 0 -141 50 -145 153h3c14 -82 77 -112 142 -112c63 0 128 30 141 112h3c-3 -103 -67 -153 -144 -153zM306 122c104 0 171 -43 171 -130c0 -104 -97 -162 -247 -162c-98 0 -176 26 -230 83l7 9c55 -60 137 -82 222 -82c138 0 217 48 217 127
c0 67 -51 96 -140 96h-206v191c-40 25 -62 63 -62 110c0 90 83 146 216 146c130 0 212 -56 212 -146c0 -92 -81 -148 -211 -148c-59 0 -108 11 -145 32v-126h196zM254 500c-96 0 -157 -52 -157 -135c0 -85 61 -139 157 -139c93 0 153 54 153 139c0 83 -60 135 -153 135z" />
    <glyph glyph-name="uni0123" unicode="&#x123;" horiz-adv-x="522" 
d="M263 591c-45 0 -75 31 -75 85c0 50 34 96 94 96c15 0 32 -3 51 -10l-3 -10c-18 7 -34 11 -49 11c-54 0 -83 -43 -83 -88c0 -22 9 -50 33 -57c-2 5 -3 10 -3 15c0 21 16 37 39 37c24 0 39 -16 39 -40c0 -23 -17 -39 -43 -39zM306 122c104 0 171 -43 171 -130
c0 -104 -97 -162 -247 -162c-98 0 -176 26 -230 83l7 9c55 -60 137 -82 222 -82c138 0 217 48 217 127c0 67 -51 96 -140 96h-206v191c-40 25 -62 63 -62 110c0 90 83 146 216 146c130 0 212 -56 212 -146c0 -92 -81 -148 -211 -148c-59 0 -108 11 -145 32v-126h196z
M254 500c-96 0 -157 -52 -157 -135c0 -85 61 -139 157 -139c93 0 153 54 153 139c0 83 -60 135 -153 135z" />
    <glyph glyph-name="gdotaccent" unicode="&#x121;" horiz-adv-x="522" 
d="M263 629c-25 0 -43 20 -43 43s18 43 43 43c27 0 45 -20 45 -43s-18 -43 -45 -43zM306 122c104 0 171 -43 171 -130c0 -104 -97 -162 -247 -162c-98 0 -176 26 -230 83l7 9c55 -60 137 -82 222 -82c138 0 217 48 217 127c0 67 -51 96 -140 96h-206v191
c-40 25 -62 63 -62 110c0 90 83 146 216 146c130 0 212 -56 212 -146c0 -92 -81 -148 -211 -148c-59 0 -108 11 -145 32v-126h196zM254 500c-96 0 -157 -52 -157 -135c0 -85 61 -139 157 -139c93 0 153 54 153 139c0 83 -60 135 -153 135z" />
    <glyph glyph-name="h" unicode="h" horiz-adv-x="551" 
d="M319 510c107 0 181 -70 181 -188v-322h-64v336c0 98 -58 152 -139 152c-104 0 -177 -100 -177 -238v-250h-63v700h63v-365c24 106 95 175 199 175z" />
    <glyph glyph-name="hbar" unicode="&#x127;" horiz-adv-x="551" 
d="M319 510c107 0 181 -70 181 -188v-322h-64v336c0 98 -58 152 -139 152c-104 0 -177 -100 -177 -238v-250h-63v598h-73v10h73v92h63v-92h199v-10h-199v-263c24 106 95 175 199 175z" />
    <glyph glyph-name="i" unicode="i" horiz-adv-x="177" 
d="M87 715c26 0 45 -20 45 -43s-19 -43 -45 -43c-25 0 -44 20 -44 43s19 43 44 43zM57 0v500h63v-500h-63z" />
    <glyph glyph-name="dotlessi" unicode="&#x131;" horiz-adv-x="177" 
d="M57 0v500h63v-500h-63z" />
    <glyph glyph-name="iacute" unicode="&#xed;" horiz-adv-x="177" 
d="M56 582l92 178h74v-7l-158 -171h-8zM57 0v500h63v-500h-63z" />
    <glyph glyph-name="icircumflex" unicode="&#xee;" horiz-adv-x="177" 
d="M99 769l154 -185h-57l-121 146l-121 -146h-11l154 185h2zM57 0v500h63v-500h-63z" />
    <glyph glyph-name="idieresis" unicode="&#xef;" horiz-adv-x="177" 
d="M-3 715c26 0 45 -20 45 -43s-19 -43 -45 -43c-25 0 -44 20 -44 43s19 43 44 43zM178 715c26 0 45 -20 45 -43s-19 -43 -45 -43c-25 0 -44 20 -44 43s19 43 44 43zM57 0v500h63v-500h-63z" />
    <glyph glyph-name="i.loclTRK" horiz-adv-x="177" 
d="M87 715c26 0 45 -20 45 -43s-19 -43 -45 -43c-25 0 -44 20 -44 43s19 43 44 43zM57 0v500h63v-500h-63z" />
    <glyph glyph-name="igrave" unicode="&#xec;" horiz-adv-x="177" 
d="M134 582h-9l-158 171v7h74zM57 0v500h63v-500h-63z" />
    <glyph glyph-name="imacron" unicode="&#x12b;" horiz-adv-x="177" 
d="M-46 650h268v-10h-268v10zM57 0v500h63v-500h-63z" />
    <glyph glyph-name="iogonek" unicode="&#x12f;" horiz-adv-x="177" 
d="M87 629c-25 0 -43 20 -43 43s18 43 43 43c27 0 45 -20 45 -43s-18 -43 -45 -43zM183 -128l6 -6c-34 -43 -69 -67 -128 -67c-61 0 -98 33 -98 81c0 56 52 94 120 120h-26v500h63v-500h-21c-60 -27 -95 -57 -95 -108c0 -45 31 -75 78 -75c36 0 66 12 101 55z" />
    <glyph glyph-name="j" unicode="j" horiz-adv-x="177" 
d="M87 715c26 0 45 -20 45 -43s-19 -43 -45 -43c-25 0 -44 20 -44 43s19 43 44 43zM57 -200v700h63v-246c0 -163 -34 -367 -55 -454h-8z" />
    <glyph glyph-name="uni0237" unicode="&#x237;" horiz-adv-x="177" 
d="M57 -200v700h63v-246c0 -163 -34 -367 -55 -454h-8z" />
    <glyph glyph-name="k" unicode="k" horiz-adv-x="516" 
d="M429 0l-239 261h-70v-261h-63v700h63v-429h60l273 229h16l-233 -196l269 -304h-76z" />
    <glyph glyph-name="uni0137" unicode="&#x137;" horiz-adv-x="516" 
d="M236 304l269 -304h-76l-239 261h-70v-261h-63v700h63v-429h60l273 229h16zM229 -69c45 0 76 -32 76 -86c0 -50 -35 -95 -95 -95c-15 0 -32 2 -51 10l3 10c18 -8 35 -11 50 -11c53 0 83 42 83 87c0 23 -10 50 -34 57c2 -4 3 -9 3 -14c0 -22 -16 -37 -38 -37
c-24 0 -40 16 -40 39s17 40 43 40z" />
    <glyph glyph-name="l" unicode="l" horiz-adv-x="177" 
d="M57 0v700h63v-700h-63z" />
    <glyph glyph-name="lacute" unicode="&#x13a;" horiz-adv-x="177" 
d="M77 750l92 177h74v-7l-158 -170h-8zM57 0v700h63v-700h-63z" />
    <glyph glyph-name="lcaron" unicode="&#x13e;" horiz-adv-x="177" 
d="M57 0v700h63v-700h-63zM268 695l-56 -249h-5v254h61v-5z" />
    <glyph glyph-name="uni013C" unicode="&#x13c;" horiz-adv-x="177" 
d="M120 700v-700h-63v700h63zM89 -69c45 0 76 -32 76 -86c0 -50 -35 -95 -95 -95c-15 0 -32 2 -51 10l3 10c18 -8 35 -11 50 -11c53 0 83 42 83 87c0 23 -10 50 -34 57c2 -4 3 -9 3 -14c0 -22 -16 -37 -38 -37c-24 0 -40 16 -40 39s17 40 43 40z" />
    <glyph glyph-name="lslash" unicode="&#x142;" horiz-adv-x="217" 
d="M210 383v-11l-70 -48v-324h-63v281l-70 -48v11l70 48v408h63v-365z" />
    <glyph glyph-name="m" unicode="m" horiz-adv-x="931" 
d="M699 510c106 0 180 -70 180 -188v-322h-63v336c0 98 -58 152 -139 152c-38 0 -72 -13 -99 -36c-49 -41 -78 -113 -78 -202v-250h-64v336c0 98 -58 152 -139 152c-104 0 -177 -100 -177 -238v-250h-63v500h63v-165c24 106 95 175 199 175c103 0 176 -65 181 -176
c24 106 95 176 198 176h1z" />
    <glyph glyph-name="n" unicode="n" horiz-adv-x="551" 
d="M319 510c107 0 181 -70 181 -188v-322h-64v336c0 98 -58 152 -139 152c-104 0 -177 -100 -177 -238v-250h-63v500h63v-165c24 106 95 175 199 175z" />
    <glyph glyph-name="nacute" unicode="&#x144;" horiz-adv-x="551" 
d="M400 753l-158 -171h-8l92 178h74v-7zM319 510c107 0 181 -70 181 -188v-322h-64v336c0 98 -58 152 -139 152c-104 0 -177 -100 -177 -238v-250h-63v500h63v-165c24 106 95 175 199 175z" />
    <glyph glyph-name="ncaron" unicode="&#x148;" horiz-adv-x="551" 
d="M257 575h-2l-154 185h57l121 -146l121 146h11zM319 510c107 0 181 -70 181 -188v-322h-64v336c0 98 -58 152 -139 152c-104 0 -177 -100 -177 -238v-250h-63v500h63v-165c24 106 95 175 199 175z" />
    <glyph glyph-name="uni0146" unicode="&#x146;" horiz-adv-x="551" 
d="M319 510c107 0 181 -70 181 -188v-322h-64v336c0 98 -58 152 -139 152c-104 0 -177 -100 -177 -238v-250h-63v500h63v-165c24 106 95 175 199 175zM267 -69c45 0 76 -32 76 -86c0 -50 -35 -95 -95 -95c-15 0 -32 2 -51 10l3 10c18 -8 35 -11 50 -11c53 0 83 42 83 87
c0 23 -10 50 -34 57c2 -4 3 -9 3 -14c0 -22 -16 -37 -38 -37c-24 0 -40 16 -40 39s17 40 43 40z" />
    <glyph glyph-name="eng" unicode="&#x14b;" horiz-adv-x="551" 
d="M319 510c107 0 181 -70 181 -188v-349c0 -88 -70 -143 -190 -143c-46 0 -91 13 -120 33l6 9c26 -19 68 -31 106 -31c85 0 134 44 134 119v376c0 98 -58 152 -139 152c-104 0 -177 -100 -177 -238v-250h-63v500h63v-165c24 106 95 175 199 175z" />
    <glyph glyph-name="ntilde" unicode="&#xf1;" horiz-adv-x="551" 
d="M161 706c-16 -11 -34 -37 -51 -83l-10 2c26 82 64 105 91 105c43 0 106 -62 191 -103c16 20 34 46 51 91l10 -3c-27 -83 -62 -118 -95 -118c-43 0 -119 64 -187 109zM319 510c107 0 181 -70 181 -188v-322h-64v336c0 98 -58 152 -139 152c-104 0 -177 -100 -177 -238
v-250h-63v500h63v-165c24 106 95 175 199 175z" />
    <glyph glyph-name="o" unicode="o" horiz-adv-x="571" 
d="M286 510c134 0 253 -103 253 -258c0 -157 -119 -262 -253 -262c-135 0 -254 105 -254 262c0 155 119 258 254 258zM286 0c108 0 187 94 187 252c0 156 -79 248 -187 248c-109 0 -187 -92 -187 -248c0 -158 78 -252 187 -252z" />
    <glyph glyph-name="oacute" unicode="&#xf3;" horiz-adv-x="571" 
d="M254 582l92 178h74v-7l-158 -171h-8zM286 510c134 0 253 -103 253 -258c0 -157 -119 -262 -253 -262c-135 0 -254 105 -254 262c0 155 119 258 254 258zM286 0c108 0 187 94 187 252c0 156 -79 248 -187 248c-109 0 -187 -92 -187 -248c0 -158 78 -252 187 -252z" />
    <glyph glyph-name="obreve" unicode="&#x14f;" horiz-adv-x="571" 
d="M431 739c-3 -103 -68 -153 -144 -153c-77 0 -142 50 -145 153h3c14 -82 77 -112 142 -112c63 0 127 30 141 112h3zM286 510c134 0 253 -103 253 -258c0 -157 -119 -262 -253 -262c-135 0 -254 105 -254 262c0 155 119 258 254 258zM286 0c108 0 187 94 187 252
c0 156 -79 248 -187 248c-109 0 -187 -92 -187 -248c0 -158 78 -252 187 -252z" />
    <glyph glyph-name="uni01D2" unicode="&#x1d2;" horiz-adv-x="571" 
d="M277 575h-2l-154 185h57l121 -146l121 146h11zM286 510c134 0 253 -103 253 -258c0 -157 -119 -262 -253 -262c-135 0 -254 105 -254 262c0 155 119 258 254 258zM286 0c108 0 187 94 187 252c0 156 -79 248 -187 248c-109 0 -187 -92 -187 -248c0 -158 78 -252 187 -252
z" />
    <glyph glyph-name="ocircumflex" unicode="&#xf4;" horiz-adv-x="571" 
d="M273 730l-121 -146h-11l154 185h2l154 -185h-57zM286 510c134 0 253 -103 253 -258c0 -157 -119 -262 -253 -262c-135 0 -254 105 -254 262c0 155 119 258 254 258zM286 0c108 0 187 94 187 252c0 156 -79 248 -187 248c-109 0 -187 -92 -187 -248
c0 -158 78 -252 187 -252z" />
    <glyph glyph-name="odieresis" unicode="&#xf6;" horiz-adv-x="571" 
d="M195 715c26 0 45 -20 45 -43s-19 -43 -45 -43c-25 0 -44 20 -44 43s19 43 44 43zM376 715c26 0 45 -20 45 -43s-19 -43 -45 -43c-25 0 -44 20 -44 43s19 43 44 43zM286 510c134 0 253 -103 253 -258c0 -157 -119 -262 -253 -262c-135 0 -254 105 -254 262
c0 155 119 258 254 258zM286 0c108 0 187 94 187 252c0 156 -79 248 -187 248c-109 0 -187 -92 -187 -248c0 -158 78 -252 187 -252z" />
    <glyph glyph-name="ograve" unicode="&#xf2;" horiz-adv-x="571" 
d="M298 582h-8l-158 171v7h74zM286 510c134 0 253 -103 253 -258c0 -157 -119 -262 -253 -262c-135 0 -254 105 -254 262c0 155 119 258 254 258zM286 0c108 0 187 94 187 252c0 156 -79 248 -187 248c-109 0 -187 -92 -187 -248c0 -158 78 -252 187 -252z" />
    <glyph glyph-name="ohungarumlaut" unicode="&#x151;" horiz-adv-x="571" 
d="M183 582l92 178h74v-7l-158 -171h-8zM363 582l92 178h74v-7l-158 -171h-8zM286 510c134 0 253 -103 253 -258c0 -157 -119 -262 -253 -262c-135 0 -254 105 -254 262c0 155 119 258 254 258zM286 0c108 0 187 94 187 252c0 156 -79 248 -187 248
c-109 0 -187 -92 -187 -248c0 -158 78 -252 187 -252z" />
    <glyph glyph-name="omacron" unicode="&#x14d;" horiz-adv-x="571" 
d="M152 650h268v-10h-268v10zM286 510c134 0 253 -103 253 -258c0 -157 -119 -262 -253 -262c-135 0 -254 105 -254 262c0 155 119 258 254 258zM286 0c108 0 187 94 187 252c0 156 -79 248 -187 248c-109 0 -187 -92 -187 -248c0 -158 78 -252 187 -252z" />
    <glyph glyph-name="oslash" unicode="&#xf8;" horiz-adv-x="571" 
d="M561 515l-87 -87c40 -45 65 -105 65 -176c0 -157 -119 -262 -253 -262c-68 0 -131 26 -178 72l-91 -91l-7 7l91 91c-42 46 -69 109 -69 183c0 155 119 258 254 258c69 0 134 -27 181 -75l87 87zM99 252c0 -61 12 -113 32 -153l307 307c-33 61 -87 94 -152 94
c-109 0 -187 -92 -187 -248zM473 252c0 58 -11 106 -30 145l-307 -307c33 -58 86 -90 150 -90c108 0 187 94 187 252z" />
    <glyph glyph-name="otilde" unicode="&#xf5;" horiz-adv-x="571" 
d="M181 706c-16 -11 -34 -37 -51 -83l-10 2c26 82 64 105 91 105c43 0 106 -62 191 -103c16 20 34 46 51 91l10 -3c-27 -83 -62 -118 -95 -118c-43 0 -119 64 -187 109zM286 510c134 0 253 -103 253 -258c0 -157 -119 -262 -253 -262c-135 0 -254 105 -254 262
c0 155 119 258 254 258zM286 0c108 0 187 94 187 252c0 156 -79 248 -187 248c-109 0 -187 -92 -187 -248c0 -158 78 -252 187 -252z" />
    <glyph glyph-name="oe" unicode="&#x153;" horiz-adv-x="976" 
d="M935 178h9c-10 -118 -98 -187 -211 -187c-114 0 -191 46 -230 123c-45 -78 -128 -124 -217 -124c-135 0 -254 105 -254 262c0 155 119 258 254 258c89 0 171 -45 216 -121c39 76 113 122 217 122c131 0 222 -96 218 -262h-397c1 -157 67 -242 210 -242
c95 0 174 62 185 171zM719 501c-119 0 -177 -94 -179 -242h335c-2 124 -51 242 -156 242zM286 0c108 0 187 94 187 252c0 156 -79 248 -187 248c-109 0 -187 -92 -187 -248c0 -158 78 -252 187 -252z" />
    <glyph glyph-name="p" unicode="p" horiz-adv-x="600" 
d="M340 510c127 0 228 -100 228 -258c0 -161 -102 -262 -230 -262c-108 0 -190 66 -218 176v-326h-63v660h63v-164c28 109 111 174 220 174zM314 10c102 0 187 97 187 242c0 143 -85 238 -186 238c-109 0 -195 -95 -195 -238c0 -145 85 -242 194 -242z" />
    <glyph glyph-name="thorn" unicode="&#xfe;" horiz-adv-x="600" 
d="M340 510c127 0 228 -100 228 -258c0 -161 -102 -262 -230 -262c-108 0 -190 66 -218 176v-326h-63v860h63v-364c28 109 111 174 220 174zM314 10c102 0 187 97 187 242c0 143 -85 238 -186 238c-109 0 -195 -95 -195 -238c0 -145 85 -242 194 -242z" />
    <glyph glyph-name="q" unicode="q" horiz-adv-x="599" 
d="M533 503h10v-663h-64v322c-28 -108 -110 -172 -217 -172c-128 0 -230 101 -230 262c0 158 101 258 228 258c110 0 193 -66 220 -176zM286 10c102 0 183 85 193 215v53c-10 129 -92 212 -195 212c-101 0 -185 -95 -185 -238c0 -145 85 -242 187 -242z" />
    <glyph glyph-name="r" unicode="r" horiz-adv-x="314" 
d="M120 336c23 101 87 174 204 174v-10c-145 0 -204 -119 -204 -259v-241h-63v500h63v-164z" />
    <glyph glyph-name="racute" unicode="&#x155;" horiz-adv-x="314" 
d="M226 753l-158 -171h-8l92 178h74v-7zM120 336c23 101 87 174 204 174v-10c-145 0 -204 -119 -204 -259v-241h-63v500h63v-164z" />
    <glyph glyph-name="rcaron" unicode="&#x159;" horiz-adv-x="314" 
d="M83 575h-2l-154 185h57l121 -146l121 146h11zM120 336c23 101 87 174 204 174v-10c-145 0 -204 -119 -204 -259v-241h-63v500h63v-164z" />
    <glyph glyph-name="uni0157" unicode="&#x157;" horiz-adv-x="314" 
d="M120 336c23 101 87 174 204 174v-10c-145 0 -204 -119 -204 -259v-241h-63v500h63v-164zM94 -69c45 0 76 -32 76 -86c0 -50 -35 -95 -95 -95c-15 0 -32 2 -51 10l3 10c18 -8 35 -11 50 -11c53 0 83 42 83 87c0 23 -10 50 -34 57c2 -4 3 -9 3 -14c0 -22 -16 -37 -38 -37
c-24 0 -40 16 -40 39s17 40 43 40z" />
    <glyph glyph-name="s" unicode="s" horiz-adv-x="420" 
d="M61 397c0 -162 336 -65 336 -261c0 -86 -70 -146 -177 -146c-115 0 -197 72 -197 187h10c0 -108 76 -177 189 -177c86 0 143 41 143 106c0 166 -335 62 -335 263c0 84 72 141 174 141c104 0 174 -64 174 -169h-9c0 99 -67 159 -165 159c-83 0 -143 -41 -143 -103z" />
    <glyph glyph-name="sacute" unicode="&#x15b;" horiz-adv-x="420" 
d="M183 582l92 178h74v-7l-158 -171h-8zM61 397c0 -162 336 -65 336 -261c0 -86 -70 -146 -177 -146c-115 0 -197 72 -197 187h10c0 -108 76 -177 189 -177c86 0 143 41 143 106c0 166 -335 62 -335 263c0 84 72 141 174 141c104 0 174 -64 174 -169h-9
c0 99 -67 159 -165 159c-83 0 -143 -41 -143 -103z" />
    <glyph glyph-name="scaron" unicode="&#x161;" horiz-adv-x="420" 
d="M206 575h-2l-154 185h57l121 -146l121 146h11zM61 397c0 -162 336 -65 336 -261c0 -86 -70 -146 -177 -146c-115 0 -197 72 -197 187h10c0 -108 76 -177 189 -177c86 0 143 41 143 106c0 166 -335 62 -335 263c0 84 72 141 174 141c104 0 174 -64 174 -169h-9
c0 99 -67 159 -165 159c-83 0 -143 -41 -143 -103z" />
    <glyph glyph-name="scedilla" unicode="&#x15f;" horiz-adv-x="420" 
d="M220 -10h-10l-30 -49c65 -9 134 -37 134 -93c0 -45 -40 -75 -95 -75c-58 0 -110 34 -130 84l8 5c19 -44 64 -72 107 -72c40 0 67 23 67 58c0 42 -43 77 -107 86l36 57c-104 8 -177 78 -177 186h10c0 -108 76 -177 189 -177c86 0 143 41 143 106c0 166 -335 62 -335 263
c0 84 72 141 174 141c104 0 174 -64 174 -169h-9c0 99 -67 159 -165 159c-83 0 -143 -41 -143 -103c0 -162 336 -65 336 -261c0 -86 -70 -146 -177 -146z" />
    <glyph glyph-name="uni0219" unicode="&#x219;" horiz-adv-x="420" 
d="M61 397c0 -162 336 -65 336 -261c0 -86 -70 -146 -177 -146c-115 0 -197 72 -197 187h10c0 -108 76 -177 189 -177c86 0 143 41 143 106c0 166 -335 62 -335 263c0 84 72 141 174 141c104 0 174 -64 174 -169h-9c0 99 -67 159 -165 159c-83 0 -143 -41 -143 -103z
M216 -69c45 0 76 -32 76 -86c0 -50 -35 -95 -95 -95c-15 0 -32 2 -51 10l3 10c18 -8 35 -11 50 -11c53 0 83 42 83 87c0 23 -10 50 -34 57c2 -4 3 -9 3 -14c0 -22 -16 -37 -38 -37c-24 0 -40 16 -40 39s17 40 43 40z" />
    <glyph glyph-name="germandbls" unicode="&#xdf;" horiz-adv-x="606" 
d="M325 430c0 -131 263 -64 263 -265c0 -105 -75 -175 -189 -175c-74 0 -123 27 -149 63l8 7c26 -37 76 -60 141 -60c96 0 164 54 164 134c0 165 -276 101 -276 268c0 92 82 134 210 144l14 1c-25 91 -85 151 -197 151c-113 0 -194 -79 -194 -223v-475h-63v465
c0 145 104 245 247 245c124 0 195 -61 220 -170l-23 -2c-97 -9 -176 -33 -176 -108z" />
    <glyph glyph-name="t" unicode="t" horiz-adv-x="410" 
d="M379 177h10c0 -127 -60 -186 -140 -186c-85 0 -148 51 -148 164v335h-101v10h101l54 130h10v-130h214v-10h-214v-352c0 -83 35 -127 103 -127c63 0 110 51 111 166z" />
    <glyph glyph-name="tbar" unicode="&#x167;" horiz-adv-x="410" 
d="M379 177h10c0 -127 -60 -186 -140 -186c-85 0 -148 51 -148 164v163h-100v10h100v162h-101v10h101l54 130h10v-130h214v-10h-214v-162h171v-10h-171v-180c0 -83 35 -127 103 -127c63 0 110 51 111 166z" />
    <glyph glyph-name="tcaron" unicode="&#x165;" horiz-adv-x="410" 
d="M332 738l-72 -174h-6v178h78v-4zM379 177h10c0 -127 -60 -186 -140 -186c-85 0 -148 51 -148 164v335h-101v10h101l54 130h10v-130h214v-10h-214v-352c0 -83 35 -127 103 -127c63 0 110 51 111 166z" />
    <glyph glyph-name="uni0163" unicode="&#x163;" horiz-adv-x="410" 
d="M249 -9c-12 0 -23 1 -34 3l-32 -53c65 -9 134 -37 134 -93c0 -45 -40 -75 -95 -75c-58 0 -110 34 -130 84l8 5c19 -44 64 -72 107 -72c40 0 67 23 67 58c0 42 -43 77 -107 86l39 62c-62 15 -105 66 -105 159v335h-101v10h101l54 130h10v-130h214v-10h-214v-352
c0 -83 35 -127 103 -127c63 0 110 51 111 166h10c0 -127 -60 -186 -140 -186z" />
    <glyph glyph-name="uni021B" unicode="&#x21b;" horiz-adv-x="410" 
d="M379 177h10c0 -127 -60 -186 -140 -186c-85 0 -148 51 -148 164v335h-101v10h101l54 130h10v-130h214v-10h-214v-352c0 -83 35 -127 103 -127c63 0 110 51 111 166zM219 -69c45 0 76 -32 76 -86c0 -50 -35 -95 -95 -95c-15 0 -32 2 -51 10l3 10c18 -8 35 -11 50 -11
c53 0 83 42 83 87c0 23 -10 50 -34 57c2 -4 3 -9 3 -14c0 -22 -16 -37 -38 -37c-24 0 -40 16 -40 39s17 40 43 40z" />
    <glyph glyph-name="u" unicode="u" horiz-adv-x="551" 
d="M431 500h64v-503h-10l-53 174c-23 -109 -94 -181 -199 -181h-1c-106 0 -180 70 -180 188v322h63v-336c0 -98 58 -152 139 -152c38 0 72 13 99 36c49 41 78 113 78 202v250z" />
    <glyph glyph-name="uacute" unicode="&#xfa;" horiz-adv-x="551" 
d="M410 753l-158 -171h-8l92 178h74v-7zM431 500h64v-503h-10l-53 174c-23 -109 -94 -181 -199 -181h-1c-106 0 -180 70 -180 188v322h63v-336c0 -98 58 -152 139 -152c38 0 72 13 99 36c49 41 78 113 78 202v250z" />
    <glyph glyph-name="ucircumflex" unicode="&#xfb;" horiz-adv-x="551" 
d="M263 730l-121 -146h-11l154 185h2l154 -185h-57zM431 500h64v-503h-10l-53 174c-23 -109 -94 -181 -199 -181h-1c-106 0 -180 70 -180 188v322h63v-336c0 -98 58 -152 139 -152c38 0 72 13 99 36c49 41 78 113 78 202v250z" />
    <glyph glyph-name="udieresis" unicode="&#xfc;" horiz-adv-x="551" 
d="M185 629c-25 0 -44 20 -44 43s19 43 44 43c26 0 45 -20 45 -43s-19 -43 -45 -43zM366 629c-25 0 -44 20 -44 43s19 43 44 43c26 0 45 -20 45 -43s-19 -43 -45 -43zM431 500h64v-503h-10l-53 174c-23 -109 -94 -181 -199 -181h-1c-106 0 -180 70 -180 188v322h63v-336
c0 -98 58 -152 139 -152c38 0 72 13 99 36c49 41 78 113 78 202v250z" />
    <glyph glyph-name="ugrave" unicode="&#xf9;" horiz-adv-x="551" 
d="M288 582h-8l-158 171v7h74zM431 500h64v-503h-10l-53 174c-23 -109 -94 -181 -199 -181h-1c-106 0 -180 70 -180 188v322h63v-336c0 -98 58 -152 139 -152c38 0 72 13 99 36c49 41 78 113 78 202v250z" />
    <glyph glyph-name="uhungarumlaut" unicode="&#x171;" horiz-adv-x="551" 
d="M339 753l-158 -171h-8l92 178h74v-7zM445 760h74v-7l-158 -171h-8zM431 250v250h64v-503h-10l-53 174c-23 -109 -94 -181 -199 -181h-1c-106 0 -180 70 -180 188v322h63v-336c0 -98 58 -152 139 -152c38 0 72 13 99 36c49 41 78 113 78 202z" />
    <glyph glyph-name="umacron" unicode="&#x16b;" horiz-adv-x="551" 
d="M410 650v-10h-268v10h268zM431 500h64v-503h-10l-53 174c-23 -109 -94 -181 -199 -181h-1c-106 0 -180 70 -180 188v322h63v-336c0 -98 58 -152 139 -152c38 0 72 13 99 36c49 41 78 113 78 202v250z" />
    <glyph glyph-name="uogonek" unicode="&#x173;" horiz-adv-x="551" 
d="M597 -121l6 -6c-34 -43 -69 -67 -128 -67c-61 0 -98 33 -98 81c0 52 45 89 107 114l-52 170c-23 -109 -94 -181 -199 -181h-1c-106 0 -180 70 -180 188v322h63v-336c0 -98 58 -152 139 -152c38 0 72 13 99 36c49 41 78 113 78 202v250h64v-503c-48 -25 -77 -54 -77 -98
c0 -45 31 -75 78 -75c36 0 66 12 101 55z" />
    <glyph glyph-name="uring" unicode="&#x16f;" horiz-adv-x="551" 
d="M275 580c-57 0 -93 41 -93 92s36 92 93 92c58 0 94 -41 94 -92s-36 -92 -94 -92zM275 754c-51 0 -83 -37 -83 -82s32 -82 83 -82c52 0 84 37 84 82s-32 82 -84 82zM431 500h64v-503h-10l-53 174c-23 -109 -94 -181 -199 -181h-1c-106 0 -180 70 -180 188v322h63v-336
c0 -98 58 -152 139 -152c38 0 72 13 99 36c49 41 78 113 78 202v250z" />
    <glyph glyph-name="v" unicode="v" horiz-adv-x="488" 
d="M467 500h12l-224 -510h-1l-247 510h67l204 -432z" />
    <glyph glyph-name="w" unicode="w" horiz-adv-x="767" 
d="M746 500h12l-201 -510h-1l-171 392l-155 -392h-1l-222 510h67l181 -422l124 318l-45 104h67l181 -421z" />
    <glyph glyph-name="wacute" unicode="&#x1e83;" horiz-adv-x="767" 
d="M532 753l-158 -171h-8l92 178h74v-7zM746 500h12l-201 -510h-1l-171 392l-155 -392h-1l-222 510h67l181 -422l124 318l-45 104h67l181 -421z" />
    <glyph glyph-name="wcircumflex" unicode="&#x175;" horiz-adv-x="767" 
d="M385 730l-121 -146h-11l154 185h2l154 -185h-57zM746 500h12l-201 -510h-1l-171 392l-155 -392h-1l-222 510h67l181 -422l124 318l-45 104h67l181 -421z" />
    <glyph glyph-name="wdieresis" unicode="&#x1e85;" horiz-adv-x="767" 
d="M307 629c-25 0 -44 20 -44 43s19 43 44 43c26 0 45 -20 45 -43s-19 -43 -45 -43zM488 629c-25 0 -44 20 -44 43s19 43 44 43c26 0 45 -20 45 -43s-19 -43 -45 -43zM746 500h12l-201 -510h-1l-171 392l-155 -392h-1l-222 510h67l181 -422l124 318l-45 104h67l181 -421z
" />
    <glyph glyph-name="wgrave" unicode="&#x1e81;" horiz-adv-x="767" 
d="M410 582h-8l-158 171v7h74zM746 500h12l-201 -510h-1l-171 392l-155 -392h-1l-222 510h67l181 -422l124 318l-45 104h67l181 -421z" />
    <glyph glyph-name="x" unicode="x" horiz-adv-x="498" 
d="M474 0h-70l-175 230l-182 -230h-12l188 239l-198 261h70l168 -222l176 222h13l-182 -230z" />
    <glyph glyph-name="y" unicode="y" horiz-adv-x="501" 
d="M492 500l-231 -540l-53 -123h-12l59 135l-248 528h67l211 -457l195 457h12z" />
    <glyph glyph-name="yacute" unicode="&#xfd;" horiz-adv-x="501" 
d="M422 753l-158 -171h-8l92 178h74v-7zM492 500l-231 -540l-53 -123h-12l59 135l-248 528h67l211 -457l195 457h12z" />
    <glyph glyph-name="ycircumflex" unicode="&#x177;" horiz-adv-x="501" 
d="M275 730l-121 -146h-11l154 185h2l154 -185h-57zM492 500l-231 -540l-53 -123h-12l59 135l-248 528h67l211 -457l195 457h12z" />
    <glyph glyph-name="ydieresis" unicode="&#xff;" horiz-adv-x="501" 
d="M197 629c-25 0 -44 20 -44 43s19 43 44 43c26 0 45 -20 45 -43s-19 -43 -45 -43zM378 629c-25 0 -44 20 -44 43s19 43 44 43c26 0 45 -20 45 -43s-19 -43 -45 -43zM492 500l-231 -540l-53 -123h-12l59 135l-248 528h67l211 -457l195 457h12z" />
    <glyph glyph-name="ygrave" unicode="&#x1ef3;" horiz-adv-x="501" 
d="M300 582h-8l-158 171v7h74zM492 500l-231 -540l-53 -123h-12l59 135l-248 528h67l211 -457l195 457h12z" />
    <glyph glyph-name="z" unicode="z" horiz-adv-x="472" 
d="M451 500v-10l-356 -480h350v-10h-419v10l357 480h-339v10h407z" />
    <glyph glyph-name="zacute" unicode="&#x17a;" horiz-adv-x="472" 
d="M397 753l-158 -171h-8l92 178h74v-7zM451 500v-10l-356 -480h350v-10h-419v10l357 480h-339v10h407z" />
    <glyph glyph-name="zcaron" unicode="&#x17e;" horiz-adv-x="472" 
d="M254 575h-2l-154 185h57l121 -146l121 146h11zM451 500v-10l-356 -480h350v-10h-419v10l357 480h-339v10h407z" />
    <glyph glyph-name="zdotaccent" unicode="&#x17c;" horiz-adv-x="472" 
d="M262 629c-25 0 -44 20 -44 43s19 43 44 43c26 0 45 -20 45 -43s-19 -43 -45 -43zM451 500v-10l-356 -480h350v-10h-419v10l357 480h-339v10h407z" />
    <glyph glyph-name="germandbls.calt" horiz-adv-x="675" 
d="M389 460c0 -118 256 -103 256 -288c0 -107 -82 -182 -215 -182c-77 0 -143 32 -180 89l9 6c31 -54 94 -85 169 -85c102 0 162 59 162 141c0 161 -239 130 -239 277c0 66 29 130 231 272h-449v-690h-66v700h530v-10c-187 -130 -208 -179 -208 -230z" />
    <glyph glyph-name="a.ss01" horiz-adv-x="600" 
d="M533 503h10v-503h-63v166c-28 -110 -110 -176 -218 -176c-128 0 -230 101 -230 262c0 158 101 258 228 258c111 0 196 -68 222 -181zM286 10c109 0 194 97 194 242c0 143 -86 238 -196 238c-101 0 -185 -95 -185 -238c0 -145 85 -242 187 -242z" />
    <glyph glyph-name="aacute.ss01" horiz-adv-x="600" 
d="M454 753l-158 -171h-8l92 178h74v-7zM533 503h10v-503h-63v166c-28 -110 -110 -176 -218 -176c-128 0 -230 101 -230 262c0 158 101 258 228 258c111 0 196 -68 222 -181zM286 10c109 0 194 97 194 242c0 143 -86 238 -196 238c-101 0 -185 -95 -185 -238
c0 -145 85 -242 187 -242z" />
    <glyph glyph-name="abreve.ss01" horiz-adv-x="600" 
d="M321 586c-77 0 -142 50 -145 153h3c14 -82 77 -112 142 -112c63 0 127 30 141 112h3c-3 -103 -68 -153 -144 -153zM533 503h10v-503h-63v166c-28 -110 -110 -176 -218 -176c-128 0 -230 101 -230 262c0 158 101 258 228 258c111 0 196 -68 222 -181zM286 10
c109 0 194 97 194 242c0 143 -86 238 -196 238c-101 0 -185 -95 -185 -238c0 -145 85 -242 187 -242z" />
    <glyph glyph-name="acircumflex.ss01" horiz-adv-x="600" 
d="M307 730l-121 -146h-11l154 185h2l154 -185h-57zM533 503h10v-503h-63v166c-28 -110 -110 -176 -218 -176c-128 0 -230 101 -230 262c0 158 101 258 228 258c111 0 196 -68 222 -181zM286 10c109 0 194 97 194 242c0 143 -86 238 -196 238c-101 0 -185 -95 -185 -238
c0 -145 85 -242 187 -242z" />
    <glyph glyph-name="adieresis.ss01" horiz-adv-x="600" 
d="M229 629c-25 0 -44 20 -44 43s19 43 44 43c26 0 45 -20 45 -43s-19 -43 -45 -43zM410 629c-25 0 -44 20 -44 43s19 43 44 43c26 0 45 -20 45 -43s-19 -43 -45 -43zM533 503h10v-503h-63v166c-28 -110 -110 -176 -218 -176c-128 0 -230 101 -230 262
c0 158 101 258 228 258c111 0 196 -68 222 -181zM286 10c109 0 194 97 194 242c0 143 -86 238 -196 238c-101 0 -185 -95 -185 -238c0 -145 85 -242 187 -242z" />
    <glyph glyph-name="agrave.ss01" horiz-adv-x="600" 
d="M332 582h-8l-158 171v7h74zM533 503h10v-503h-63v166c-28 -110 -110 -176 -218 -176c-128 0 -230 101 -230 262c0 158 101 258 228 258c111 0 196 -68 222 -181zM286 10c109 0 194 97 194 242c0 143 -86 238 -196 238c-101 0 -185 -95 -185 -238c0 -145 85 -242 187 -242
z" />
    <glyph glyph-name="amacron.ss01" horiz-adv-x="600" 
d="M454 650v-10h-268v10h268zM533 503h10v-503h-63v166c-28 -110 -110 -176 -218 -176c-128 0 -230 101 -230 262c0 158 101 258 228 258c111 0 196 -68 222 -181zM286 10c109 0 194 97 194 242c0 143 -86 238 -196 238c-101 0 -185 -95 -185 -238c0 -145 85 -242 187 -242z
" />
    <glyph glyph-name="aogonek.ss01" horiz-adv-x="600" 
d="M594 -128l6 -6c-34 -43 -69 -67 -128 -67c-61 0 -98 33 -98 81c0 57 53 93 122 120h-16v166c-28 -110 -110 -176 -218 -176c-128 0 -230 101 -230 262c0 158 101 258 228 258c111 0 196 -68 222 -181l51 174h10v-503h-26c-63 -28 -102 -56 -102 -108c0 -45 31 -75 78 -75
c36 0 66 12 101 55zM286 10c109 0 194 97 194 242c0 143 -86 238 -196 238c-101 0 -185 -95 -185 -238c0 -145 85 -242 187 -242z" />
    <glyph glyph-name="aring.ss01" horiz-adv-x="600" 
d="M319 580c-57 0 -93 41 -93 92s36 92 93 92c58 0 94 -41 94 -92s-36 -92 -94 -92zM319 754c-51 0 -83 -37 -83 -82s32 -82 83 -82c52 0 84 37 84 82s-32 82 -84 82zM533 503h10v-503h-63v166c-28 -110 -110 -176 -218 -176c-128 0 -230 101 -230 262
c0 158 101 258 228 258c111 0 196 -68 222 -181zM286 10c109 0 194 97 194 242c0 143 -86 238 -196 238c-101 0 -185 -95 -185 -238c0 -145 85 -242 187 -242z" />
    <glyph glyph-name="atilde.ss01" horiz-adv-x="600" 
d="M215 706c-16 -11 -34 -37 -51 -83l-10 2c26 82 64 105 91 105c43 0 106 -62 191 -103c16 20 34 46 51 91l10 -3c-27 -83 -62 -118 -95 -118c-43 0 -119 64 -187 109zM533 503h10v-503h-63v166c-28 -110 -110 -176 -218 -176c-128 0 -230 101 -230 262
c0 158 101 258 228 258c111 0 196 -68 222 -181zM286 10c109 0 194 97 194 242c0 143 -86 238 -196 238c-101 0 -185 -95 -185 -238c0 -145 85 -242 187 -242z" />
    <glyph glyph-name="g.ss02" horiz-adv-x="574" 
d="M508 503h10v-460c0 -133 -93 -213 -247 -213c-104 0 -200 52 -230 155l10 3c29 -97 118 -144 202 -144c127 0 201 67 201 181v167c-27 -100 -104 -162 -205 -162c-121 0 -217 97 -217 242c0 143 95 238 215 238c103 0 181 -62 207 -162zM272 53c105 0 182 87 182 219
c0 129 -81 218 -182 218c-95 0 -173 -89 -173 -218c0 -132 77 -219 173 -219z" />
    <glyph glyph-name="gbreve.ss02" horiz-adv-x="574" 
d="M289 586c-77 0 -142 50 -145 153h3c14 -82 77 -112 142 -112c63 0 127 30 141 112h3c-3 -103 -68 -153 -144 -153zM508 503h10v-460c0 -133 -93 -213 -247 -213c-104 0 -200 52 -230 155l10 3c29 -97 118 -144 202 -144c127 0 201 67 201 181v167
c-27 -100 -104 -162 -205 -162c-121 0 -217 97 -217 242c0 143 95 238 215 238c103 0 181 -62 207 -162zM272 53c105 0 182 87 182 219c0 129 -81 218 -182 218c-95 0 -173 -89 -173 -218c0 -132 77 -219 173 -219z" />
    <glyph glyph-name="uni0123.ss02" horiz-adv-x="574" 
d="M287 591c-45 0 -76 31 -76 85c0 50 35 96 95 96c15 0 32 -3 51 -10l-3 -10c-18 7 -35 11 -50 11c-53 0 -83 -43 -83 -88c0 -23 10 -50 34 -57c-2 5 -3 10 -3 15c0 21 16 37 38 37c24 0 40 -16 40 -40c0 -23 -17 -39 -43 -39zM508 503h10v-460c0 -133 -93 -213 -247 -213
c-104 0 -200 52 -230 155l10 3c29 -97 118 -144 202 -144c127 0 201 67 201 181v167c-27 -100 -104 -162 -205 -162c-121 0 -217 97 -217 242c0 143 95 238 215 238c103 0 181 -62 207 -162zM272 53c105 0 182 87 182 219c0 129 -81 218 -182 218c-95 0 -173 -89 -173 -218
c0 -132 77 -219 173 -219z" />
    <glyph glyph-name="gdotaccent.ss02" horiz-adv-x="574" 
d="M287 629c-25 0 -44 20 -44 43s19 43 44 43c26 0 45 -20 45 -43s-19 -43 -45 -43zM508 503h10v-460c0 -133 -93 -213 -247 -213c-104 0 -200 52 -230 155l10 3c29 -97 118 -144 202 -144c127 0 201 67 201 181v167c-27 -100 -104 -162 -205 -162c-121 0 -217 97 -217 242
c0 143 95 238 215 238c103 0 181 -62 207 -162zM272 53c105 0 182 87 182 219c0 129 -81 218 -182 218c-95 0 -173 -89 -173 -218c0 -132 77 -219 173 -219z" />
    <glyph glyph-name="y.ss02" horiz-adv-x="551" 
d="M431 500h64v-457c0 -142 -105 -213 -237 -213c-108 0 -192 51 -220 154l10 4c26 -97 103 -144 192 -144c109 0 191 61 191 181v170c-24 -106 -95 -175 -199 -175c-106 0 -180 70 -180 188v292h63v-298c0 -102 62 -153 143 -153c100 0 173 89 173 231v220z" />
    <glyph glyph-name="yacute.ss02" horiz-adv-x="551" 
d="M410 753l-158 -171h-8l92 178h74v-7zM431 500h64v-457c0 -142 -105 -213 -237 -213c-108 0 -192 51 -220 154l10 4c26 -97 103 -144 192 -144c109 0 191 61 191 181v170c-24 -106 -95 -175 -199 -175c-106 0 -180 70 -180 188v292h63v-298c0 -102 62 -153 143 -153
c100 0 173 89 173 231v220z" />
    <glyph glyph-name="ycircumflex.ss02" horiz-adv-x="551" 
d="M263 730l-121 -146h-11l154 185h2l154 -185h-57zM431 500h64v-457c0 -142 -105 -213 -237 -213c-108 0 -192 51 -220 154l10 4c26 -97 103 -144 192 -144c109 0 191 61 191 181v170c-24 -106 -95 -175 -199 -175c-106 0 -180 70 -180 188v292h63v-298
c0 -102 62 -153 143 -153c100 0 173 89 173 231v220z" />
    <glyph glyph-name="ydieresis.ss02" horiz-adv-x="551" 
d="M185 629c-25 0 -44 20 -44 43s19 43 44 43c26 0 45 -20 45 -43s-19 -43 -45 -43zM366 629c-25 0 -44 20 -44 43s19 43 44 43c26 0 45 -20 45 -43s-19 -43 -45 -43zM431 500h64v-457c0 -142 -105 -213 -237 -213c-108 0 -192 51 -220 154l10 4c26 -97 103 -144 192 -144
c109 0 191 61 191 181v170c-24 -106 -95 -175 -199 -175c-106 0 -180 70 -180 188v292h63v-298c0 -102 62 -153 143 -153c100 0 173 89 173 231v220z" />
    <glyph glyph-name="ygrave.ss02" horiz-adv-x="551" 
d="M288 582h-8l-158 171v7h74zM431 500h64v-457c0 -142 -105 -213 -237 -213c-108 0 -192 51 -220 154l10 4c26 -97 103 -144 192 -144c109 0 191 61 191 181v170c-24 -106 -95 -175 -199 -175c-106 0 -180 70 -180 188v292h63v-298c0 -102 62 -153 143 -153
c100 0 173 89 173 231v220z" />
    <glyph glyph-name="k.ss04" horiz-adv-x="534" 
d="M329 242l194 -242h-77l-185 238c129 15 216 82 215 161c-1 60 -50 101 -114 101c-111 0 -242 -115 -242 -374v-126h-63v700h63v-457c33 183 144 267 242 267c70 0 124 -45 124 -111c0 -60 -43 -125 -157 -157z" />
    <glyph glyph-name="uni0137.ss04" horiz-adv-x="534" 
d="M329 242l194 -242h-77l-185 238c129 15 216 82 215 161c-1 60 -50 101 -114 101c-111 0 -242 -115 -242 -374v-126h-63v700h63v-457c33 183 144 267 242 267c70 0 124 -45 124 -111c0 -60 -43 -125 -157 -157zM269 -69c45 0 76 -32 76 -86c0 -50 -35 -95 -95 -95
c-15 0 -32 2 -51 10l3 10c18 -8 35 -11 50 -11c53 0 83 42 83 87c0 23 -10 50 -34 57c2 -4 3 -9 3 -14c0 -22 -16 -37 -38 -37c-24 0 -40 16 -40 39s17 40 43 40z" />
    <glyph glyph-name="g.ss07" horiz-adv-x="520" 
d="M360 93c97 0 148 -42 148 -114c0 -97 -98 -149 -269 -149c-136 0 -219 46 -219 119c0 50 40 85 107 94c-52 13 -79 51 -79 99c0 45 23 75 71 106c-45 26 -71 66 -71 116c0 90 84 146 217 146c149 0 219 46 219 108c0 65 -67 98 -167 82v10c106 16 177 -21 177 -92
c0 -58 -53 -101 -159 -114c88 -17 141 -67 141 -140c0 -91 -81 -148 -211 -148c-55 0 -102 10 -137 28c-38 -26 -59 -47 -59 -81c0 -39 29 -70 89 -70h202zM264 500c-96 0 -157 -52 -157 -135c0 -85 61 -139 157 -139c93 0 153 54 153 139c0 83 -60 135 -153 135zM237 -160
c161 0 240 41 240 114c0 53 -39 82 -111 82h-203c-82 0 -133 -34 -133 -87c0 -67 81 -109 207 -109z" />
    <glyph glyph-name="gbreve.ss07" horiz-adv-x="518" 
d="M258 586c-77 0 -141 50 -145 153h3c14 -82 77 -112 142 -112c63 0 128 30 141 112h3c-3 -103 -67 -153 -144 -153zM360 93c97 0 148 -42 148 -114c0 -97 -98 -149 -269 -149c-136 0 -219 46 -219 119c0 50 40 85 107 94c-52 13 -79 51 -79 99c0 45 23 75 71 106
c-45 26 -71 66 -71 116c0 90 84 146 217 146c130 0 211 -56 211 -146c0 -91 -81 -148 -211 -148c-55 0 -102 10 -137 28c-38 -26 -59 -47 -59 -81c0 -39 29 -70 89 -70h202zM264 500c-96 0 -157 -52 -157 -135c0 -85 61 -139 157 -139c93 0 153 54 153 139
c0 83 -60 135 -153 135zM237 -160c161 0 240 41 240 114c0 53 -39 82 -111 82h-203c-82 0 -133 -34 -133 -87c0 -67 81 -109 207 -109z" />
    <glyph glyph-name="uni0123.ss07" horiz-adv-x="518" 
d="M259 591c-45 0 -75 31 -75 85c0 50 34 96 94 96c15 0 32 -3 51 -10l-3 -10c-18 7 -34 11 -49 11c-54 0 -83 -43 -83 -88c0 -22 9 -50 33 -57c-2 5 -3 10 -3 15c0 21 16 37 39 37c24 0 39 -16 39 -40c0 -23 -17 -39 -43 -39zM360 93c97 0 148 -42 148 -114
c0 -97 -98 -149 -269 -149c-136 0 -219 46 -219 119c0 50 40 85 107 94c-52 13 -79 51 -79 99c0 45 23 75 71 106c-45 26 -71 66 -71 116c0 90 84 146 217 146c130 0 211 -56 211 -146c0 -91 -81 -148 -211 -148c-55 0 -102 10 -137 28c-38 -26 -59 -47 -59 -81
c0 -39 29 -70 89 -70h202zM264 500c-96 0 -157 -52 -157 -135c0 -85 61 -139 157 -139c93 0 153 54 153 139c0 83 -60 135 -153 135zM237 -160c161 0 240 41 240 114c0 53 -39 82 -111 82h-203c-82 0 -133 -34 -133 -87c0 -67 81 -109 207 -109z" />
    <glyph glyph-name="gdotaccent.ss07" horiz-adv-x="518" 
d="M259 629c-25 0 -43 20 -43 43s18 43 43 43c27 0 45 -20 45 -43s-18 -43 -45 -43zM360 93c97 0 148 -42 148 -114c0 -97 -98 -149 -269 -149c-136 0 -219 46 -219 119c0 50 40 85 107 94c-52 13 -79 51 -79 99c0 45 23 75 71 106c-45 26 -71 66 -71 116
c0 90 84 146 217 146c130 0 211 -56 211 -146c0 -91 -81 -148 -211 -148c-55 0 -102 10 -137 28c-38 -26 -59 -47 -59 -81c0 -39 29 -70 89 -70h202zM264 500c-96 0 -157 -52 -157 -135c0 -85 61 -139 157 -139c93 0 153 54 153 139c0 83 -60 135 -153 135zM237 -160
c161 0 240 41 240 114c0 53 -39 82 -111 82h-203c-82 0 -133 -34 -133 -87c0 -67 81 -109 207 -109z" />
    <glyph glyph-name="f_b" horiz-adv-x="1000" 
d="M741 510c127 0 227 -100 227 -258c0 -161 -101 -262 -229 -262c-107 0 -189 65 -217 173l-54 -166h-10v493h-279v-490h-63v490h-119v10h119v72c0 132 83 221 208 221c70 0 130 -33 161 -83l28 46h9v-416c29 106 111 170 219 170zM179 500h279v229c-29 30 -72 49 -117 49
c-97 0 -162 -72 -162 -180v-98zM715 10c101 0 187 97 187 242c0 143 -85 238 -186 238c-103 0 -184 -83 -194 -212v-53c10 -130 91 -215 193 -215z" />
    <glyph glyph-name="f_f_b" horiz-adv-x="1317" 
d="M1057 510c127 0 228 -100 228 -258c0 -161 -102 -262 -230 -262c-107 0 -189 65 -217 173l-53 -166h-10v493h-279v-490h-63l-1 490h-253v-490h-63v490h-119v10h119v67c0 132 84 220 210 220c64 0 120 -27 150 -71c36 48 94 77 165 77c69 0 129 -33 160 -83l29 46h8v-416
c29 106 111 170 219 170zM496 500h279v229c-29 30 -72 49 -117 49c-97 0 -162 -72 -162 -180v-98zM432 500v72c0 8 0 17 1 25v148c-25 18 -57 29 -94 29c-96 0 -160 -69 -160 -181v-93h253zM1031 10c102 0 187 97 187 242c0 143 -84 238 -185 238c-103 0 -185 -83 -195 -212
v-53c10 -130 91 -215 193 -215z" />
    <glyph glyph-name="f_f_h" horiz-adv-x="1274" 
d="M1037 510c106 0 180 -70 180 -188v-322h-63v336c0 98 -58 152 -139 152c-98 0 -168 -87 -177 -210v-278h-64v490h-279v-490h-63v490h-253v-490h-63v490h-119v10h119v67c0 132 84 220 210 220c64 0 119 -27 150 -71c36 49 93 77 164 77c70 0 130 -33 161 -83l28 46h9v-421
c24 106 95 175 199 175zM495 500h279v229c-29 30 -72 49 -117 49c-97 0 -162 -72 -162 -180v-98zM432 500v72c0 8 0 17 1 25v148c-25 18 -57 29 -94 29c-96 0 -160 -69 -160 -181v-93h253z" />
    <glyph glyph-name="f_f_j" horiz-adv-x="880" 
d="M747 672c0 24 16 43 43 43c13 0 23 -4 31 -11c-15 58 -75 93 -151 93c-104 0 -174 -80 -174 -200v-97h327v-246c0 -163 -34 -367 -55 -454h-8v690h-264v-490h-63v490h-254v-490h-63v490h-119v10h119v67c0 132 84 220 210 220c62 0 117 -26 148 -68c37 58 100 92 181 92
c108 0 180 -54 180 -139c0 -24 -17 -43 -45 -43c-27 0 -43 19 -43 43zM433 500v245c-25 18 -57 29 -94 29c-96 0 -160 -69 -160 -181v-93h254z" />
    <glyph glyph-name="f_f_k" horiz-adv-x="1235" 
d="M1148 0l-239 261h-70v-261h-64v490h-279v-490h-63v490h-254v-490h-63v490h-119v10h119v67c0 132 84 220 210 220c64 0 120 -27 150 -72c36 49 94 78 165 78c70 0 130 -33 161 -83l28 46h9v-485h60l273 229h15l-233 -196l269 -304h-75zM496 500h279v229
c-29 30 -72 49 -117 49c-97 0 -162 -72 -162 -180v-98zM433 500v245c-25 18 -57 29 -94 29c-96 0 -160 -69 -160 -181v-93h254z" />
    <glyph glyph-name="f_h" horiz-adv-x="953" 
d="M721 510c106 0 180 -70 180 -188v-322h-63v336c0 98 -58 152 -139 152c-98 0 -168 -87 -177 -210v-278h-64v490h-279v-490h-63v490h-119v10h119v72c0 132 83 221 208 221c70 0 130 -33 161 -83l28 46h9v-421c24 106 95 175 199 175zM179 500h279v229
c-29 30 -72 49 -117 49c-97 0 -162 -72 -162 -180v-98z" />
    <glyph glyph-name="f_j" horiz-adv-x="561" 
d="M428 672c0 24 17 43 44 43c13 0 24 -4 31 -12c-15 59 -75 94 -151 94c-105 0 -175 -80 -175 -200v-97h327v-246c0 -163 -34 -367 -55 -454h-8v690h-264v-490h-63v490h-117v10h117v66c0 146 84 245 222 245c109 0 180 -54 180 -139c0 -24 -16 -43 -44 -43
c-27 0 -44 19 -44 43z" />
    <glyph glyph-name="f_k" horiz-adv-x="918" 
d="M831 0l-239 261h-70v-261h-64v490h-279v-490h-63v490h-119v10h119v72c0 132 83 221 208 221c70 0 130 -33 161 -83l28 46h9v-485h60l273 229h15l-233 -196l269 -304h-75zM179 500h279v229c-29 30 -72 49 -117 49c-97 0 -162 -72 -162 -180v-98z" />
    <glyph glyph-name="g_i" horiz-adv-x="719" 
d="M674 674c0 -26 -17 -45 -44 -45s-44 19 -44 43s17 43 44 43c12 0 24 -4 32 -13c-11 84 -82 103 -130 103c-94 0 -162 -63 -162 -170c0 -116 96 -186 96 -271c0 -92 -81 -148 -211 -148c-59 0 -108 11 -145 32v-126h196c104 0 171 -43 171 -130c0 -104 -97 -162 -247 -162
c-98 0 -176 26 -230 83l7 9c55 -60 137 -82 222 -82c138 0 217 48 217 127c0 67 -51 96 -140 96h-206v191c-40 25 -62 63 -62 110c0 90 83 146 216 146c66 0 123 -12 170 -53c-40 66 -64 120 -64 178c0 113 72 180 172 180c59 0 142 -28 142 -141zM254 226
c93 0 152 52 152 139c0 85 -59 135 -152 135c-95 0 -155 -50 -155 -135c0 -87 60 -139 155 -139zM599 0v500h63v-500h-63z" />
    <glyph glyph-name="f_f_k.ss04" horiz-adv-x="1253" 
d="M1047 242l194 -242h-77l-185 238c130 15 217 82 216 161c-1 60 -51 101 -115 101c-111 0 -242 -115 -242 -374v-126h-63v490h-279v-490h-63l-1 490h-253v-490h-63v490h-119v10h119v67c0 132 84 220 210 220c64 0 120 -27 150 -71c36 48 94 77 165 77
c69 0 129 -33 160 -83l29 46h8v-513c33 183 144 267 242 267c70 0 125 -45 125 -111c0 -60 -43 -125 -158 -157zM496 500h279v229c-29 30 -72 49 -117 49c-97 0 -162 -72 -162 -180v-98zM432 500v72c0 8 0 17 1 25v148c-25 18 -57 29 -94 29c-96 0 -160 -69 -160 -181v-93
h253z" />
    <glyph glyph-name="f_k.ss04" horiz-adv-x="936" 
d="M731 242l193 -242h-76l-186 238c130 15 217 82 216 161c-1 60 -51 101 -115 101c-111 0 -241 -115 -241 -374v-126h-64v490h-279v-490h-63v490h-119v10h119v72c0 132 83 221 208 221c70 0 130 -33 161 -83l28 46h9v-512c33 182 143 266 241 266c71 0 125 -45 125 -111
c0 -60 -43 -125 -157 -157zM179 500h279v229c-29 30 -72 49 -117 49c-97 0 -162 -72 -162 -180v-98z" />
    <glyph glyph-name="g_i.ss07" horiz-adv-x="729" 
d="M684 674c0 -26 -17 -45 -44 -45s-44 19 -44 43s17 43 44 43c12 0 24 -4 32 -13c-11 84 -82 103 -130 103c-94 0 -162 -63 -162 -170c0 -116 96 -186 96 -271c0 -92 -81 -148 -211 -148c-55 0 -101 10 -137 28c-37 -28 -57 -58 -57 -87c0 -39 27 -64 87 -64h202
c97 0 148 -42 148 -114c0 -97 -98 -149 -269 -149c-136 0 -219 46 -219 119c0 50 39 84 104 93c-49 13 -76 46 -76 93c0 45 23 80 71 113c-46 26 -71 66 -71 116c0 90 83 146 216 146c66 0 123 -12 170 -53c-40 66 -64 120 -64 178c0 113 72 180 172 180
c59 0 142 -28 142 -141zM264 226c93 0 152 52 152 139c0 85 -59 135 -152 135c-95 0 -155 -50 -155 -135c0 -87 60 -139 155 -139zM610 0v500h63v-500h-63zM366 36h-203c-82 0 -133 -34 -133 -87c0 -67 81 -109 207 -109c161 0 240 41 240 114c0 53 -39 82 -111 82z" />
    <glyph glyph-name="ordfeminine" unicode="&#xaa;" horiz-adv-x="435" 
d="M49 401c0 74 88 135 277 141v26c0 83 -36 129 -112 129c-81 0 -138 -51 -138 -143h-10c0 100 62 156 161 156c98 0 148 -57 148 -155v-235h-11l-37 134c-27 -86 -110 -134 -183 -134c-62 0 -95 35 -95 81zM168 345c67 0 158 60 158 170v18c-151 -5 -228 -57 -228 -123
c0 -41 28 -65 70 -65zM50 233h347v-10h-347v10z" />
    <glyph glyph-name="ordmasculine" unicode="&#xba;" horiz-adv-x="458" 
d="M228 710c102 0 195 -78 195 -194c0 -118 -93 -196 -195 -196c-101 0 -193 78 -193 196c0 116 92 194 193 194zM228 329c82 0 143 70 143 187c0 116 -61 184 -143 184c-80 0 -141 -68 -141 -184c0 -117 61 -187 141 -187zM43 233h371v-10h-371v10z" />
    <glyph glyph-name="zero" unicode="0" horiz-adv-x="663" 
d="M332 -10c-170 0 -305 144 -305 360s135 360 305 360c169 0 305 -144 305 -360s-136 -360 -305 -360zM332 0c142 0 234 142 234 350s-92 350 -234 350s-235 -142 -235 -350s93 -350 235 -350z" />
    <glyph glyph-name="one" unicode="1" horiz-adv-x="395" 
d="M319 700h5v-700h-67v658l-250 -118v12z" />
    <glyph glyph-name="two" unicode="2" horiz-adv-x="568" 
d="M167 59h373v-59h-498v6l28 53h88c169 143 288 294 288 430c0 117 -73 201 -191 201c-126 0 -207 -86 -207 -202c0 -54 18 -93 48 -121l-7 -7c-32 30 -51 74 -51 127c0 130 94 223 239 223c147 0 235 -97 235 -230c0 -150 -144 -293 -345 -421z" />
    <glyph glyph-name="three" unicode="3" horiz-adv-x="551" 
d="M46 700h465v-9l-269 -274c149 -11 267 -81 267 -215c0 -126 -98 -212 -241 -212c-108 0 -200 54 -233 139l9 4c29 -78 116 -132 215 -132c117 0 199 71 199 177c0 116 -98 180 -264 190h-13v5l260 267h-395v60z" />
    <glyph glyph-name="four" unicode="4" horiz-adv-x="590" 
d="M575 206v-10h-109v-196h-67v196h-391v13l448 501h10v-504h109zM20 206h379v425z" />
    <glyph glyph-name="five" unicode="5" horiz-adv-x="542" 
d="M502 640h-347l-39 -191c253 16 382 -78 382 -237c0 -133 -97 -222 -237 -222c-113 0 -203 54 -236 139l9 4c31 -80 115 -132 218 -132c118 0 195 74 195 184c0 136 -117 220 -355 204l65 311h361z" />
    <glyph glyph-name="six" unicode="6" horiz-adv-x="561" 
d="M348 699c-157 0 -240 -148 -243 -413c22 98 97 164 210 164c130 0 218 -87 218 -219c0 -142 -104 -241 -245 -241c-99 0 -176 53 -215 126c-25 45 -36 98 -36 180c0 263 124 414 302 414c101 0 171 -45 204 -116l-9 -5c-34 71 -100 110 -186 110zM291 429
c-110 0 -183 -88 -183 -212c0 -127 76 -217 183 -217c103 0 177 86 177 218c0 131 -73 211 -177 211z" />
    <glyph glyph-name="seven" unicode="7" horiz-adv-x="538" 
d="M30 700h515v-10l-407 -690h-13l378 640h-473v60z" />
    <glyph glyph-name="eight" unicode="8" horiz-adv-x="555" 
d="M319 388c105 -34 209 -74 209 -200c0 -112 -100 -198 -258 -198c-138 0 -243 69 -243 179c0 89 69 152 185 184c-83 32 -153 77 -153 180s92 177 221 177c116 0 199 -63 199 -158c0 -75 -41 -136 -160 -164zM98 564c0 -106 101 -138 205 -171c125 27 166 87 166 159
c0 89 -80 148 -189 148s-182 -60 -182 -136zM269 0c137 0 219 70 219 157c0 125 -141 147 -261 190c-120 -32 -190 -92 -190 -177c0 -103 100 -170 232 -170z" />
    <glyph glyph-name="nine" unicode="9" horiz-adv-x="561" 
d="M488 584c25 -45 36 -98 36 -180c0 -263 -124 -414 -303 -414c-100 0 -170 45 -203 116l9 5c34 -71 100 -110 186 -110c155 0 239 148 243 412c-22 -97 -98 -163 -211 -163c-129 0 -218 87 -218 219c0 142 105 241 246 241c99 0 176 -53 215 -126zM269 271
c110 0 184 88 184 212c0 127 -76 217 -183 217c-103 0 -177 -86 -177 -218c0 -131 73 -211 176 -211z" />
    <glyph glyph-name="zero.osf" horiz-adv-x="623" 
d="M312 -10c-158 0 -275 125 -275 281c0 155 117 279 275 279s275 -124 275 -279c0 -156 -117 -281 -275 -281zM312 0c152 0 265 121 265 271c0 149 -113 269 -265 269s-265 -120 -265 -269c0 -150 113 -271 265 -271z" />
    <glyph glyph-name="one.osf" horiz-adv-x="395" 
d="M319 550h5v-550h-67v509l-250 -119v12z" />
    <glyph glyph-name="two.osf" horiz-adv-x="572" 
d="M155 59h389v-59h-512v4l28 55h80c221 95 294 204 294 301c0 89 -59 160 -173 160c-127 0 -207 -88 -207 -206c0 -19 2 -35 6 -49l-9 -3c-4 14 -7 30 -7 53c0 137 105 235 254 235c128 0 201 -74 201 -171c0 -104 -89 -222 -344 -320z" />
    <glyph glyph-name="three.osf" horiz-adv-x="551" 
d="M46 540h465v-9l-269 -274c149 -11 267 -81 267 -215c0 -126 -98 -212 -241 -212c-108 0 -200 54 -233 139l9 4c29 -78 116 -132 215 -132c117 0 199 71 199 177c0 116 -98 180 -264 190h-13v5l260 267h-395v60z" />
    <glyph glyph-name="four.osf" horiz-adv-x="593" 
d="M578 10v-10h-109v-167h-67v167h-394v10l451 533h10v-533h109zM21 10h381v451z" />
    <glyph glyph-name="five.osf" horiz-adv-x="542" 
d="M502 480h-347l-39 -191c253 16 382 -78 382 -237c0 -133 -97 -222 -237 -222c-113 0 -203 54 -236 139l9 4c31 -80 115 -132 218 -132c118 0 195 74 195 184c0 136 -117 220 -355 204l65 311h361z" />
    <glyph glyph-name="six.osf" horiz-adv-x="561" 
d="M348 699c-157 0 -240 -148 -243 -413c22 98 97 164 210 164c130 0 218 -87 218 -219c0 -142 -104 -241 -245 -241c-99 0 -176 53 -215 126c-25 45 -36 98 -36 180c0 263 124 414 302 414c101 0 171 -45 204 -116l-9 -5c-34 71 -100 110 -186 110zM291 429
c-110 0 -183 -88 -183 -212c0 -127 76 -217 183 -217c103 0 177 86 177 218c0 131 -73 211 -177 211z" />
    <glyph glyph-name="seven.osf" horiz-adv-x="538" 
d="M30 540h515v-10l-407 -690h-13l378 640h-473v60z" />
    <glyph glyph-name="eight.osf" horiz-adv-x="555" 
d="M319 388c105 -34 209 -74 209 -200c0 -112 -100 -198 -258 -198c-138 0 -243 69 -243 179c0 89 69 152 185 184c-83 32 -153 77 -153 180s92 177 221 177c116 0 199 -63 199 -158c0 -75 -41 -136 -160 -164zM98 564c0 -106 101 -138 205 -171c125 27 166 87 166 159
c0 89 -80 148 -189 148s-182 -60 -182 -136zM269 0c137 0 219 70 219 157c0 125 -141 147 -261 190c-120 -32 -190 -92 -190 -177c0 -103 100 -170 232 -170z" />
    <glyph glyph-name="nine.osf" horiz-adv-x="561" 
d="M488 424c25 -45 36 -98 36 -180c0 -263 -124 -414 -303 -414c-100 0 -170 45 -203 116l9 5c34 -71 100 -110 186 -110c155 0 239 148 243 412c-22 -97 -98 -163 -211 -163c-129 0 -218 87 -218 219c0 142 105 241 246 241c99 0 176 -53 215 -126zM269 111
c110 0 184 88 184 212c0 127 -76 217 -183 217c-103 0 -177 -86 -177 -218c0 -131 73 -211 176 -211z" />
    <glyph glyph-name="zero.tf" horiz-adv-x="600" 
d="M300 -10c-155 0 -280 144 -280 360s125 360 280 360s280 -144 280 -360s-125 -360 -280 -360zM300 0c127 0 214 126 214 350s-87 350 -214 350s-214 -126 -214 -350s87 -350 214 -350z" />
    <glyph glyph-name="one.tf" horiz-adv-x="600" 
d="M336 10h224v-10h-514v10h224v648l-220 -122v12l281 152h5v-690z" />
    <glyph glyph-name="two.tf" horiz-adv-x="600" 
d="M182 59h372v-59h-498v6l28 53h88c169 143 288 294 288 430c0 117 -73 201 -191 201c-126 0 -207 -86 -207 -202c0 -54 18 -93 48 -121l-7 -7c-32 30 -51 74 -51 127c0 130 94 223 240 223s234 -97 234 -230c0 -150 -144 -293 -344 -421z" />
    <glyph glyph-name="three.tf" horiz-adv-x="600" 
d="M73 700h465v-9l-269 -274c149 -11 267 -81 267 -215c0 -126 -98 -212 -241 -212c-108 0 -200 54 -233 139l9 4c29 -78 116 -132 215 -132c117 0 199 71 199 177c0 116 -98 180 -264 190h-13v5l260 267h-395v60z" />
    <glyph glyph-name="four.tf" horiz-adv-x="600" 
d="M585 206v-10h-109v-196h-67v196h-391v13l448 501h10v-504h109zM30 206h379v425z" />
    <glyph glyph-name="five.tf" horiz-adv-x="600" 
d="M531 640h-347l-40 -191c254 16 383 -78 383 -237c0 -133 -97 -222 -237 -222c-113 0 -203 54 -236 139l9 4c30 -80 115 -132 218 -132c117 0 195 74 195 184c0 136 -117 220 -355 204l65 311h360z" />
    <glyph glyph-name="six.tf" horiz-adv-x="600" 
d="M359 699c-157 0 -241 -150 -244 -417c21 100 97 168 211 168c130 0 218 -87 218 -219c0 -142 -104 -241 -245 -241c-100 0 -177 53 -216 126c-25 45 -36 98 -36 180c0 263 125 414 303 414c100 0 171 -45 203 -116l-9 -5c-33 71 -100 110 -185 110zM302 429
c-110 0 -183 -88 -183 -212c0 -127 76 -217 182 -217c103 0 178 86 178 218c0 131 -73 211 -177 211z" />
    <glyph glyph-name="seven.tf" horiz-adv-x="600" 
d="M53 700h515v-10l-407 -690h-13l378 640h-473v60z" />
    <glyph glyph-name="eight.tf" horiz-adv-x="600" 
d="M342 388c105 -34 209 -74 209 -200c0 -112 -100 -198 -258 -198c-138 0 -243 69 -243 179c0 89 69 152 185 184c-83 32 -153 77 -153 180s92 177 221 177c116 0 199 -63 199 -158c0 -75 -41 -136 -160 -164zM121 564c0 -106 101 -138 205 -171c125 27 166 87 166 159
c0 89 -80 148 -189 148s-182 -60 -182 -136zM292 0c137 0 219 70 219 157c0 125 -141 147 -261 190c-120 -32 -190 -92 -190 -177c0 -103 100 -170 232 -170z" />
    <glyph glyph-name="nine.tf" horiz-adv-x="600" 
d="M517 584c25 -45 36 -98 36 -180c0 -263 -124 -414 -302 -414c-101 0 -171 45 -204 116l9 5c34 -71 100 -110 186 -110c157 0 240 148 243 413c-22 -98 -97 -164 -210 -164c-130 0 -218 87 -218 219c0 142 104 241 245 241c99 0 176 -53 215 -126zM299 271
c110 0 183 88 183 212c0 127 -76 217 -183 217c-103 0 -177 -86 -177 -218c0 -131 73 -211 177 -211z" />
    <glyph glyph-name="uni2080" unicode="&#x2080;" horiz-adv-x="387" 
d="M193 -126c-100 0 -176 81 -176 202s76 202 176 202c101 0 177 -82 177 -202s-76 -202 -177 -202zM193 -117c82 0 130 79 130 193s-48 193 -130 193c-83 0 -130 -80 -130 -193s47 -193 130 -193z" />
    <glyph glyph-name="uni2081" unicode="&#x2081;" horiz-adv-x="242" 
d="M194 272h3v-392h-44v366l-148 -67v10z" />
    <glyph glyph-name="uni2082" unicode="&#x2082;" horiz-adv-x="337" 
d="M110 -80h209v-40h-293v2l18 38h54c85 70 162 146 162 231c0 64 -45 112 -113 112c-65 0 -114 -45 -114 -115c0 -28 9 -49 20 -66l-8 -4c-15 20 -21 46 -21 71c0 77 59 129 140 129c85 0 140 -58 140 -132c0 -87 -76 -159 -194 -226z" />
    <glyph glyph-name="uni2083" unicode="&#x2083;" horiz-adv-x="316" 
d="M291 272v-4l-148 -153c83 -11 146 -49 146 -121c0 -71 -58 -120 -138 -120c-59 0 -112 30 -130 78l9 5c15 -43 64 -72 116 -72c62 0 109 36 109 95c0 67 -61 95 -147 103l-7 1v5l139 143h-211v40h262z" />
    <glyph glyph-name="uni2084" unicode="&#x2084;" horiz-adv-x="331" 
d="M321 -4v-10h-62v-106h-45v106h-209l-2 9l251 283h5v-282h62zM18 -4h196v225z" />
    <glyph glyph-name="uni2085" unicode="&#x2085;" horiz-adv-x="301" 
d="M63 127c144 6 211 -44 211 -129c0 -76 -57 -124 -132 -124c-58 0 -109 31 -126 81l9 5c16 -46 62 -76 114 -76c60 0 101 40 101 99c0 71 -61 116 -194 109l35 180h197l-10 -40h-186z" />
    <glyph glyph-name="uni2086" unicode="&#x2086;" horiz-adv-x="312" 
d="M175 132c72 0 119 -49 119 -122c0 -80 -57 -136 -136 -136c-51 0 -92 23 -116 60c-20 31 -25 70 -25 118c0 145 70 226 170 226c53 0 94 -25 113 -65l-8 -4c-17 38 -54 58 -100 58c-85 0 -128 -75 -131 -204c17 44 60 69 114 69zM158 -117c56 0 95 46 95 119
c0 69 -38 113 -93 113c-59 0 -100 -40 -100 -107c0 -76 39 -125 98 -125z" />
    <glyph glyph-name="uni2087" unicode="&#x2087;" horiz-adv-x="306" 
d="M20 272h291v-6l-230 -386h-13l210 352h-258v40z" />
    <glyph glyph-name="uni2088" unicode="&#x2088;" horiz-adv-x="319" 
d="M192 97c56 -19 110 -42 110 -110c0 -65 -57 -113 -147 -113c-82 0 -138 40 -138 100c0 49 39 84 103 102c-46 18 -85 44 -85 102c0 60 50 100 124 100c68 0 114 -35 114 -88c0 -40 -22 -74 -81 -93zM62 197c0 -59 58 -77 117 -96c64 19 85 52 85 89c0 47 -43 78 -105 78
c-59 0 -97 -29 -97 -71zM155 -116c74 0 119 35 119 83c0 68 -76 80 -142 104c-69 -19 -106 -51 -106 -96c0 -55 52 -91 129 -91z" />
    <glyph glyph-name="uni2089" unicode="&#x2089;" horiz-adv-x="312" 
d="M269 218c20 -31 26 -70 26 -118c0 -145 -70 -226 -170 -226c-54 0 -95 25 -114 65l8 4c18 -38 55 -58 101 -58c86 0 127 75 131 204c-18 -44 -60 -69 -114 -69c-72 0 -119 49 -119 122c0 80 57 136 136 136c51 0 92 -23 115 -60zM152 37c58 0 100 40 100 107
c0 76 -39 125 -98 125c-56 0 -95 -46 -95 -119c0 -69 38 -113 93 -113z" />
    <glyph glyph-name="zero.dnom" horiz-adv-x="387" 
d="M193 -6c-100 0 -176 81 -176 202s76 202 176 202c101 0 177 -82 177 -202s-76 -202 -177 -202zM193 3c82 0 130 79 130 193s-48 193 -130 193c-83 0 -130 -80 -130 -193s47 -193 130 -193z" />
    <glyph glyph-name="one.dnom" horiz-adv-x="242" 
d="M194 392h3v-392h-44v366l-148 -67v10z" />
    <glyph glyph-name="two.dnom" horiz-adv-x="337" 
d="M110 40h209v-40h-293v2l18 38h54c85 70 162 146 162 231c0 64 -45 112 -113 112c-65 0 -114 -45 -114 -115c0 -28 9 -49 20 -66l-8 -4c-15 20 -21 46 -21 71c0 77 59 129 140 129c85 0 140 -58 140 -132c0 -87 -76 -159 -194 -226z" />
    <glyph glyph-name="three.dnom" horiz-adv-x="316" 
d="M291 392v-4l-148 -153c83 -11 146 -49 146 -121c0 -71 -58 -120 -138 -120c-59 0 -112 30 -130 78l9 5c15 -43 64 -72 116 -72c62 0 109 36 109 95c0 67 -61 95 -147 103l-7 1v5l139 143h-211v40h262z" />
    <glyph glyph-name="four.dnom" horiz-adv-x="331" 
d="M321 116v-10h-62v-106h-45v106h-209l-2 9l251 283h5v-282h62zM18 116h196v225z" />
    <glyph glyph-name="five.dnom" horiz-adv-x="301" 
d="M63 247c144 6 211 -44 211 -129c0 -76 -57 -124 -132 -124c-58 0 -109 31 -126 81l9 5c16 -46 62 -76 114 -76c60 0 101 40 101 99c0 71 -61 116 -194 109l35 180h197l-10 -40h-186z" />
    <glyph glyph-name="six.dnom" horiz-adv-x="312" 
d="M175 252c72 0 119 -49 119 -122c0 -80 -57 -136 -136 -136c-51 0 -92 23 -116 60c-20 31 -25 70 -25 118c0 145 70 226 170 226c53 0 94 -25 113 -65l-8 -4c-17 38 -54 58 -100 58c-85 0 -128 -75 -131 -204c17 44 60 69 114 69zM158 3c56 0 95 46 95 119
c0 69 -38 113 -93 113c-59 0 -100 -40 -100 -107c0 -76 39 -125 98 -125z" />
    <glyph glyph-name="seven.dnom" horiz-adv-x="306" 
d="M20 392h291v-6l-230 -386h-13l210 352h-258v40z" />
    <glyph glyph-name="eight.dnom" horiz-adv-x="319" 
d="M192 217c56 -19 110 -42 110 -110c0 -65 -57 -113 -147 -113c-82 0 -138 40 -138 100c0 49 39 84 103 102c-46 18 -85 44 -85 102c0 60 50 100 124 100c68 0 114 -35 114 -88c0 -40 -22 -74 -81 -93zM62 317c0 -59 58 -77 117 -96c64 19 85 52 85 89c0 47 -43 78 -105 78
c-59 0 -97 -29 -97 -71zM155 4c74 0 119 35 119 83c0 68 -76 80 -142 104c-69 -19 -106 -51 -106 -96c0 -55 52 -91 129 -91z" />
    <glyph glyph-name="nine.dnom" horiz-adv-x="312" 
d="M270 338c20 -31 25 -70 25 -118c0 -145 -70 -226 -170 -226c-53 0 -94 25 -113 65l8 4c17 -38 54 -58 100 -58c85 0 128 75 131 204c-17 -44 -60 -69 -114 -69c-72 0 -119 49 -119 122c0 80 57 136 136 136c51 0 92 -23 116 -60zM152 157c59 0 100 40 100 107
c0 76 -39 125 -98 125c-56 0 -95 -46 -95 -119c0 -69 38 -113 93 -113z" />
    <glyph glyph-name="zero.numr" horiz-adv-x="387" 
d="M193 304c-100 0 -176 81 -176 202s76 202 176 202c101 0 177 -82 177 -202s-76 -202 -177 -202zM193 313c82 0 130 79 130 193s-48 193 -130 193c-83 0 -130 -80 -130 -193s47 -193 130 -193z" />
    <glyph glyph-name="one.numr" horiz-adv-x="242" 
d="M194 702h3v-392h-44v366l-148 -67v10z" />
    <glyph glyph-name="two.numr" horiz-adv-x="337" 
d="M110 350h209v-40h-293v2l18 38h54c85 70 162 146 162 231c0 64 -45 112 -113 112c-65 0 -114 -45 -114 -115c0 -28 9 -49 20 -66l-8 -4c-15 20 -21 46 -21 71c0 77 59 129 140 129c85 0 140 -58 140 -132c0 -87 -76 -159 -194 -226z" />
    <glyph glyph-name="three.numr" horiz-adv-x="316" 
d="M291 702v-4l-148 -153c83 -11 146 -49 146 -121c0 -71 -58 -120 -138 -120c-59 0 -112 30 -130 78l9 5c15 -43 64 -72 116 -72c62 0 109 36 109 95c0 67 -61 95 -147 103l-7 1v5l139 143h-211v40h262z" />
    <glyph glyph-name="four.numr" horiz-adv-x="331" 
d="M321 426v-10h-62v-106h-45v106h-209l-2 9l251 283h5v-282h62zM18 426h196v225z" />
    <glyph glyph-name="five.numr" horiz-adv-x="301" 
d="M63 557c144 6 211 -44 211 -129c0 -76 -57 -124 -132 -124c-58 0 -109 31 -126 81l9 5c16 -46 62 -76 114 -76c60 0 101 40 101 99c0 71 -61 116 -194 109l35 180h197l-10 -40h-186z" />
    <glyph glyph-name="six.numr" horiz-adv-x="312" 
d="M175 562c72 0 119 -49 119 -122c0 -80 -57 -136 -136 -136c-51 0 -92 23 -116 60c-20 31 -25 70 -25 118c0 145 70 226 170 226c53 0 94 -25 113 -65l-8 -4c-17 38 -54 58 -100 58c-85 0 -128 -75 -131 -204c17 44 60 69 114 69zM158 313c56 0 95 46 95 119
c0 69 -38 113 -93 113c-59 0 -100 -40 -100 -107c0 -76 39 -125 98 -125z" />
    <glyph glyph-name="seven.numr" horiz-adv-x="306" 
d="M20 702h291v-6l-230 -386h-13l210 352h-258v40z" />
    <glyph glyph-name="eight.numr" horiz-adv-x="319" 
d="M192 527c56 -19 110 -42 110 -110c0 -65 -57 -113 -147 -113c-82 0 -138 40 -138 100c0 49 39 84 103 102c-46 18 -85 44 -85 102c0 60 50 100 124 100c68 0 114 -35 114 -88c0 -40 -22 -74 -81 -93zM62 627c0 -59 58 -77 117 -96c64 19 85 52 85 89c0 47 -43 78 -105 78
c-59 0 -97 -29 -97 -71zM155 314c74 0 119 35 119 83c0 68 -76 80 -142 104c-69 -19 -106 -51 -106 -96c0 -55 52 -91 129 -91z" />
    <glyph glyph-name="nine.numr" horiz-adv-x="312" 
d="M270 648c20 -31 25 -70 25 -118c0 -145 -70 -226 -170 -226c-53 0 -94 25 -113 65l8 4c17 -38 54 -58 100 -58c85 0 128 75 131 204c-17 -44 -60 -69 -114 -69c-72 0 -119 49 -119 122c0 80 57 136 136 136c51 0 92 -23 116 -60zM152 467c59 0 100 40 100 107
c0 76 -39 125 -98 125c-56 0 -95 -46 -95 -119c0 -69 38 -113 93 -113z" />
    <glyph glyph-name="uni2070" unicode="&#x2070;" horiz-adv-x="387" 
d="M193 404c-100 0 -176 81 -176 202s76 202 176 202c101 0 177 -82 177 -202s-76 -202 -177 -202zM193 413c82 0 130 79 130 193s-48 193 -130 193c-83 0 -130 -80 -130 -193s47 -193 130 -193z" />
    <glyph glyph-name="uni00B9" unicode="&#xb9;" horiz-adv-x="242" 
d="M194 802h3v-392h-44v366l-148 -67v10z" />
    <glyph glyph-name="uni00B2" unicode="&#xb2;" horiz-adv-x="337" 
d="M110 450h209v-40h-293v2l18 38h54c85 70 162 146 162 231c0 64 -45 112 -113 112c-65 0 -114 -45 -114 -115c0 -28 9 -49 20 -66l-8 -4c-15 20 -21 46 -21 71c0 77 59 129 140 129c85 0 140 -58 140 -132c0 -87 -76 -159 -194 -226z" />
    <glyph glyph-name="uni00B3" unicode="&#xb3;" horiz-adv-x="316" 
d="M291 802v-4l-148 -153c83 -11 146 -49 146 -121c0 -71 -58 -120 -138 -120c-59 0 -112 30 -130 78l9 5c15 -43 64 -72 116 -72c62 0 109 36 109 95c0 67 -61 95 -147 103l-7 1v5l139 143h-211v40h262z" />
    <glyph glyph-name="uni2074" unicode="&#x2074;" horiz-adv-x="331" 
d="M321 526v-10h-62v-106h-45v106h-209l-2 9l251 283h5v-282h62zM18 526h196v225z" />
    <glyph glyph-name="uni2075" unicode="&#x2075;" horiz-adv-x="301" 
d="M63 657c144 6 211 -44 211 -129c0 -76 -57 -124 -132 -124c-58 0 -109 31 -126 81l9 5c16 -46 62 -76 114 -76c60 0 101 40 101 99c0 71 -61 116 -194 109l35 180h197l-10 -40h-186z" />
    <glyph glyph-name="uni2076" unicode="&#x2076;" horiz-adv-x="312" 
d="M175 662c72 0 119 -49 119 -122c0 -80 -57 -136 -136 -136c-51 0 -92 23 -116 60c-20 31 -25 70 -25 118c0 145 70 226 170 226c53 0 94 -25 113 -65l-8 -4c-17 38 -54 58 -100 58c-85 0 -128 -75 -131 -204c17 44 60 69 114 69zM158 413c56 0 95 46 95 119
c0 69 -38 113 -93 113c-59 0 -100 -40 -100 -107c0 -76 39 -125 98 -125z" />
    <glyph glyph-name="uni2077" unicode="&#x2077;" horiz-adv-x="306" 
d="M20 802h291v-6l-230 -386h-13l210 352h-258v40z" />
    <glyph glyph-name="uni2078" unicode="&#x2078;" horiz-adv-x="319" 
d="M192 627c56 -19 110 -42 110 -110c0 -65 -57 -113 -147 -113c-82 0 -138 40 -138 100c0 49 39 84 103 102c-46 18 -85 44 -85 102c0 60 50 100 124 100c68 0 114 -35 114 -88c0 -40 -22 -74 -81 -93zM62 727c0 -59 58 -77 117 -96c64 19 85 52 85 89c0 47 -43 78 -105 78
c-59 0 -97 -29 -97 -71zM155 414c74 0 119 35 119 83c0 68 -76 80 -142 104c-69 -19 -106 -51 -106 -96c0 -55 52 -91 129 -91z" />
    <glyph glyph-name="uni2079" unicode="&#x2079;" horiz-adv-x="312" 
d="M270 748c20 -31 25 -70 25 -118c0 -145 -70 -226 -170 -226c-53 0 -94 25 -113 65l8 4c17 -38 54 -58 100 -58c85 0 128 75 131 204c-17 -44 -60 -69 -114 -69c-72 0 -119 49 -119 122c0 80 57 136 136 136c51 0 92 -23 116 -60zM152 567c59 0 100 40 100 107
c0 76 -39 125 -98 125c-56 0 -95 -46 -95 -119c0 -69 38 -113 93 -113z" />
    <glyph glyph-name="fraction" unicode="&#x2044;" horiz-adv-x="127" 
d="M280 700l-421 -700h-12l421 700h12z" />
    <glyph glyph-name="period" unicode="." horiz-adv-x="290" 
d="M145 84c29 0 47 -20 47 -45c0 -26 -18 -46 -47 -46c-28 0 -46 20 -46 46c0 25 18 45 46 45z" />
    <glyph glyph-name="comma" unicode="," horiz-adv-x="290" 
d="M148 84c56 0 88 -58 88 -117c0 -99 -72 -165 -173 -154v11c97 -10 162 49 162 144c0 29 -11 69 -38 82c2 -3 4 -7 4 -13c0 -26 -19 -44 -46 -44s-46 19 -46 45c0 27 19 46 49 46z" />
    <glyph glyph-name="colon" unicode=":" horiz-adv-x="290" 
d="M145 508c29 0 47 -20 47 -45c0 -26 -18 -46 -47 -46c-28 0 -46 20 -46 46c0 25 18 45 46 45zM145 84c29 0 47 -20 47 -45c0 -26 -18 -46 -47 -46c-28 0 -46 20 -46 46c0 25 18 45 46 45z" />
    <glyph glyph-name="semicolon" unicode=";" horiz-adv-x="290" 
d="M145 417c-28 0 -46 20 -46 46c0 25 18 45 46 45c29 0 47 -20 47 -45c0 -26 -18 -46 -47 -46zM148 84c56 0 88 -58 88 -117c0 -99 -72 -165 -173 -154v11c97 -10 162 49 162 144c0 29 -11 69 -38 82c2 -3 4 -7 4 -13c0 -26 -19 -44 -46 -44s-46 19 -46 45
c0 27 19 46 49 46z" />
    <glyph glyph-name="ellipsis" unicode="&#x2026;" horiz-adv-x="690" 
d="M145 84c29 0 47 -20 47 -45c0 -26 -18 -46 -47 -46c-28 0 -46 20 -46 46c0 25 18 45 46 45zM345 84c29 0 47 -20 47 -45c0 -26 -18 -46 -47 -46c-28 0 -46 20 -46 46c0 25 18 45 46 45zM545 84c29 0 47 -20 47 -45c0 -26 -18 -46 -47 -46c-28 0 -46 20 -46 46
c0 25 18 45 46 45z" />
    <glyph glyph-name="exclam" unicode="!" horiz-adv-x="290" 
d="M141 276l-32 419v5h73v-5l-31 -419h-10zM145 84c29 0 47 -20 47 -45c0 -26 -18 -46 -47 -46c-28 0 -46 20 -46 46c0 25 18 45 46 45z" />
    <glyph glyph-name="exclamdown" unicode="&#xa1;" horiz-adv-x="290" 
d="M145 457c-28 0 -46 20 -46 45c0 26 18 46 46 46c29 0 47 -20 47 -46c0 -25 -18 -45 -47 -45zM141 265h10l31 -419v-5h-73v5z" />
    <glyph glyph-name="question" unicode="?" horiz-adv-x="379" 
d="M10 567c22 86 97 143 197 143c92 0 154 -54 154 -136c0 -175 -241 -140 -241 -251c0 -31 24 -53 62 -53c26 0 47 11 61 28l8 -6c-15 -19 -40 -32 -70 -32c-43 0 -72 26 -72 66c0 111 183 104 183 252c0 68 -45 112 -115 112c-78 0 -138 -52 -158 -127zM182 84
c29 0 47 -20 47 -45c0 -26 -18 -46 -47 -46c-28 0 -46 20 -46 46c0 25 18 45 46 45z" />
    <glyph glyph-name="questiondown" unicode="&#xbf;" horiz-adv-x="379" 
d="M197 458c-29 0 -46 20 -46 45c0 26 17 46 46 46s46 -20 46 -46c0 -25 -17 -45 -46 -45zM370 -25c-23 -86 -98 -143 -198 -143c-92 0 -153 54 -153 136c0 175 240 140 240 251c0 31 -23 53 -61 53c-26 0 -48 -11 -62 -28l-8 6c15 19 41 32 70 32c43 0 73 -26 73 -66
c0 -111 -183 -104 -183 -252c0 -68 45 -112 114 -112c78 0 139 52 158 127z" />
    <glyph glyph-name="periodcentered" unicode="&#xb7;" horiz-adv-x="290" 
d="M145 325c29 0 47 -20 47 -46c0 -25 -18 -45 -47 -45c-28 0 -46 20 -46 45c0 26 18 46 46 46z" />
    <glyph glyph-name="bullet" unicode="&#x2022;" horiz-adv-x="368" 
d="M183 430c77 0 135 -56 135 -132s-58 -132 -135 -132c-75 0 -133 56 -133 132s58 132 133 132z" />
    <glyph glyph-name="asterisk" unicode="*" horiz-adv-x="496" 
d="M426 587v-10h-166l117 -117l-7 -7l-117 117v-166h-10v166l-117 -117l-7 7l117 117h-166v10h166l-117 117l7 7l117 -117v166h10v-166l117 117l7 -7l-117 -117h166z" />
    <glyph glyph-name="numbersign" unicode="#" horiz-adv-x="747" 
d="M696 484h-150l-67 -250h147v-10h-150l-60 -224h-12l60 224h-252l-60 -224h-12l60 224h-148v10h151l67 250h-148v10h151l55 206h12l-55 -206h252l55 206h12l-55 -206h147v-10zM467 234l67 250h-252l-67 -250h252z" />
    <glyph glyph-name="slash" unicode="/" 
d="M13 -160h-12l486 905h12z" />
    <glyph glyph-name="backslash" unicode="\" 
d="M487 -160l-486 905h12l486 -905h-12z" />
    <glyph glyph-name="exclamdown.case" horiz-adv-x="290" 
d="M145 618c-28 0 -46 20 -46 45c0 26 18 46 46 46c29 0 47 -20 47 -46c0 -25 -18 -45 -47 -45zM141 426h10l31 -419v-5h-73v5z" />
    <glyph glyph-name="questiondown.case" horiz-adv-x="379" 
d="M197 618c-29 0 -46 20 -46 45c0 26 17 46 46 46s46 -20 46 -46c0 -25 -17 -45 -46 -45zM370 135c-23 -86 -98 -143 -198 -143c-92 0 -153 54 -153 136c0 175 240 140 240 251c0 31 -23 53 -61 53c-26 0 -48 -11 -62 -28l-8 6c15 19 41 32 70 32c43 0 73 -26 73 -66
c0 -111 -183 -104 -183 -252c0 -68 45 -112 114 -112c78 0 139 52 158 127z" />
    <glyph glyph-name="periodcentered.case" horiz-adv-x="290" 
d="M145 396c29 0 47 -20 47 -45c0 -26 -18 -46 -47 -46c-28 0 -46 20 -46 46c0 25 18 45 46 45z" />
    <glyph glyph-name="bullet.case" horiz-adv-x="466" 
d="M232 482c77 0 135 -56 135 -132s-58 -132 -135 -132c-75 0 -133 56 -133 132s58 132 133 132z" />
    <glyph glyph-name="slash.case" horiz-adv-x="476" 
d="M20 -45l424 790h12l-424 -790h-12z" />
    <glyph glyph-name="backslash.case" horiz-adv-x="476" 
d="M456 -45h-12l-424 790h12z" />
    <glyph glyph-name="parenleft" unicode="(" horiz-adv-x="401" 
d="M389 -119c-172 0 -344 180 -344 444s172 445 344 445v-10c-153 0 -274 -177 -274 -435s121 -434 274 -434v-10z" />
    <glyph glyph-name="parenright" unicode=")" horiz-adv-x="401" 
d="M12 -119v10c153 0 274 176 274 434s-121 435 -274 435v10c172 0 344 -181 344 -445s-172 -444 -344 -444z" />
    <glyph glyph-name="braceleft" unicode="{" horiz-adv-x="430" 
d="M399 760c-127 0 -213 -35 -206 -158l6 -112c8 -145 -31 -158 -112 -160v-2c80 -2 120 -15 112 -160l-6 -112c-7 -125 79 -165 206 -165v-10c-204 2 -276 73 -271 175l6 112c6 114 7 156 -57 156h-45v10h45c64 0 63 42 57 156l-6 112c-5 102 68 167 271 168v-10z" />
    <glyph glyph-name="braceright" unicode="}" horiz-adv-x="430" 
d="M32 760v10c203 -1 276 -66 271 -168l-6 -112c-6 -114 -7 -156 57 -156h45v-10h-45c-64 0 -63 -42 -57 -156l6 -112c5 -102 -67 -173 -271 -175v10c127 0 213 40 206 165l-6 112c-8 145 32 158 111 160v2c-80 2 -119 15 -111 160l6 112c6 123 -79 158 -206 158z" />
    <glyph glyph-name="bracketleft" unicode="[" horiz-adv-x="406" 
d="M143 -110h231v-10h-294v890h294v-10h-231v-870z" />
    <glyph glyph-name="bracketright" unicode="]" horiz-adv-x="406" 
d="M263 -110v870h-231v10h294v-890h-294v10h231z" />
    <glyph glyph-name="parenleft.case" horiz-adv-x="401" 
d="M389 -95c-172 0 -344 180 -344 444s172 445 344 445v-10c-153 0 -274 -177 -274 -435s121 -434 274 -434v-10z" />
    <glyph glyph-name="parenright.case" horiz-adv-x="401" 
d="M12 -95v10c153 0 274 176 274 434s-121 435 -274 435v10c172 0 344 -181 344 -445s-172 -444 -344 -444z" />
    <glyph glyph-name="braceleft.case" horiz-adv-x="430" 
d="M399 784c-127 0 -213 -35 -206 -158l6 -112c8 -145 -31 -158 -112 -160v-2c80 -2 120 -15 112 -160l-6 -112c-7 -125 79 -165 206 -165v-10c-204 2 -276 73 -271 175l6 112c6 114 7 156 -57 156h-45v10h45c64 0 63 42 57 156l-6 112c-5 102 68 167 271 168v-10z" />
    <glyph glyph-name="braceright.case" horiz-adv-x="430" 
d="M32 784v10c203 -1 276 -66 271 -168l-6 -112c-6 -114 -7 -156 57 -156h45v-10h-45c-64 0 -63 -42 -57 -156l6 -112c5 -102 -67 -173 -271 -175v10c127 0 213 40 206 165l-6 112c-8 145 32 158 111 160v2c-80 2 -119 15 -111 160l6 112c6 123 -79 158 -206 158z" />
    <glyph glyph-name="bracketleft.case" horiz-adv-x="406" 
d="M143 -86h231v-10h-294v890h294v-10h-231v-870z" />
    <glyph glyph-name="bracketright.case" horiz-adv-x="406" 
d="M263 -86v870h-231v10h294v-890h-294v10h231z" />
    <glyph glyph-name="parenleft.ss03" horiz-adv-x="401" 
d="M389 -119c-179 0 -344 180 -344 444s165 445 344 445v-10c-173 0 -334 -177 -334 -435s161 -434 334 -434v-10z" />
    <glyph glyph-name="parenright.ss03" horiz-adv-x="401" 
d="M12 -119v10c173 0 334 176 334 434s-161 435 -334 435v10c179 0 344 -181 344 -445s-165 -444 -344 -444z" />
    <glyph glyph-name="braceleft.ss03" horiz-adv-x="404" 
d="M392 760c-143 0 -258 -33 -251 -158l6 -112c8 -145 -9 -160 -67 -160v-2c57 0 75 -15 67 -160l-6 -112c-7 -125 108 -165 251 -165v-10c-194 2 -266 73 -261 175l6 112c6 114 7 156 -57 156h-45v10h45c64 0 63 42 57 156l-6 112c-5 102 68 167 261 168v-10z" />
    <glyph glyph-name="braceright.ss03" horiz-adv-x="420" 
d="M32 760v10c193 -1 266 -66 261 -168l-6 -112c-6 -114 -7 -156 57 -156h45v-10h-45c-64 0 -63 -42 -57 -156l6 -112c5 -102 -67 -173 -261 -175v10c143 0 258 40 251 165l-6 112c-8 145 10 160 67 160v2c-58 0 -75 15 -67 160l6 112c7 125 -108 158 -251 158z" />
    <glyph glyph-name="bracketleft.ss03" horiz-adv-x="356" 
d="M90 -110h234v-10h-244v890h244v-10h-234v-870z" />
    <glyph glyph-name="bracketright.ss03" horiz-adv-x="356" 
d="M266 -110v870h-234v10h244v-890h-244v10h234z" />
    <glyph glyph-name="parenleft.case.ss03" horiz-adv-x="401" 
d="M389 -95c-179 0 -344 180 -344 444s165 445 344 445v-10c-173 0 -334 -177 -334 -435s161 -434 334 -434v-10z" />
    <glyph glyph-name="parenright.case.ss03" horiz-adv-x="401" 
d="M12 -95v10c173 0 334 176 334 434s-161 435 -334 435v10c179 0 344 -181 344 -445s-165 -444 -344 -444z" />
    <glyph glyph-name="braceleft.case.ss03" horiz-adv-x="382" 
d="M392 784c-143 0 -258 -33 -251 -158l6 -112c8 -145 -9 -160 -67 -160v-2c57 0 75 -15 67 -160l-6 -112c-7 -125 108 -165 251 -165v-10c-194 2 -266 73 -261 175l6 112c6 114 7 156 -57 156h-45v10h45c64 0 63 42 57 156l-6 112c-5 102 68 167 261 168v-10z" />
    <glyph glyph-name="braceright.case.ss03" horiz-adv-x="420" 
d="M32 784v10c193 -1 266 -66 261 -168l-6 -112c-6 -114 -7 -156 57 -156h45v-10h-45c-64 0 -63 -42 -57 -156l6 -112c5 -102 -67 -173 -261 -175v10c143 0 258 40 251 165l-6 112c-8 145 10 160 67 160v2c-58 0 -75 15 -67 160l6 112c7 125 -108 158 -251 158z" />
    <glyph glyph-name="bracketleft.case.ss03" horiz-adv-x="364" 
d="M90 -86h234v-10h-244v890h244v-10h-234v-870z" />
    <glyph glyph-name="bracketright.case.ss03" horiz-adv-x="356" 
d="M266 -86v870h-234v10h244v-890h-244v10h234z" />
    <glyph glyph-name="hyphen" unicode="-" horiz-adv-x="360" 
d="M50 295h260v-12h-260v12z" />
    <glyph glyph-name="endash" unicode="&#x2013;" horiz-adv-x="450" 
d="M50 294h350v-10h-350v10z" />
    <glyph glyph-name="emdash" unicode="&#x2014;" horiz-adv-x="800" 
d="M50 294h700v-10h-700v10z" />
    <glyph glyph-name="underscore" unicode="_" horiz-adv-x="424" 
d="M30 -70h364v-12h-364v12z" />
    <glyph glyph-name="hyphen.case" horiz-adv-x="360" 
d="M50 356h260v-12h-260v12z" />
    <glyph glyph-name="endash.case" horiz-adv-x="450" 
d="M50 355h350v-10h-350v10z" />
    <glyph glyph-name="emdash.case" horiz-adv-x="800" 
d="M50 355h700v-10h-700v10z" />
    <glyph glyph-name="quotesinglbase" unicode="&#x201a;" horiz-adv-x="280" 
d="M143 84c56 0 88 -58 88 -117c0 -99 -72 -165 -173 -154v11c97 -10 162 49 162 144c0 29 -11 69 -38 82c2 -3 4 -7 4 -13c0 -26 -19 -44 -46 -44s-46 19 -46 45c0 27 19 46 49 46z" />
    <glyph glyph-name="quotedblbase" unicode="&#x201e;" horiz-adv-x="477" 
d="M143 84c56 0 88 -58 88 -117c0 -99 -72 -165 -173 -154v11c97 -10 162 49 162 144c0 29 -11 69 -38 82c2 -3 4 -7 4 -13c0 -26 -19 -44 -46 -44s-46 19 -46 45c0 27 19 46 49 46zM340 84c55 0 87 -58 87 -117c0 -99 -71 -165 -172 -154v11c97 -10 162 49 162 144
c0 29 -11 70 -39 83c3 -4 4 -8 4 -14c0 -26 -18 -44 -45 -44s-46 19 -46 45c0 27 19 46 49 46z" />
    <glyph glyph-name="quotedblleft" unicode="&#x201c;" horiz-adv-x="477" 
d="M49 553c0 100 72 166 173 155v-11c-97 10 -162 -49 -162 -144c0 -29 11 -68 37 -82c-2 3 -3 7 -3 12c0 27 19 44 46 44s46 -18 46 -45s-19 -45 -49 -45c-56 0 -88 58 -88 116zM246 553c0 100 71 166 172 155v-11c-96 10 -161 -49 -161 -144c0 -29 11 -70 38 -83
c-3 4 -4 8 -4 13c0 27 19 44 45 44c28 0 46 -18 46 -45s-18 -45 -48 -45c-56 0 -88 58 -88 116z" />
    <glyph glyph-name="quotedblright" unicode="&#x201d;" horiz-adv-x="477" 
d="M143 710c56 0 88 -58 88 -117c0 -99 -72 -165 -173 -154v11c97 -10 162 49 162 144c0 29 -11 69 -38 82c2 -3 4 -7 4 -13c0 -26 -19 -44 -46 -44s-46 19 -46 45c0 27 19 46 49 46zM340 710c55 0 87 -58 87 -117c0 -99 -71 -165 -172 -154v11c97 -10 162 49 162 144
c0 29 -11 70 -39 83c3 -4 4 -8 4 -14c0 -26 -18 -44 -45 -44s-46 19 -46 45c0 27 19 46 49 46z" />
    <glyph glyph-name="quoteleft" unicode="&#x2018;" horiz-adv-x="280" 
d="M49 553c0 100 72 166 173 155v-11c-97 10 -162 -49 -162 -144c0 -29 11 -68 37 -82c-2 3 -3 7 -3 12c0 27 19 44 46 44s46 -18 46 -45s-19 -45 -49 -45c-56 0 -88 58 -88 116z" />
    <glyph glyph-name="quoteright" unicode="&#x2019;" horiz-adv-x="280" 
d="M143 710c56 0 88 -58 88 -117c0 -99 -72 -165 -173 -154v11c97 -10 162 49 162 144c0 29 -11 69 -38 82c2 -3 4 -7 4 -13c0 -26 -19 -44 -46 -44s-46 19 -46 45c0 27 19 46 49 46z" />
    <glyph glyph-name="guillemotleft" unicode="&#xab;" horiz-adv-x="546" 
d="M279 497l-178 -233l178 -233l-8 -8l-246 237v8l246 237zM509 497l-178 -233l178 -233l-8 -8l-246 237v8l246 237z" />
    <glyph glyph-name="guillemotright" unicode="&#xbb;" horiz-adv-x="546" 
d="M291 268v-8l-246 -237l-8 8l178 233l-178 233l8 8zM275 505l246 -237v-8l-246 -237l-8 8l178 233l-178 233z" />
    <glyph glyph-name="guilsinglleft" unicode="&#x2039;" horiz-adv-x="316" 
d="M279 497l-178 -233l178 -233l-8 -8l-246 237v8l246 237z" />
    <glyph glyph-name="guilsinglright" unicode="&#x203a;" horiz-adv-x="316" 
d="M45 505l246 -237v-8l-246 -237l-8 8l178 233l-178 233z" />
    <glyph glyph-name="quotedbl" unicode="&#x22;" horiz-adv-x="437" 
d="M125 396h-10l-29 359v5h68v-5zM322 396h-10l-29 359v5h68v-5z" />
    <glyph glyph-name="quotesingle" unicode="'" horiz-adv-x="241" 
d="M125 396h-10l-29 359v5h68v-5z" />
    <glyph glyph-name="guillemotleft.case" horiz-adv-x="546" 
d="M279 583l-178 -233l178 -233l-8 -8l-246 237v8l246 237zM509 583l-178 -233l178 -233l-8 -8l-246 237v8l246 237z" />
    <glyph glyph-name="guillemotright.case" horiz-adv-x="546" 
d="M291 354v-8l-246 -237l-8 8l178 233l-178 233l8 8zM275 591l246 -237v-8l-246 -237l-8 8l178 233l-178 233z" />
    <glyph glyph-name="guilsinglleft.case" horiz-adv-x="316" 
d="M279 583l-178 -233l178 -233l-8 -8l-246 237v8l246 237z" />
    <glyph glyph-name="guilsinglright.case" horiz-adv-x="316" 
d="M45 591l246 -237v-8l-246 -237l-8 8l178 233l-178 233z" />
    <glyph glyph-name="guillemotleft.case.ss03" horiz-adv-x="529" 
d="M272 582l-236 -232l236 -232l-8 -9l-239 237v8l239 237zM492 582l-236 -232l236 -232l-8 -9l-239 237v8l239 237z" />
    <glyph glyph-name="guillemotright.case.ss03" horiz-adv-x="529" 
d="M284 354v-8l-239 -237l-8 9l236 232l-236 232l8 9zM265 591l239 -237v-8l-239 -237l-8 9l236 232l-236 232z" />
    <glyph glyph-name="guilsinglleft.case.ss03" horiz-adv-x="309" 
d="M272 582l-236 -232l236 -232l-8 -9l-239 237v8l239 237z" />
    <glyph glyph-name="guilsinglright.case.ss03" horiz-adv-x="309" 
d="M45 591l239 -237v-8l-239 -237l-8 9l236 232l-236 232z" />
    <glyph glyph-name="guillemotleft.ss03" horiz-adv-x="529" 
d="M272 496l-236 -232l236 -232l-8 -9l-239 237v8l239 237zM492 496l-236 -232l236 -232l-8 -9l-239 237v8l239 237z" />
    <glyph glyph-name="guillemotright.ss03" horiz-adv-x="529" 
d="M284 268v-8l-239 -237l-8 9l236 232l-236 232l8 9zM265 505l239 -237v-8l-239 -237l-8 9l236 232l-236 232z" />
    <glyph glyph-name="guilsinglleft.ss03" horiz-adv-x="296" 
d="M272 496l-236 -232l236 -232l-8 -9l-239 237v8l239 237z" />
    <glyph glyph-name="guilsinglright.ss03" horiz-adv-x="309" 
d="M45 505l239 -237v-8l-239 -237l-8 9l236 232l-236 232z" />
    <glyph glyph-name="uni00A0" unicode="&#xa0;" horiz-adv-x="200" 
 />
    <glyph glyph-name="uni2009" unicode="&#x2009;" horiz-adv-x="100" 
 />
    <glyph glyph-name="cent" unicode="&#xa2;" horiz-adv-x="557" 
d="M525 200c0 -123 -91 -206 -218 -210v-124h-10v124c-151 0 -265 101 -265 262c0 159 112 258 259 258h6v137h10v-137c115 -6 200 -76 211 -207h-9c-12 128 -96 191 -198 191h-4v-484h11c114 0 198 76 198 190h9zM99 251c0 -136 79 -230 198 -240v483
c-121 -7 -198 -98 -198 -243z" />
    <glyph glyph-name="currency" unicode="&#xa4;" horiz-adv-x="568" 
d="M524 117l-7 -7l-118 118c-30 -29 -71 -46 -116 -46s-86 18 -117 46l-116 -116l-7 7l116 116c-28 31 -46 71 -46 116s18 86 47 117l-116 115l6 8l117 -117c30 28 71 46 116 46c44 0 84 -17 115 -45l118 117l7 -7l-118 -117c29 -31 47 -72 47 -117c0 -46 -18 -87 -47 -117z
M122 351c1 -89 73 -159 161 -159c87 0 160 71 159 159s-70 159 -159 159c-88 0 -160 -71 -161 -159z" />
    <glyph glyph-name="dollar" unicode="$" horiz-adv-x="539" 
d="M274 389c115 -34 237 -67 237 -206c0 -116 -94 -193 -231 -193h-6v-124h-10v124c-145 6 -241 89 -241 212h10c0 -116 92 -196 231 -201v314c-112 33 -229 66 -229 202c0 115 90 193 223 193h6v120h10v-120c125 -6 209 -82 209 -192h-10c0 105 -79 176 -199 181v-310z
M79 553c0 -100 88 -132 185 -161v307h-3c-110 0 -182 -58 -182 -146zM278 1c113 0 189 57 189 148c0 104 -93 135 -193 163v-311h4z" />
    <glyph glyph-name="Euro" unicode="&#x20ac;" horiz-adv-x="705" 
d="M668 283h10c-11 -188 -112 -293 -272 -293c-171 0 -297 118 -322 301h-84v10h83c-2 18 -3 37 -3 56s1 37 3 54h-83v10h84c23 176 141 289 312 289c163 0 266 -115 272 -295h-11c-8 171 -101 277 -243 277c-146 0 -242 -107 -261 -271h343v-10h-344c-1 -17 -2 -34 -2 -52
c0 -20 1 -39 3 -58h343v-10h-342c22 -173 126 -284 271 -284c137 0 232 98 243 276z" />
    <glyph glyph-name="uni20A8" unicode="&#x20a8;" horiz-adv-x="590" 
d="M561 700v-10h-253c110 -24 171 -88 174 -170h79v-10h-79c-2 -94 -80 -165 -220 -179l29 -53h61l153 -278h-74l-181 330c-13 -1 -27 -2 -42 -2h-171v10h154c147 0 219 75 221 172h-375v10h375c-3 96 -75 170 -221 170h-154v10h524z" />
    <glyph glyph-name="sterling" unicode="&#xa3;" horiz-adv-x="612" 
d="M159 59h425v-59h-539v8l26 51h77c50 31 86 62 86 105c-1 45 -44 90 -84 144h-109v10h102c-33 46 -62 99 -62 166c0 133 107 226 252 226c133 0 218 -88 218 -207h-10c0 111 -83 196 -206 196c-115 0 -192 -77 -192 -180c0 -84 52 -144 94 -201h237v-10h-230
c24 -34 43 -66 43 -102c0 -56 -46 -100 -128 -147z" />
    <glyph glyph-name="yen" unicode="&#xa5;" horiz-adv-x="562" 
d="M318 332v-14h219v-10h-219v-110h219v-10h-219v-188h-66v188h-211v10h211v110h-211v10h211v8l-242 374h80l222 -356l225 356h15z" />
    <glyph glyph-name="plus" unicode="+" 
d="M40 348h204v206h10v-206h205v-10h-205v-204h-10v204h-204v10z" />
    <glyph glyph-name="minus" unicode="&#x2212;" 
d="M459 348v-10h-419v10h419z" />
    <glyph glyph-name="multiply" unicode="&#xd7;" 
d="M99 198l144 145l-145 145l7 7l146 -145l144 145l8 -7l-145 -145l144 -145l-7 -7l-144 145l-145 -145z" />
    <glyph glyph-name="divide" unicode="&#xf7;" 
d="M249 561c29 0 47 -20 47 -45s-18 -45 -47 -45c-28 0 -46 20 -46 45s18 45 46 45zM459 348v-10h-419v10h419zM249 215c29 0 47 -20 47 -45s-18 -45 -47 -45c-28 0 -46 20 -46 45s18 45 46 45z" />
    <glyph glyph-name="equal" unicode="=" 
d="M459 448v-10h-419v10h419zM459 248v-10h-419v10h419z" />
    <glyph glyph-name="notequal" unicode="&#x2260;" 
d="M459 438h-124l-157 -190h281v-10h-290l-95 -115h-14l95 115h-115v10h124l157 190h-281v10h290l95 115h14l-95 -115h115v-10z" />
    <glyph glyph-name="greater" unicode="&#x3e;" 
d="M41 533l419 -184v-12l-419 -184v12l408 178l-408 178v12z" />
    <glyph glyph-name="less" unicode="&#x3c;" 
d="M459 533v-12l-408 -178l408 -178v-12l-419 184v12z" />
    <glyph glyph-name="greaterequal" unicode="&#x2265;" horiz-adv-x="501" 
d="M459 349v-12l-419 -184v12l408 178l-408 178v12zM41 62h419v-10h-419v10z" />
    <glyph glyph-name="lessequal" unicode="&#x2264;" horiz-adv-x="501" 
d="M461 533v-12l-408 -178l408 -178v-12l-419 184v12zM41 52v10h419v-10h-419z" />
    <glyph glyph-name="plusminus" unicode="&#xb1;" 
d="M40 348h204v206h10v-206h205v-10h-205v-204h-10v204h-204v10zM459 62v-10h-419v10h419z" />
    <glyph glyph-name="approxequal" unicode="&#x2248;" horiz-adv-x="509" 
d="M345 376c-88 0 -97 95 -182 95c-55 0 -83 -38 -104 -72l-9 5c16 27 50 77 114 77c88 0 101 -95 182 -95c55 0 82 39 103 73l10 -6c-16 -27 -50 -77 -114 -77zM345 206c-88 0 -97 95 -182 95c-55 0 -83 -38 -104 -72l-9 5c16 27 50 77 114 77c88 0 101 -95 182 -95
c55 0 82 39 103 73l10 -6c-16 -27 -50 -77 -114 -77z" />
    <glyph glyph-name="asciitilde" unicode="~" horiz-adv-x="509" 
d="M345 266c-88 0 -97 95 -182 95c-55 0 -83 -38 -104 -72l-9 5c16 27 50 77 114 77c88 0 101 -95 182 -95c55 0 82 39 103 73l10 -6c-16 -27 -50 -77 -114 -77z" />
    <glyph glyph-name="asciicircum" unicode="^" horiz-adv-x="527" 
d="M270 700l183 -301h-13l-177 288l-177 -288h-13l183 301h14z" />
    <glyph glyph-name="percent" unicode="%" horiz-adv-x="719" 
d="M186 394c-89 0 -156 68 -156 158s67 158 156 158s156 -68 156 -158s-67 -158 -156 -158zM186 404c83 0 146 64 146 148c0 85 -63 148 -146 148s-146 -63 -146 -148c0 -84 63 -148 146 -148zM572 700l-421 -700h-12l421 700h12zM533 -10c-89 0 -156 68 -156 158
s67 158 156 158s156 -68 156 -158s-67 -158 -156 -158zM533 0c83 0 146 64 146 148c0 85 -63 148 -146 148s-146 -63 -146 -148c0 -84 63 -148 146 -148z" />
    <glyph glyph-name="perthousand" unicode="&#x2030;" horiz-adv-x="1087" 
d="M186 394c-89 0 -156 68 -156 158s67 158 156 158s156 -68 156 -158s-67 -158 -156 -158zM186 404c83 0 146 64 146 148c0 85 -63 148 -146 148s-146 -63 -146 -148c0 -84 63 -148 146 -148zM572 700l-421 -700h-12l421 700h12zM533 -10c-89 0 -156 68 -156 158
s67 158 156 158s156 -68 156 -158s-67 -158 -156 -158zM901 -10c-89 0 -156 68 -156 158s67 158 156 158s156 -68 156 -158s-67 -158 -156 -158zM533 0c83 0 146 64 146 148c0 85 -63 148 -146 148s-146 -63 -146 -148c0 -84 63 -148 146 -148zM901 0c83 0 146 64 146 148
c0 85 -63 148 -146 148s-146 -63 -146 -148c0 -84 63 -148 146 -148z" />
    <glyph glyph-name="arrowup" unicode="&#x2191;" horiz-adv-x="700" 
d="M344 449h-252l257 257l259 -257h-254v-449h-10v449z" />
    <glyph glyph-name="uni2197" unicode="&#x2197;" horiz-adv-x="700" 
d="M416 423l-179 178h364l1 -365l-179 180l-318 -317l-7 7z" />
    <glyph glyph-name="uni2198" unicode="&#x2198;" horiz-adv-x="700" 
d="M416 276l-318 317l7 7l318 -317l179 180l-1 -365h-364z" />
    <glyph glyph-name="arrowdown" unicode="&#x2193;" horiz-adv-x="700" 
d="M344 251v449h10v-449h254l-259 -257l-257 257h252z" />
    <glyph glyph-name="uni2199" unicode="&#x2199;" horiz-adv-x="700" 
d="M284 277l179 -178h-364l-1 365l179 -180l318 317l7 -7z" />
    <glyph glyph-name="uni2196" unicode="&#x2196;" horiz-adv-x="700" 
d="M284 424l318 -317l-7 -7l-318 317l-179 -180l1 365h364z" />
    <glyph glyph-name="arrowup.ss03" horiz-adv-x="700" 
d="M601 455l-8 -7l-239 238v-686h-10v686l-238 -238l-7 7l250 251z" />
    <glyph glyph-name="uni2197.ss03" horiz-adv-x="700" 
d="M602 246h-11l-1 337l-485 -484l-7 7l486 485h-337v10h354z" />
    <glyph glyph-name="arrowright.ss03" horiz-adv-x="700" 
d="M452 601l251 -250l-251 -252l-7 8l238 239h-686v10h686l-238 238z" />
    <glyph glyph-name="uni2198.ss03" horiz-adv-x="700" 
d="M591 453h11l-1 -355h-354v10h337l-486 485l7 7l485 -484z" />
    <glyph glyph-name="arrowdown.ss03" horiz-adv-x="700" 
d="M593 252l8 -7l-252 -251l-250 251l7 7l238 -238v686h10v-686z" />
    <glyph glyph-name="uni2199.ss03" horiz-adv-x="700" 
d="M602 594l-486 -485h337v-10h-354l-1 355h11l1 -337l485 484z" />
    <glyph glyph-name="arrowleft.ss03" horiz-adv-x="700" 
d="M706 357v-10h-686l238 -239l-7 -8l-251 252l251 250l7 -7l-238 -238h686z" />
    <glyph glyph-name="uni2196.ss03" horiz-adv-x="700" 
d="M602 107l-7 -7l-485 484l-1 -337h-11l1 355h354v-10h-337z" />
    <glyph glyph-name="at" unicode="@" horiz-adv-x="881" 
d="M617 87c-32 0 -55 58 -55 131v39c-30 -122 -129 -175 -210 -175c-76 0 -119 43 -119 100c0 99 117 153 329 167v36c0 101 -48 155 -134 155c-101 0 -164 -66 -164 -184h-9c0 126 68 197 189 197c107 0 176 -63 176 -184v-272c103 0 205 100 205 251
c0 203 -146 352 -361 352c-250 0 -407 -157 -407 -407c0 -222 169 -379 407 -379c98 0 207 29 287 83l3 -10c-73 -52 -186 -83 -290 -83c-244 0 -417 161 -417 389c0 256 161 417 417 417c221 0 371 -153 371 -362c0 -157 -106 -261 -215 -261h-3zM383 110
c89 0 179 83 179 226v5c-173 -13 -271 -60 -271 -149c0 -50 37 -82 92 -82z" />
    <glyph glyph-name="ampersand" unicode="&#x26;" horiz-adv-x="768" 
d="M758 0h-82l-157 218v-4c0 -128 -96 -224 -226 -224s-226 96 -226 224s96 222 226 222c27 0 53 -4 77 -12l-199 276h465v-10h-376zM509 214c0 6 0 12 -1 18l-127 177c-27 11 -56 17 -88 17c-124 0 -216 -91 -216 -212c0 -122 92 -214 216 -214s216 92 216 214z" />
    <glyph glyph-name="paragraph" unicode="&#xb6;" horiz-adv-x="576" 
d="M295 700h215v-860h-10v380h-136v-380h-10v380h-59c-145 0 -258 96 -258 241c0 143 113 239 258 239z" />
    <glyph glyph-name="section" unicode="&#xa7;" horiz-adv-x="615" 
d="M578 248c0 -64 -36 -127 -112 -162c26 -24 42 -55 42 -99c0 -94 -86 -157 -198 -157c-130 0 -214 77 -214 185h10c0 -102 79 -174 201 -174c90 0 158 46 158 115c0 191 -431 88 -431 336c0 64 36 126 112 162c-27 24 -43 55 -43 99c0 94 87 157 199 157
c130 0 214 -77 214 -185h-10c0 102 -80 174 -201 174c-90 0 -158 -46 -158 -115c0 -191 431 -88 431 -336zM459 92c58 25 85 69 85 121c0 173 -276 143 -391 235c-58 -25 -85 -69 -85 -121c0 -173 276 -143 391 -235z" />
    <glyph glyph-name="copyright" unicode="&#xa9;" horiz-adv-x="753" 
d="M377 -10c-199 0 -360 161 -360 360s161 360 360 360s360 -161 360 -360s-161 -360 -360 -360zM377 0c194 0 350 156 350 350s-156 350 -350 350s-350 -156 -350 -350s156 -350 350 -350zM551 303c-4 -81 -65 -136 -160 -136c-110 0 -194 76 -194 191
c0 109 78 183 191 183c94 0 158 -60 161 -153h-10c-6 89 -64 139 -137 139c-93 0 -156 -65 -156 -169c0 -106 64 -177 157 -177c79 0 133 48 138 122h10z" />
    <glyph glyph-name="registered" unicode="&#xae;" horiz-adv-x="528" 
d="M264 710c118 0 214 -84 214 -210c0 -127 -96 -211 -214 -211s-214 84 -214 211c0 126 96 210 214 210zM264 299c112 0 204 80 204 201c0 120 -92 200 -205 200c-112 0 -203 -80 -203 -200c0 -121 91 -201 204 -201zM291 484h19l58 -93h-29l-68 108h-8h-46v-108h-27v234
h81c56 0 86 -27 86 -62c0 -32 -23 -58 -76 -63zM217 508h46c45 0 67 23 67 55c0 30 -21 53 -65 53h-48v-108z" />
    <glyph glyph-name="trademark" unicode="&#x2122;" horiz-adv-x="539" 
d="M30 690v10h201v-10h-85v-209h-30v209h-86zM447 700h36v-219h-30v208l-92 -211h-9l-91 211v-208h-10v219h37l80 -176z" />
    <glyph glyph-name="degree" unicode="&#xb0;" horiz-adv-x="363" 
d="M47 575c0 81 66 135 135 135s135 -54 135 -135c0 -78 -66 -131 -135 -131s-135 53 -135 131zM57 575c0 -74 63 -121 125 -121s125 47 125 121c0 76 -63 125 -125 125s-125 -49 -125 -125z" />
    <glyph glyph-name="bar" unicode="|" horiz-adv-x="220" 
d="M105 -120v890h10v-890h-10z" />
    <glyph glyph-name="brokenbar" unicode="&#xa6;" horiz-adv-x="220" 
d="M105 420v350h10v-350h-10zM105 -120v350h10v-350h-10z" />
    <glyph glyph-name="dagger" unicode="&#x2020;" horiz-adv-x="394" 
d="M339 658v-10h-137v-333h-10v333h-137v10h137v142h10v-142h137z" />
    <glyph glyph-name="daggerdbl" unicode="&#x2021;" horiz-adv-x="394" 
d="M339 648h-137v-181h137v-10h-137v-142h-10v142h-137v10h137v181h-137v10h137v142h10v-142h137v-10z" />
    <glyph glyph-name="uni2116" unicode="&#x2116;" horiz-adv-x="1157" 
d="M927 320c-101 0 -193 78 -193 196c0 116 92 194 193 194c102 0 195 -78 195 -194c0 -118 -93 -196 -195 -196zM623 98v602h10v-710h-10l-546 698v-688h-10v700h83zM927 700c-80 0 -141 -68 -141 -184c0 -117 61 -187 141 -187c82 0 143 70 143 187
c0 116 -61 184 -143 184zM742 223v10h371v-10h-371z" />
    <glyph glyph-name="at.case" horiz-adv-x="881" 
d="M617 121c-32 0 -55 58 -55 131v39c-30 -122 -129 -175 -210 -175c-76 0 -119 43 -119 100c0 99 117 153 329 167v36c0 101 -48 155 -134 155c-101 0 -164 -66 -164 -184h-9c0 126 68 197 189 197c107 0 176 -63 176 -184v-272c103 0 205 100 205 251
c0 203 -146 352 -361 352c-250 0 -407 -157 -407 -407c0 -222 169 -379 407 -379c98 0 207 29 287 83l3 -10c-73 -52 -186 -83 -290 -83c-244 0 -417 161 -417 389c0 256 161 417 417 417c221 0 371 -153 371 -362c0 -157 -106 -261 -215 -261h-3zM383 144
c89 0 179 83 179 226v5c-173 -13 -271 -60 -271 -149c0 -50 37 -82 92 -82z" />
    <glyph glyph-name="bar.case" horiz-adv-x="220" 
d="M105 -96v890h10v-890h-10z" />
    <glyph glyph-name="brokenbar.case" horiz-adv-x="220" 
d="M105 444v350h10v-350h-10zM105 -96v350h10v-350h-10z" />
    <glyph glyph-name="copyright.ss03" horiz-adv-x="753" 
d="M377 -10c-199 0 -360 161 -360 360s161 360 360 360s360 -161 360 -360s-161 -360 -360 -360zM377 0c194 0 350 156 350 350s-156 350 -350 350s-350 -156 -350 -350s156 -350 350 -350zM380 183c-97 0 -170 74 -170 172s73 172 170 172c79 0 135 -49 155 -119l-10 -4
c-18 67 -71 113 -145 113c-91 0 -160 -70 -160 -162s69 -162 160 -162c74 0 127 46 145 113l10 -4c-20 -70 -76 -119 -155 -119z" />
    <glyph glyph-name="trademark.ss03" horiz-adv-x="533" 
d="M30 690v10h201v-10h-95v-209h-10v209h-96zM460 700h16v-219h-10v207l-96 -207h-13l-96 208v-208h-10v219h16l97 -207z" />
    <glyph glyph-name="uni0308" unicode="&#x308;" horiz-adv-x="0" 
d="M-341 715c26 0 45 -20 45 -43s-19 -43 -45 -43c-25 0 -44 20 -44 43s19 43 44 43zM-160 715c26 0 45 -20 45 -43s-19 -43 -45 -43c-25 0 -44 20 -44 43s19 43 44 43z" />
    <glyph glyph-name="uni0307" unicode="&#x307;" horiz-adv-x="0" 
d="M-251 715c26 0 45 -20 45 -43s-19 -43 -45 -43c-25 0 -44 20 -44 43s19 43 44 43z" />
    <glyph glyph-name="gravecomb" unicode="&#x300;" horiz-adv-x="0" 
d="M-175 582h-8l-158 171v7h74z" />
    <glyph glyph-name="acutecomb" unicode="&#x301;" horiz-adv-x="0" 
d="M-325 582l92 178h74v-7l-158 -171h-8z" />
    <glyph glyph-name="uni030B" unicode="&#x30b;" horiz-adv-x="0" 
d="M-425 582l92 178h74v-7l-158 -171h-8zM-245 582l92 178h74v-7l-158 -171h-8z" />
    <glyph glyph-name="caroncomb.alt" horiz-adv-x="0" 
d="M-258 695l-56 -249h-5v254h61v-5z" />
    <glyph glyph-name="uni0302" unicode="&#x302;" horiz-adv-x="0" 
d="M-95 584h-57l-121 146l-121 -146h-11l154 185h2z" />
    <glyph glyph-name="uni030C" unicode="&#x30c;" horiz-adv-x="0" 
d="M-106 760h11l-154 -185h-2l-154 185h57l121 -146z" />
    <glyph glyph-name="uni0306" unicode="&#x306;" horiz-adv-x="0" 
d="M-105 739c-3 -103 -68 -153 -144 -153c-77 0 -142 50 -145 153h3c14 -82 77 -112 142 -112c63 0 127 30 141 112h3z" />
    <glyph glyph-name="uni030A" unicode="&#x30a;" horiz-adv-x="0" 
d="M-251 764c58 0 94 -41 94 -92s-36 -92 -94 -92c-57 0 -93 41 -93 92s36 92 93 92zM-251 754c-51 0 -83 -37 -83 -82s32 -82 83 -82c52 0 84 37 84 82s-32 82 -84 82z" />
    <glyph glyph-name="tildecomb" unicode="&#x303;" horiz-adv-x="0" 
d="M-83 718l10 -3c-27 -83 -62 -118 -95 -118c-43 0 -119 64 -187 109c-16 -11 -34 -37 -51 -83l-10 2c26 82 64 105 91 105c43 0 106 -62 191 -103c16 20 34 46 51 91z" />
    <glyph glyph-name="uni0304" unicode="&#x304;" horiz-adv-x="0" 
d="M-384 650h268v-10h-268v10z" />
    <glyph glyph-name="uni0312" unicode="&#x312;" horiz-adv-x="0" 
d="M-234 763c-53 0 -83 -43 -83 -88c0 -23 10 -50 34 -57c-2 5 -3 10 -3 15c0 21 16 37 38 37c24 0 40 -16 40 -40c0 -23 -17 -39 -43 -39c-45 0 -76 31 -76 85c0 50 35 96 95 96c15 0 32 -3 51 -10l-3 -10c-18 7 -35 11 -50 11z" />
    <glyph glyph-name="uni0326" unicode="&#x326;" horiz-adv-x="0" 
d="M-249 -69c45 0 76 -32 76 -86c0 -50 -35 -95 -95 -95c-15 0 -32 2 -51 10l3 10c18 -8 35 -11 50 -11c53 0 83 42 83 87c0 23 -10 50 -34 57c2 -4 3 -9 3 -14c0 -22 -16 -37 -38 -37c-24 0 -40 16 -40 39s17 40 43 40z" />
    <glyph glyph-name="uni0327" unicode="&#x327;" horiz-adv-x="0" 
d="M-285 -59c65 -9 134 -37 134 -93c0 -45 -40 -75 -95 -75c-58 0 -110 34 -130 84l8 5c19 -44 64 -72 107 -72c40 0 67 23 67 58c0 42 -43 77 -107 86l42 66h10z" />
    <glyph glyph-name="uni0328" unicode="&#x328;" horiz-adv-x="0" 
d="M-133 -141c-34 -43 -69 -67 -128 -67c-61 0 -98 33 -98 81c0 64 67 102 150 130l2 -6c-68 -29 -111 -57 -111 -112c0 -45 31 -75 78 -75c36 0 66 12 101 55z" />
    <glyph glyph-name="uni0335" unicode="&#x335;" horiz-adv-x="0" 
d="M-418 314h335v-10h-335v10z" />
    <glyph glyph-name="uni0336" unicode="&#x336;" horiz-adv-x="0" 
d="M-608 314h714v-10h-714v10z" />
    <glyph glyph-name="uni0337" unicode="&#x337;" horiz-adv-x="0" 
d="M-526 -22l544 544l7 -7l-544 -544z" />
    <glyph glyph-name="uni0338" unicode="&#x338;" horiz-adv-x="0" 
d="M-604 3l693 693l7 -7l-693 -693z" />
    <glyph glyph-name="acute" unicode="&#xb4;" 
d="M175 582l92 178h74v-7l-158 -171h-8z" />
    <glyph glyph-name="breve" unicode="&#x2d8;" 
d="M395 739c-3 -103 -68 -153 -144 -153c-77 0 -142 50 -145 153h3c14 -82 77 -112 142 -112c63 0 127 30 141 112h3z" />
    <glyph glyph-name="caron" unicode="&#x2c7;" 
d="M394 760h11l-154 -185h-2l-154 185h57l121 -146z" />
    <glyph glyph-name="cedilla" unicode="&#xb8;" 
d="M215 -59c65 -9 134 -37 134 -93c0 -45 -40 -75 -95 -75c-58 0 -110 34 -130 84l8 5c19 -44 64 -72 107 -72c40 0 67 23 67 58c0 42 -43 77 -107 86l42 66h10z" />
    <glyph glyph-name="circumflex" unicode="&#x2c6;" 
d="M405 584h-57l-121 146l-121 -146h-11l154 185h2z" />
    <glyph glyph-name="dieresis" unicode="&#xa8;" 
d="M159 715c26 0 45 -20 45 -43s-19 -43 -45 -43c-25 0 -44 20 -44 43s19 43 44 43zM340 715c26 0 45 -20 45 -43s-19 -43 -45 -43c-25 0 -44 20 -44 43s19 43 44 43z" />
    <glyph glyph-name="dotaccent" unicode="&#x2d9;" 
d="M249 715c26 0 45 -20 45 -43s-19 -43 -45 -43c-25 0 -44 20 -44 43s19 43 44 43z" />
    <glyph glyph-name="grave" unicode="`" 
d="M325 582h-8l-158 171v7h74z" />
    <glyph glyph-name="hungarumlaut" unicode="&#x2dd;" 
d="M75 582l92 178h74v-7l-158 -171h-8zM255 582l92 178h74v-7l-158 -171h-8z" />
    <glyph glyph-name="macron" unicode="&#xaf;" 
d="M116 650h268v-10h-268v10z" />
    <glyph glyph-name="ogonek" unicode="&#x2db;" 
d="M367 -141c-34 -43 -69 -67 -128 -67c-61 0 -98 33 -98 81c0 64 67 102 150 130l2 -6c-68 -29 -111 -57 -111 -112c0 -45 31 -75 78 -75c36 0 66 12 101 55z" />
    <glyph glyph-name="ring" unicode="&#x2da;" 
d="M249 764c58 0 94 -41 94 -92s-36 -92 -94 -92c-57 0 -93 41 -93 92s36 92 93 92zM249 754c-51 0 -83 -37 -83 -82s32 -82 83 -82c52 0 84 37 84 82s-32 82 -84 82z" />
    <glyph glyph-name="tilde" unicode="&#x2dc;" 
d="M417 718l10 -3c-27 -83 -62 -118 -95 -118c-43 0 -119 64 -187 109c-16 -11 -34 -37 -51 -83l-10 2c26 82 64 105 91 105c43 0 106 -62 191 -103c16 20 34 46 51 91z" />
    <glyph glyph-name="uni0308.case" horiz-adv-x="0" 
d="M-341 889c26 0 45 -20 45 -44c0 -23 -19 -43 -45 -43c-25 0 -44 20 -44 43c0 24 19 44 44 44zM-160 889c26 0 45 -20 45 -44c0 -23 -19 -43 -45 -43c-25 0 -44 20 -44 43c0 24 19 44 44 44z" />
    <glyph glyph-name="uni0307.case" horiz-adv-x="0" 
d="M-250 889c26 0 45 -20 45 -44c0 -23 -19 -43 -45 -43c-25 0 -44 20 -44 43c0 24 19 44 44 44z" />
    <glyph glyph-name="gravecomb.case" horiz-adv-x="0" 
d="M-175 750h-8l-158 170v7h74z" />
    <glyph glyph-name="acutecomb.case" horiz-adv-x="0" 
d="M-325 750l92 177h74v-7l-158 -170h-8z" />
    <glyph glyph-name="uni030B.case" horiz-adv-x="0" 
d="M-425 750l92 177h74v-7l-158 -170h-8zM-245 750l92 177h74v-7l-158 -170h-8z" />
    <glyph glyph-name="uni0302.case" horiz-adv-x="0" 
d="M-95 742h-57l-121 146l-121 -146h-11l154 185h2z" />
    <glyph glyph-name="uni030C.case" horiz-adv-x="0" 
d="M-106 927h11l-154 -185h-2l-154 185h57l121 -145z" />
    <glyph glyph-name="uni0306.case" horiz-adv-x="0" 
d="M-105 922c-3 -103 -68 -154 -144 -154c-77 0 -142 51 -145 154h3c14 -82 77 -112 142 -112c63 0 127 30 141 112h3z" />
    <glyph glyph-name="uni030A.case" horiz-adv-x="0" 
d="M-252 884c58 0 94 -41 94 -92s-36 -92 -94 -92c-57 0 -93 41 -93 92s36 92 93 92zM-252 874c-51 0 -83 -37 -83 -82s32 -82 83 -82c52 0 84 37 84 82s-32 82 -84 82z" />
    <glyph glyph-name="tildecomb.case" horiz-adv-x="0" 
d="M-83 890l10 -3c-27 -83 -62 -118 -95 -118c-43 0 -119 65 -187 110c-16 -11 -34 -37 -51 -84l-10 3c26 82 64 104 91 104c43 0 106 -62 191 -103c16 20 33 47 51 91z" />
    <glyph glyph-name="uni0304.case" horiz-adv-x="0" 
d="M-384 820h268v-10h-268v10z" />
    <glyph glyph-name="uni0312.case" horiz-adv-x="0" 
d="M-234 966c-53 0 -83 -42 -83 -87c0 -23 10 -52 35 -58c-3 5 -4 10 -4 15c0 22 16 37 38 37c24 0 40 -16 40 -39c0 -24 -17 -40 -43 -40c-45 0 -76 32 -76 86c0 49 35 95 95 95c15 0 32 -3 51 -10l-3 -10c-18 7 -35 11 -50 11z" />
    </font>
</defs>
</svg>
