<?xml version="1.0" standalone="no"?>
<!DOCTYPE svg PUBLIC "-//W3C//DTD SVG 1.1//EN" "http://www.w3.org/Graphics/SVG/1.1/DTD/svg11.dtd" >
<svg xmlns="http://www.w3.org/2000/svg" xmlns:xlink="http://www.w3.org/1999/xlink" version="1.1">
<metadata>
Created by FontForge 20201107 at Sun Apr 14 11:54:06 2019
 By Jimmy Wärting
Copyright \(c\) 2019 by Rene Bieder. All rights reserved.
</metadata>
<defs>
<font id="MagnatTest-TextLight" horiz-adv-x="577" >
  <font-face 
    font-family="Magnat Test Text Light"
    font-weight="300"
    font-stretch="ultra-expanded"
    units-per-em="1000"
    panose-1="2 11 0 2 8 7 2 4 2 4"
    ascent="780"
    descent="-220"
    x-height="500"
    cap-height="700"
    bbox="-1 -200 1023 796"
    underline-thickness="40"
    underline-position="-160"
    stemh="40"
    stemv="77"
    unicode-range="U+0020-007A"
  />
<missing-glyph horiz-adv-x="600" 
d="M90 700h420v-700h-420v700zM135 675l165 -296l165 296h-330zM316 350l169 -304v608zM284 350l-164 295v-590zM300 321l-165 -296h330z" />
    <glyph glyph-name=".notdef" horiz-adv-x="600" 
d="M90 700h420v-700h-420v700zM135 675l165 -296l165 296h-330zM316 350l169 -304v608zM284 350l-164 295v-590zM300 321l-165 -296h330z" />
    <glyph glyph-name="space" unicode=" " horiz-adv-x="200" 
 />
    <glyph glyph-name="A" unicode="A" horiz-adv-x="682" 
d="M581 0l-82 176h-354l-76 -176h-56l311 705h20l326 -705h-89zM167 226h309l-160 345z" />
    <glyph glyph-name="B" unicode="B" horiz-adv-x="627" 
d="M370 359c149 0 223 -69 223 -175c0 -107 -91 -184 -252 -184h-263v700h257c138 0 221 -65 221 -170c0 -95 -58 -160 -186 -166v-5zM311 652h-152v-267h144c116 0 173 57 173 141c0 75 -65 126 -165 126zM316 46c124 0 197 53 197 142c0 91 -67 150 -206 150h-148v-292
h157z" />
    <glyph glyph-name="C" unicode="C" horiz-adv-x="762" 
d="M406 -10c-199 0 -373 143 -373 359c0 207 159 361 370 361c181 0 306 -119 312 -315h-59c-8 162 -99 266 -246 266c-172 0 -287 -123 -287 -306c0 -194 119 -314 288 -314c145 0 241 103 259 249h59c-25 -190 -151 -300 -323 -300z" />
    <glyph glyph-name="D" unicode="D" horiz-adv-x="729" 
d="M288 700c254 0 408 -137 408 -350c0 -212 -154 -350 -408 -350h-210v700h210zM288 50c216 0 319 118 319 300s-103 300 -319 300h-129v-600h129z" />
    <glyph glyph-name="E" unicode="E" horiz-adv-x="546" 
d="M500 650h-341v-270h311v-50h-311v-280h341v-50h-422v700h422v-50z" />
    <glyph glyph-name="F" unicode="F" horiz-adv-x="521" 
d="M484 650h-325v-270h295v-50h-295v-330h-81v700h406v-50z" />
    <glyph glyph-name="G" unicode="G" horiz-adv-x="788" 
d="M456 341h264v-351h-40l-34 93c-51 -47 -135 -93 -249 -93c-194 0 -364 136 -364 358c0 213 155 362 365 362c183 0 312 -114 316 -295h-59c-3 143 -94 246 -252 246c-169 0 -280 -117 -280 -306c0 -200 123 -317 296 -317c103 0 169 46 220 98v155h-183v50z" />
    <glyph glyph-name="H" unicode="H" horiz-adv-x="717" 
d="M558 700h81v-700h-81v344h-399v-344h-81v700h81v-306h399v306z" />
    <glyph glyph-name="I" unicode="I" horiz-adv-x="238" 
d="M78 0v700h81v-700h-81z" />
    <glyph glyph-name="J" unicode="J" horiz-adv-x="541" 
d="M389 700h81v-496c0 -134 -97 -213 -224 -213c-138 0 -216 81 -216 202h59c0 -95 60 -154 152 -154c90 0 148 52 148 135v526z" />
    <glyph glyph-name="K" unicode="K" horiz-adv-x="670" 
d="M543 0l-298 333h-86v-333h-81v700h81v-317h60l318 317h70l-300 -298l341 -402h-105z" />
    <glyph glyph-name="L" unicode="L" horiz-adv-x="527" 
d="M159 50h342v-50h-423v700h81v-650z" />
    <glyph glyph-name="M" unicode="M" horiz-adv-x="869" 
d="M790 700v-700h-81v594l-278 -599h-22l-275 600v-595h-56v700h98l263 -572l262 572h89z" />
    <glyph glyph-name="N" unicode="N" horiz-adv-x="740" 
d="M606 700h56v-705h-27l-501 635v-630h-56v700h107l421 -536v536z" />
    <glyph glyph-name="O" unicode="O" horiz-adv-x="781" 
d="M391 710c188 0 357 -150 357 -360s-169 -360 -357 -360c-189 0 -358 150 -358 360s169 360 358 360zM391 40c160 0 273 117 273 310s-113 310 -273 310s-273 -117 -273 -310s113 -310 273 -310z" />
    <glyph glyph-name="P" unicode="P" horiz-adv-x="601" 
d="M316 700c166 0 262 -74 262 -195c0 -127 -98 -202 -262 -202h-157v-303h-81v700h238zM308 353c122 0 185 64 185 152c0 83 -64 145 -185 145h-149v-297h149z" />
    <glyph glyph-name="Q" unicode="Q" horiz-adv-x="781" 
d="M853 -72l29 -41c-91 -74 -176 -79 -235 -79c-185 0 -351 85 -530 309c-52 61 -84 141 -84 233c0 210 169 360 358 360c188 0 357 -150 357 -360s-169 -360 -357 -360c-38 0 -76 6 -111 18c116 -105 235 -157 363 -157c60 0 133 7 210 77zM391 660
c-160 0 -273 -117 -273 -310s113 -310 273 -310s273 117 273 310s-113 310 -273 310z" />
    <glyph glyph-name="R" unicode="R" horiz-adv-x="630" 
d="M600 0h-89l-173 326c-10 -1 -20 -1 -30 -1h-149v-325h-81v700h230c165 0 266 -75 266 -187c0 -91 -66 -158 -178 -180l29 -55h26zM279 375c134 0 210 51 210 138c0 86 -76 137 -210 137h-120v-275h120z" />
    <glyph glyph-name="S" unicode="S" horiz-adv-x="562" 
d="M289 -10c-155 0 -255 90 -255 224h56c0 -105 80 -175 198 -175c99 0 162 50 162 125c0 198 -405 89 -405 347c0 120 92 199 230 199c136 0 230 -77 230 -204h-56c0 94 -69 155 -173 155c-92 0 -153 -51 -153 -126c0 -197 405 -85 405 -343c0 -122 -97 -202 -239 -202z
" />
    <glyph glyph-name="T" unicode="T" horiz-adv-x="634" 
d="M606 700v-50h-249v-650h-80v650h-249v50h578z" />
    <glyph glyph-name="U" unicode="U" horiz-adv-x="695" 
d="M624 700v-432c0 -172 -106 -278 -273 -278c-176 0 -280 108 -280 277v433h81v-424c0 -149 77 -237 206 -237c130 0 210 83 210 234v427h56z" />
    <glyph glyph-name="V" unicode="V" horiz-adv-x="682" 
d="M613 700h57l-312 -705h-19l-326 705h88l265 -570z" />
    <glyph glyph-name="W" unicode="W" horiz-adv-x="1035" 
d="M965 700h58l-293 -705h-19l-195 448l-190 -448h-18l-295 705h86l232 -561l157 370l-83 191h89l244 -564z" />
    <glyph glyph-name="X" unicode="X" horiz-adv-x="666" 
d="M646 0h-100l-226 301l-232 -301h-66l268 341l-270 359h98l222 -294l226 294h66l-262 -334z" />
    <glyph glyph-name="Y" unicode="Y" horiz-adv-x="582" 
d="M508 700h61l-234 -368v-332h-80v325l-242 375h97l196 -319z" />
    <glyph glyph-name="Z" unicode="Z" horiz-adv-x="672" 
d="M630 700v-25l-476 -625h470v-50h-585v25l476 625h-464v50h579z" />
    <glyph glyph-name="a" unicode="a" horiz-adv-x="526" 
d="M264 510c133 0 201 -78 201 -214v-301h-40l-26 148c-41 -105 -133 -153 -218 -153c-93 0 -149 47 -149 119c0 108 119 172 357 186v13c0 92 -37 155 -138 155c-94 0 -150 -60 -150 -165h-49c0 134 81 212 212 212zM206 39c97 0 179 88 183 216
c-179 -10 -280 -49 -280 -136c0 -47 33 -80 97 -80z" />
    <glyph glyph-name="b" unicode="b" horiz-adv-x="604" 
d="M340 510c126 0 229 -99 229 -258c0 -162 -104 -262 -231 -262c-95 0 -169 52 -203 141l-29 -130h-40v759h77v-372c37 77 108 122 197 122zM316 38c93 0 172 74 172 214c0 138 -78 211 -171 211c-104 0 -174 -81 -174 -211c0 -132 69 -214 173 -214z" />
    <glyph glyph-name="c" unicode="c" horiz-adv-x="569" 
d="M533 200c0 -139 -108 -210 -230 -210c-151 0 -267 100 -267 261c0 162 118 259 264 259c122 0 217 -68 228 -207h-49c-10 106 -66 167 -170 167c-118 0 -193 -82 -193 -213c0 -135 75 -221 199 -221c101 0 170 66 170 164h48z" />
    <glyph glyph-name="d" unicode="d" horiz-adv-x="605" 
d="M461 760h77v-759h-40l-29 128c-34 -88 -108 -139 -202 -139c-128 0 -231 100 -231 262c0 159 102 258 229 258c88 0 159 -44 196 -120v370zM289 38c96 0 163 71 172 187v53c-9 115 -76 185 -173 185c-93 0 -172 -73 -172 -211c0 -140 79 -214 173 -214z" />
    <glyph glyph-name="e" unicode="e" horiz-adv-x="546" 
d="M462 174h48c-10 -117 -97 -184 -213 -184c-168 0 -261 104 -261 262c0 154 91 258 247 258c131 0 225 -93 220 -262h-387c5 -133 62 -210 189 -210c87 0 148 55 157 136zM285 472c-103 0 -163 -61 -169 -187h313c-2 125 -55 187 -144 187z" />
    <glyph glyph-name="f" unicode="f" horiz-adv-x="403" 
d="M327 796c76 0 150 -36 166 -126l-49 -11c-11 61 -55 97 -115 97c-83 0 -133 -61 -133 -162v-94h206v-45h-206v-455h-77l1 455h-114v45h114v57c0 161 90 239 207 239z" />
    <glyph glyph-name="g" unicode="g" horiz-adv-x="525" 
d="M311 126c105 0 171 -45 171 -132c0 -105 -99 -164 -251 -164c-101 0 -184 31 -232 83l27 35c46 -52 125 -78 208 -78c108 0 177 38 177 106c0 56 -45 79 -116 79h-196v199c-40 25 -62 63 -62 110c0 90 83 146 218 146h8c107 0 180 36 180 93c0 53 -52 79 -136 63v46
c112 18 182 -24 182 -98c0 -59 -48 -101 -125 -120c67 -22 106 -68 106 -130c0 -92 -82 -148 -214 -148c-41 0 -77 5 -107 15v-105h162zM253 475c-84 0 -139 -43 -139 -110c0 -69 55 -114 139 -114c83 0 137 45 137 114c0 67 -54 110 -137 110z" />
    <glyph glyph-name="h" unicode="h" 
d="M333 510c106 0 183 -70 183 -187v-323h-76v306c0 95 -55 149 -134 149c-89 0 -154 -65 -163 -178v-277h-77v760h77v-389c29 87 95 139 190 139z" />
    <glyph glyph-name="i" unicode="i" horiz-adv-x="208" 
d="M103 721c31 0 51 -22 51 -49s-20 -49 -51 -49c-30 0 -50 22 -50 49s20 49 50 49zM66 0v500h77v-500h-77z" />
    <glyph glyph-name="j" unicode="j" horiz-adv-x="208" 
d="M103 721c31 0 51 -22 51 -49s-20 -49 -51 -49c-30 0 -50 22 -50 49s20 49 50 49zM66 -200v700h77v-246c0 -178 -23 -367 -37 -454h-40z" />
    <glyph glyph-name="k" unicode="k" horiz-adv-x="529" 
d="M427 0l-212 246h-72v-246h-77v760h77v-469h51l238 209h66l-231 -199l251 -301h-91z" />
    <glyph glyph-name="l" unicode="l" horiz-adv-x="208" 
d="M66 0v760h77v-760h-77z" />
    <glyph glyph-name="m" unicode="m" horiz-adv-x="951" 
d="M707 510c106 0 183 -70 183 -187v-323h-76v306c0 95 -55 149 -134 149c-96 0 -164 -75 -164 -205v-250h-76v306c0 95 -55 149 -134 149c-89 0 -154 -65 -163 -178v-277h-77v500h77v-129c29 87 95 139 190 139c89 0 157 -49 177 -134c34 84 103 134 197 134z" />
    <glyph glyph-name="n" unicode="n" 
d="M333 510c106 0 183 -70 183 -187v-323h-76v306c0 95 -55 149 -134 149c-89 0 -154 -65 -163 -178v-277h-77v500h77v-129c29 87 95 139 190 139z" />
    <glyph glyph-name="o" unicode="o" horiz-adv-x="582" 
d="M291 510c134 0 255 -103 255 -258c0 -157 -121 -262 -255 -262s-255 105 -255 262c0 155 121 258 255 258zM291 30c103 0 174 79 174 222c0 140 -71 218 -174 218s-175 -78 -175 -218c0 -143 72 -222 175 -222z" />
    <glyph glyph-name="p" unicode="p" horiz-adv-x="604" 
d="M340 510c126 0 229 -99 229 -258c0 -162 -104 -262 -231 -262c-88 0 -158 45 -195 123v-273h-77v660h77v-112c37 77 108 122 197 122zM316 38c93 0 172 74 172 214c0 138 -78 211 -171 211c-104 0 -174 -81 -174 -211c0 -132 69 -214 173 -214z" />
    <glyph glyph-name="q" unicode="q" horiz-adv-x="604" 
d="M499 504h40v-664h-77v273c-37 -78 -107 -123 -195 -123c-128 0 -231 100 -231 262c0 159 102 258 229 258c96 0 170 -51 205 -140zM289 38c103 0 173 82 173 214c0 130 -70 211 -174 211c-93 0 -172 -73 -172 -211c0 -140 79 -214 173 -214z" />
    <glyph glyph-name="r" unicode="r" horiz-adv-x="339" 
d="M143 375c35 79 100 135 191 135v-60c-135 5 -191 -99 -191 -239v-211h-77v500h77v-125z" />
    <glyph glyph-name="s" unicode="s" horiz-adv-x="459" 
d="M117 381c0 -139 309 -49 309 -241c0 -90 -76 -150 -185 -150c-120 0 -205 67 -205 184h51c0 -91 62 -140 147 -140c72 0 120 35 120 87c0 139 -309 49 -309 242c0 89 75 147 181 147c108 0 179 -64 179 -165h-50c0 75 -49 121 -123 121c-69 0 -115 -36 -115 -85z" />
    <glyph glyph-name="t" unicode="t" horiz-adv-x="424" 
d="M353 174h52c0 -140 -71 -183 -153 -183c-85 0 -150 49 -150 164v300h-97v45h97l37 130h40v-130h215v-45h-215v-311c0 -69 33 -105 89 -105c53 0 84 34 85 135z" />
    <glyph glyph-name="u" unicode="u" 
d="M435 500h76v-499h-40l-27 129c-32 -89 -103 -140 -200 -140c-106 0 -183 70 -183 187v323h77v-306c0 -95 54 -149 134 -149c95 0 163 75 163 205v250z" />
    <glyph glyph-name="v" unicode="v" horiz-adv-x="494" 
d="M427 500h56l-217 -505h-19l-237 505h84l173 -373z" />
    <glyph glyph-name="w" unicode="w" horiz-adv-x="757" 
d="M694 500h52l-194 -505h-17l-154 366l-141 -366h-17l-213 505h81l154 -363l108 288l-31 75h82l153 -363z" />
    <glyph glyph-name="x" unicode="x" horiz-adv-x="501" 
d="M473 500l-190 -243l190 -257h-85l-151 206l-163 -206h-59l193 246l-185 254h81l150 -204l160 204h59z" />
    <glyph glyph-name="y" unicode="y" horiz-adv-x="531" 
d="M464 500h56l-283 -662h-64l73 156l-236 506h84l192 -418z" />
    <glyph glyph-name="z" unicode="z" horiz-adv-x="493" 
d="M464 500v-25l-335 -430h329v-45h-423v25l331 430h-313v45h411z" />
    <glyph glyph-name="zero" unicode="0" horiz-adv-x="677" 
d="M338 -10c-168 0 -305 144 -305 360s137 360 305 360c169 0 305 -144 305 -360s-136 -360 -305 -360zM338 30c136 0 220 113 220 320c0 208 -84 320 -220 320c-135 0 -219 -112 -219 -320c0 -207 84 -320 219 -320z" />
    <glyph glyph-name="one" unicode="1" horiz-adv-x="401" 
d="M300 700h29v-700h-81v618l-236 -117v59z" />
    <glyph glyph-name="two" unicode="2" horiz-adv-x="583" 
d="M203 72h342v-72h-502v17l35 55h84c170 141 277 284 277 408c0 108 -67 181 -173 181c-101 0 -173 -62 -173 -163c0 -47 15 -81 49 -114l-41 -30c-41 34 -62 83 -62 136c0 130 97 220 243 220c144 0 236 -95 236 -230c0 -140 -111 -278 -315 -408z" />
    <glyph glyph-name="three" unicode="3" horiz-adv-x="552" 
d="M47 700h464v-29l-233 -252c151 -19 233 -92 233 -212c0 -128 -98 -217 -243 -217c-108 0 -200 54 -233 139l45 27c27 -72 97 -120 189 -120c104 0 173 61 173 152c0 90 -68 165 -236 172l-33 1v12l232 255h-358v72z" />
    <glyph glyph-name="four" unicode="4" horiz-adv-x="590" 
d="M575 226v-45h-109v-181h-81v181h-378v27l429 502h30v-484h109zM76 226h309v355z" />
    <glyph glyph-name="five" unicode="5" horiz-adv-x="543" 
d="M501 628h-309l-37 -178c221 7 346 -82 346 -236c0 -132 -98 -224 -240 -224c-113 0 -203 53 -236 139l45 27c28 -74 95 -119 190 -119c102 0 171 63 171 160c0 130 -127 196 -341 182l67 321h362z" />
    <glyph glyph-name="six" unicode="6" 
d="M326 450c128 0 214 -87 214 -216c0 -145 -107 -244 -247 -244c-97 0 -173 50 -213 120c-28 47 -42 104 -42 188c0 259 127 412 305 412c95 0 173 -42 207 -120l-39 -33c-30 69 -86 108 -169 108c-131 0 -208 -104 -220 -322c41 70 117 107 204 107zM294 30
c100 0 167 72 167 190c0 117 -66 185 -166 185c-105 0 -171 -75 -171 -185c0 -114 68 -190 170 -190z" />
    <glyph glyph-name="seven" unicode="7" horiz-adv-x="538" 
d="M30 700h515v-10l-387 -690h-58l359 628h-429v72z" />
    <glyph glyph-name="eight" unicode="8" horiz-adv-x="570" 
d="M352 383c94 -32 185 -73 185 -193c0 -118 -100 -200 -261 -200c-138 0 -243 68 -243 179c0 83 63 147 167 189c-74 31 -135 76 -135 174c0 109 93 178 222 178c115 0 208 -61 208 -155c0 -71 -43 -129 -143 -172zM143 552c0 -89 74 -122 159 -151c92 42 138 91 138 154
c0 69 -64 115 -146 115c-84 0 -151 -44 -151 -118zM267 32c112 0 189 56 189 139c0 107 -105 134 -206 169c-102 -42 -162 -96 -162 -170c0 -83 74 -138 179 -138z" />
    <glyph glyph-name="nine" unicode="9" 
d="M496 590c29 -47 42 -104 42 -188c0 -259 -126 -412 -304 -412c-96 0 -173 42 -207 120l39 33c30 -69 85 -108 169 -108c131 0 207 104 219 322c-40 -70 -117 -107 -203 -107c-129 0 -215 87 -215 216c0 145 107 244 248 244c97 0 172 -50 212 -120zM282 295
c105 0 171 75 171 185c0 114 -68 190 -170 190c-100 0 -167 -72 -167 -190c0 -117 66 -185 166 -185z" />
    <glyph glyph-name="period" unicode="." horiz-adv-x="315" 
d="M157 97c33 0 53 -23 53 -52s-20 -52 -53 -52c-32 0 -52 23 -52 52s20 52 52 52z" />
    <glyph glyph-name="comma" unicode="," horiz-adv-x="315" 
d="M160 97c59 0 92 -61 92 -122c0 -105 -76 -175 -182 -162v38c88 -11 143 39 143 119c0 13 -3 30 -10 47c-9 -15 -25 -24 -46 -24c-31 0 -52 21 -52 51c0 31 21 53 55 53z" />
    <glyph glyph-name="hyphen" unicode="-" horiz-adv-x="380" 
d="M60 329h260v-59h-260v59z" />
    </font>
</defs>
</svg>
